CrimsonText_New_Draft_47 NUM Regular.ufo
<glyph name="exclam" format="1">
  <advance width="196"/>
  <unicode hex="0021"/>
  <outline>
    <contour>
      <point x="81" y="142" type="curve"/>
      <point x="115" y="142" type="line"/>
      <point x="121" y="238"/>
      <point x="148" y="333"/>
      <point x="148" y="397" type="curve"/>
      <point x="148" y="438"/>
      <point x="127" y="461"/>
      <point x="98" y="461" type="curve"/>
      <point x="70" y="461"/>
      <point x="48" y="438"/>
      <point x="48" y="397" type="curve"/>
      <point x="48" y="333"/>
      <point x="75" y="238"/>
    </contour>
    <contour>
      <point x="98" y="-7" type="curve"/>
      <point x="129" y="-7"/>
      <point x="153" y="17"/>
      <point x="153" y="49" type="curve"/>
      <point x="153" y="80"/>
      <point x="129" y="105"/>
      <point x="98" y="105" type="curve"/>
      <point x="68" y="105"/>
      <point x="43" y="80"/>
      <point x="43" y="49" type="curve"/>
      <point x="43" y="17"/>
      <point x="68" y="-7"/>
    </contour>
  </outline>
</glyph>
<glyph name="numbersign" format="1">
  <advance width="371"/>
  <unicode hex="0023"/>
  <outline>
    <contour>
      <point x="268" y="388" type="line"/>
      <point x="182" y="0" type="line"/>
      <point x="224" y="0" type="line"/>
      <point x="310" y="388" type="line"/>
    </contour>
    <contour>
      <point x="24" y="149" type="line"/>
      <point x="24" y="110" type="line"/>
      <point x="335" y="110" type="line"/>
      <point x="335" y="149" type="line"/>
    </contour>
    <contour>
      <point x="148" y="388" type="line"/>
      <point x="62" y="0" type="line"/>
      <point x="103" y="0" type="line"/>
      <point x="189" y="388" type="line"/>
    </contour>
    <contour>
      <point x="36" y="278" type="line"/>
      <point x="36" y="239" type="line"/>
      <point x="347" y="239" type="line"/>
      <point x="347" y="278" type="line"/>
    </contour>
  </outline>
</glyph>
<glyph name="dollar" format="1">
  <advance width="347"/>
  <unicode hex="0024"/>
  <outline>
    <contour>
      <point x="166" y="465" type="line"/>
      <point x="166" y="-77" type="line"/>
      <point x="206" y="-77" type="line"/>
      <point x="206" y="465" type="line"/>
    </contour>
    <contour>
      <point x="164" y="-6" type="curve"/>
      <point x="261" y="-6"/>
      <point x="328" y="43"/>
      <point x="328" y="110" type="curve"/>
      <point x="328" y="235"/>
      <point x="120" y="213"/>
      <point x="120" y="302" type="curve"/>
      <point x="120" y="336"/>
      <point x="150" y="357"/>
      <point x="194" y="357" type="curve"/>
      <point x="214" y="357"/>
      <point x="231" y="354"/>
      <point x="248" y="346" type="curve"/>
      <point x="256" y="329"/>
      <point x="262" y="306"/>
      <point x="269" y="281" type="curve"/>
      <point x="306" y="285" type="line"/>
      <point x="299" y="378" type="line"/>
      <point x="274" y="388"/>
      <point x="236" y="395"/>
      <point x="201" y="395" type="curve"/>
      <point x="106" y="395"/>
      <point x="41" y="348"/>
      <point x="41" y="278" type="curve"/>
      <point x="41" y="147"/>
      <point x="246" y="175"/>
      <point x="246" y="84" type="curve"/>
      <point x="246" y="53"/>
      <point x="219" y="34"/>
      <point x="175" y="34" type="curve"/>
      <point x="149" y="34"/>
      <point x="120" y="40"/>
      <point x="99" y="53" type="curve"/>
      <point x="91" y="75"/>
      <point x="84" y="98"/>
      <point x="77" y="121" type="curve"/>
      <point x="40" y="117" type="line"/>
      <point x="39" y="89"/>
      <point x="41" y="59"/>
      <point x="43" y="23" type="curve"/>
      <point x="73" y="5"/>
      <point x="124" y="-6"/>
    </contour>
  </outline>
</glyph>
<glyph name="percent" format="1">
  <advance width="543"/>
  <unicode hex="0025"/>
  <outline>
    <contour>
      <point x="92" y="24" type="line"/>
      <point x="130" y="-9" type="line"/>
      <point x="451" y="365" type="line"/>
      <point x="414" y="397" type="line"/>
    </contour>
    <contour>
      <point x="139" y="188" type="curve"/>
      <point x="201" y="188"/>
      <point x="252" y="233"/>
      <point x="252" y="292" type="curve"/>
      <point x="252" y="352"/>
      <point x="204" y="394"/>
      <point x="139" y="394" type="curve"/>
      <point x="78" y="394"/>
      <point x="26" y="349"/>
      <point x="26" y="292" type="curve"/>
      <point x="26" y="231"/>
      <point x="73" y="188"/>
    </contour>
    <contour>
      <point x="139" y="240" type="curve"/>
      <point x="107" y="240"/>
      <point x="84" y="261"/>
      <point x="84" y="292" type="curve"/>
      <point x="84" y="323"/>
      <point x="107" y="343"/>
      <point x="139" y="343" type="curve"/>
      <point x="171" y="343"/>
      <point x="196" y="324"/>
      <point x="196" y="292" type="curve"/>
      <point x="196" y="260"/>
      <point x="171" y="240"/>
    </contour>
    <contour>
      <point x="404" y="-6" type="curve"/>
      <point x="466" y="-6"/>
      <point x="517" y="39"/>
      <point x="517" y="97" type="curve"/>
      <point x="517" y="158"/>
      <point x="469" y="200"/>
      <point x="404" y="200" type="curve"/>
      <point x="343" y="200"/>
      <point x="291" y="154"/>
      <point x="291" y="97" type="curve"/>
      <point x="291" y="37"/>
      <point x="338" y="-6"/>
    </contour>
    <contour>
      <point x="404" y="46" type="curve"/>
      <point x="372" y="46"/>
      <point x="349" y="66"/>
      <point x="349" y="98" type="curve"/>
      <point x="349" y="129"/>
      <point x="372" y="149"/>
      <point x="404" y="149" type="curve"/>
      <point x="436" y="149"/>
      <point x="461" y="129"/>
      <point x="461" y="98" type="curve"/>
      <point x="461" y="66"/>
      <point x="436" y="46"/>
    </contour>
  </outline>
</glyph>
<glyph name="ampersand" format="1">
  <advance width="517"/>
  <unicode hex="0026"/>
  <outline>
    <contour>
      <point x="179" y="-6" type="curve"/>
      <point x="292" y="-6"/>
      <point x="373" y="58"/>
      <point x="440" y="186" type="curve"/>
      <point x="453" y="189"/>
      <point x="472" y="192"/>
      <point x="487" y="194" type="curve"/>
      <point x="485" y="224" type="line"/>
      <point x="464" y="223"/>
      <point x="433" y="222"/>
      <point x="412" y="222" type="curve"/>
      <point x="387" y="222"/>
      <point x="357" y="222"/>
      <point x="334" y="223" type="curve"/>
      <point x="333" y="193" type="line"/>
      <point x="346" y="192"/>
      <point x="365" y="190"/>
      <point x="380" y="186" type="curve"/>
      <point x="341" y="89"/>
      <point x="284" y="45"/>
      <point x="203" y="45" type="curve"/>
      <point x="140" y="45"/>
      <point x="105" y="76"/>
      <point x="105" y="115" type="curve"/>
      <point x="105" y="151"/>
      <point x="127" y="181"/>
      <point x="188" y="209" type="curve"/>
      <point x="294" y="251"/>
      <point x="336" y="296"/>
      <point x="336" y="351" type="curve"/>
      <point x="336" y="407"/>
      <point x="294" y="442"/>
      <point x="230" y="442" type="curve"/>
      <point x="155" y="442"/>
      <point x="101" y="390"/>
      <point x="101" y="317" type="curve"/>
      <point x="101" y="274"/>
      <point x="122" y="231"/>
      <point x="193" y="137" type="curve"/>
      <point x="267" y="42"/>
      <point x="328" y="-6"/>
      <point x="416" y="-6" type="curve"/>
      <point x="464" y="-6"/>
      <point x="505" y="14"/>
      <point x="530" y="49" type="curve"/>
      <point x="513" y="71" type="line"/>
      <point x="490" y="55"/>
      <point x="468" y="48"/>
      <point x="444" y="48" type="curve"/>
      <point x="380" y="48"/>
      <point x="330" y="90"/>
      <point x="264" y="168" type="curve"/>
      <point x="196" y="258"/>
      <point x="173" y="300"/>
      <point x="173" y="345" type="curve"/>
      <point x="173" y="383"/>
      <point x="196" y="405"/>
      <point x="226" y="405" type="curve"/>
      <point x="251" y="405"/>
      <point x="271" y="388"/>
      <point x="271" y="355" type="curve"/>
      <point x="271" y="307"/>
      <point x="247" y="276"/>
      <point x="166" y="234" type="curve"/>
      <point x="66" y="204"/>
      <point x="23" y="156"/>
      <point x="23" y="101" type="curve"/>
      <point x="23" y="42"/>
      <point x="74" y="-6"/>
    </contour>
  </outline>
</glyph>
<glyph name="quotesingle" format="1">
  <advance width="182"/>
  <unicode hex="0027"/>
  <outline>
    <contour>
      <point x="91" y="461" type="curve"/>
      <point x="63" y="461"/>
      <point x="41" y="439"/>
      <point x="41" y="398" type="curve"/>
      <point x="41" y="364"/>
      <point x="66" y="282"/>
      <point x="77" y="236" type="curve"/>
      <point x="105" y="236" type="line"/>
      <point x="117" y="282"/>
      <point x="141" y="364"/>
      <point x="141" y="398" type="curve"/>
      <point x="141" y="439"/>
      <point x="119" y="461"/>
    </contour>
  </outline>
</glyph>
<glyph name="parenleft" format="1">
  <advance width="263"/>
  <unicode hex="0028"/>
  <outline>
    <contour>
      <point x="263" y="461" type="curve"/>
      <point x="238" y="482" type="line"/>
      <point x="125" y="401"/>
      <point x="67" y="293"/>
      <point x="67" y="165" type="curve"/>
      <point x="67" y="39"/>
      <point x="125" y="-69"/>
      <point x="238" y="-151" type="curve"/>
      <point x="263" y="-131" type="line"/>
      <point x="189" y="-63"/>
      <point x="149" y="42"/>
      <point x="149" y="165" type="curve"/>
      <point x="149" y="288"/>
      <point x="189" y="394"/>
    </contour>
  </outline>
</glyph>
<glyph name="parenright" format="1">
  <advance width="263"/>
  <unicode hex="0029"/>
  <outline>
    <contour>
      <point x="24" y="482" type="curve"/>
      <point x="0" y="461" type="line"/>
      <point x="74" y="394"/>
      <point x="113" y="288"/>
      <point x="113" y="165" type="curve"/>
      <point x="113" y="42"/>
      <point x="74" y="-63"/>
      <point x="0" y="-131" type="curve"/>
      <point x="24" y="-151" type="line"/>
      <point x="138" y="-69"/>
      <point x="195" y="39"/>
      <point x="195" y="165" type="curve"/>
      <point x="195" y="293"/>
      <point x="138" y="401"/>
    </contour>
  </outline>
</glyph>
<glyph name="asterisk" format="1">
  <advance width="330"/>
  <unicode hex="002A"/>
  <outline>
    <contour>
      <point x="299" y="362" type="curve"/>
      <point x="293" y="382"/>
      <point x="277" y="392"/>
      <point x="253" y="384" type="curve"/>
      <point x="231" y="378"/>
      <point x="204" y="357"/>
      <point x="181" y="343" type="curve"/>
      <point x="186" y="370"/>
      <point x="199" y="402"/>
      <point x="199" y="423" type="curve"/>
      <point x="199" y="449"/>
      <point x="184" y="461"/>
      <point x="165" y="461" type="curve"/>
      <point x="146" y="461"/>
      <point x="131" y="449"/>
      <point x="131" y="423" type="curve"/>
      <point x="131" y="402"/>
      <point x="144" y="370"/>
      <point x="149" y="343" type="curve"/>
      <point x="126" y="358"/>
      <point x="99" y="378"/>
      <point x="76" y="384" type="curve"/>
      <point x="53" y="392"/>
      <point x="37" y="382"/>
      <point x="31" y="362" type="curve"/>
      <point x="25" y="343"/>
      <point x="32" y="325"/>
      <point x="56" y="317" type="curve"/>
      <point x="77" y="311"/>
      <point x="110" y="312"/>
      <point x="137" y="310" type="curve"/>
      <point x="116" y="292"/>
      <point x="87" y="275"/>
      <point x="73" y="257" type="curve"/>
      <point x="59" y="236"/>
      <point x="63" y="217"/>
      <point x="79" y="206" type="curve"/>
      <point x="94" y="194"/>
      <point x="113" y="194"/>
      <point x="128" y="215" type="curve"/>
      <point x="143" y="234"/>
      <point x="153" y="269"/>
      <point x="165" y="294" type="curve"/>
      <point x="177" y="269"/>
      <point x="187" y="234"/>
      <point x="202" y="215" type="curve"/>
      <point x="217" y="194"/>
      <point x="236" y="194"/>
      <point x="251" y="206" type="curve"/>
      <point x="267" y="218"/>
      <point x="271" y="236"/>
      <point x="256" y="257" type="curve"/>
      <point x="243" y="275"/>
      <point x="214" y="292"/>
      <point x="193" y="310" type="curve"/>
      <point x="220" y="312"/>
      <point x="253" y="310"/>
      <point x="274" y="317" type="curve"/>
      <point x="298" y="325"/>
      <point x="305" y="343"/>
    </contour>
  </outline>
</glyph>
<glyph name="plus" format="1">
  <advance width="378"/>
  <unicode hex="002B"/>
  <outline>
    <contour>
      <point x="341" y="141" type="line"/>
      <point x="341" y="195" type="line"/>
      <point x="37" y="195" type="line"/>
      <point x="37" y="141" type="line"/>
    </contour>
    <contour>
      <point x="214" y="312" type="line"/>
      <point x="164" y="312" type="line"/>
      <point x="164" y="25" type="line"/>
      <point x="214" y="25" type="line"/>
    </contour>
  </outline>
</glyph>
<glyph name="comma" format="1">
  <advance width="182"/>
  <unicode hex="002C"/>
  <outline>
    <contour>
      <point x="20" y="-108" type="curve"/>
      <point x="32" y="-134" type="line"/>
      <point x="107" y="-102"/>
      <point x="150" y="-41"/>
      <point x="150" y="25" type="curve"/>
      <point x="150" y="83"/>
      <point x="119" y="105"/>
      <point x="90" y="105" type="curve"/>
      <point x="59" y="105"/>
      <point x="37" y="83"/>
      <point x="37" y="55" type="curve"/>
      <point x="37" y="7"/>
      <point x="86" y="10"/>
      <point x="86" y="-33" type="curve"/>
      <point x="86" y="-63"/>
      <point x="66" y="-88"/>
    </contour>
  </outline>
</glyph>
<glyph name="hyphen" format="1">
  <advance width="268"/>
  <unicode hex="002D"/>
  <outline>
    <contour>
      <point x="54" y="167" type="line"/>
      <point x="54" y="105" type="line"/>
      <point x="214" y="127" type="line"/>
      <point x="214" y="189" type="line"/>
    </contour>
  </outline>
</glyph>
<glyph name="period" format="1">
  <advance width="182"/>
  <unicode hex="002E"/>
  <outline>
    <contour>
      <point x="91" y="-7" type="curve"/>
      <point x="122" y="-7"/>
      <point x="146" y="17"/>
      <point x="146" y="49" type="curve"/>
      <point x="146" y="80"/>
      <point x="122" y="105"/>
      <point x="91" y="105" type="curve"/>
      <point x="60" y="105"/>
      <point x="36" y="80"/>
      <point x="36" y="49" type="curve"/>
      <point x="36" y="17"/>
      <point x="60" y="-7"/>
    </contour>
  </outline>
</glyph>
<glyph name="slash" format="1">
  <advance width="274"/>
  <unicode hex="002F"/>
  <outline>
    <contour>
      <point x="228" y="481" type="line"/>
      <point x="17" y="-119" type="line"/>
      <point x="74" y="-119" type="line"/>
      <point x="285" y="481" type="line"/>
    </contour>
  </outline>
</glyph>
<glyph name="zero" format="1">
  <advance width="422"/>
  <unicode hex="0030"/>
  <outline>
    <contour>
      <point x="215" y="-6" type="curve"/>
      <point x="309" y="-6"/>
      <point x="385" y="83"/>
      <point x="385" y="199" type="curve"/>
      <point x="385" y="317"/>
      <point x="316" y="394"/>
      <point x="216" y="394" type="curve"/>
      <point x="112" y="394"/>
      <point x="36" y="311"/>
      <point x="36" y="190" type="curve"/>
      <point x="36" y="73"/>
      <point x="111" y="-6"/>
    </contour>
    <contour>
      <point x="220" y="39" type="curve"/>
      <point x="164" y="39"/>
      <point x="124" y="106"/>
      <point x="124" y="208" type="curve"/>
      <point x="124" y="303"/>
      <point x="158" y="354"/>
      <point x="209" y="354" type="curve"/>
      <point x="263" y="354"/>
      <point x="300" y="287"/>
      <point x="300" y="182" type="curve"/>
      <point x="300" y="85"/>
      <point x="270" y="39"/>
    </contour>
  </outline>
</glyph>
<glyph name="one" format="1">
  <advance width="254"/>
  <unicode hex="0031"/>
  <outline>
    <contour>
      <point x="174" y="142" type="curve"/>
      <point x="174" y="243" type="line" smooth="yes"/>
      <point x="174" y="290"/>
      <point x="175" y="351"/>
      <point x="178" y="396" type="curve"/>
      <point x="28" y="336" type="line"/>
      <point x="30" y="299" type="line"/>
      <point x="50" y="304"/>
      <point x="82" y="310"/>
      <point x="93" y="312" type="curve"/>
      <point x="95" y="297"/>
      <point x="97" y="259"/>
      <point x="97" y="228" type="curve"/>
      <point x="97" y="142" type="line" smooth="yes"/>
      <point x="97" y="82"/>
      <point x="94" y="47"/>
      <point x="92" y="42" type="curve"/>
      <point x="84" y="37"/>
      <point x="57" y="33"/>
      <point x="35" y="31" type="curve"/>
      <point x="37" y="-3" type="line"/>
      <point x="65" y="-1"/>
      <point x="106" y="1"/>
      <point x="136" y="1" type="curve"/>
      <point x="166" y="1"/>
      <point x="206" y="-1"/>
      <point x="234" y="-3" type="curve"/>
      <point x="237" y="31" type="line"/>
      <point x="214" y="33"/>
      <point x="188" y="37"/>
      <point x="179" y="42" type="curve"/>
      <point x="177" y="47"/>
      <point x="174" y="82"/>
    </contour>
  </outline>
</glyph>
<glyph name="two" format="1">
  <advance width="360"/>
  <unicode hex="0032"/>
  <outline>
    <contour>
      <point x="38" y="31" type="curve"/>
      <point x="41" y="-2" type="line"/>
      <point x="58" y="-1"/>
      <point x="76" y="0"/>
      <point x="93" y="0" type="curve"/>
      <point x="233" y="0" type="line" smooth="yes"/>
      <point x="257" y="0"/>
      <point x="294" y="-1"/>
      <point x="318" y="-3" type="curve"/>
      <point x="337" y="113" type="line"/>
      <point x="301" y="117" type="line"/>
      <point x="294" y="104"/>
      <point x="289" y="94"/>
      <point x="279" y="68" type="curve"/>
      <point x="269" y="66"/>
      <point x="260" y="65"/>
      <point x="246" y="65" type="curve"/>
      <point x="113" y="65" type="line"/>
      <point x="112" y="57" type="line"/>
      <point x="231" y="126"/>
      <point x="295" y="203"/>
      <point x="295" y="275" type="curve"/>
      <point x="295" y="345"/>
      <point x="241" y="394"/>
      <point x="164" y="394" type="curve"/>
      <point x="100" y="394"/>
      <point x="48" y="360"/>
      <point x="23" y="301" type="curve"/>
      <point x="49" y="281" type="line"/>
      <point x="71" y="314"/>
      <point x="101" y="331"/>
      <point x="137" y="331" type="curve"/>
      <point x="184" y="331"/>
      <point x="213" y="302"/>
      <point x="213" y="259" type="curve"/>
      <point x="213" y="192"/>
      <point x="165" y="127"/>
    </contour>
  </outline>
</glyph>
<glyph name="three" format="1">
  <advance width="344"/>
  <unicode hex="0033"/>
  <outline>
    <contour>
      <point x="182" y="214" type="curve"/>
      <point x="173" y="202" type="line"/>
      <point x="239" y="219"/>
      <point x="285" y="253"/>
      <point x="285" y="307" type="curve"/>
      <point x="285" y="356"/>
      <point x="241" y="394"/>
      <point x="169" y="394" type="curve"/>
      <point x="111" y="394"/>
      <point x="61" y="363"/>
      <point x="36" y="314" type="curve"/>
      <point x="62" y="295" type="line"/>
      <point x="81" y="319"/>
      <point x="110" y="333"/>
      <point x="142" y="333" type="curve"/>
      <point x="180" y="333"/>
      <point x="205" y="315"/>
      <point x="205" y="284" type="curve"/>
      <point x="205" y="246"/>
      <point x="168" y="218"/>
      <point x="105" y="212" type="curve"/>
      <point x="109" y="174" type="line"/>
      <point x="120" y="176"/>
      <point x="132" y="177"/>
      <point x="145" y="177" type="curve"/>
      <point x="198" y="177"/>
      <point x="231" y="150"/>
      <point x="231" y="106" type="curve"/>
      <point x="231" y="56"/>
      <point x="187" y="25"/>
      <point x="131" y="35" type="curve"/>
      <point x="158" y="25" type="line"/>
      <point x="111" y="64" type="line" smooth="yes"/>
      <point x="94" y="79"/>
      <point x="84" y="84"/>
      <point x="68" y="84" type="curve"/>
      <point x="49" y="84"/>
      <point x="36" y="70"/>
      <point x="36" y="51" type="curve"/>
      <point x="36" y="18"/>
      <point x="80" y="-6"/>
      <point x="141" y="-6" type="curve"/>
      <point x="242" y="-6"/>
      <point x="312" y="54"/>
      <point x="312" y="117" type="curve"/>
      <point x="312" y="175"/>
      <point x="263" y="212"/>
    </contour>
  </outline>
</glyph>
<glyph name="four" format="1">
  <advance width="377"/>
  <unicode hex="0034"/>
  <outline>
    <contour>
      <point x="287" y="101" type="curve"/>
      <point x="286" y="283" type="line"/>
      <point x="286" y="321"/>
      <point x="287" y="359"/>
      <point x="289" y="391" type="curve"/>
      <point x="247" y="391" type="line"/>
      <point x="24" y="130" type="line"/>
      <point x="30" y="101" type="line"/>
      <point x="348" y="101" type="line"/>
      <point x="348" y="154" type="line"/>
      <point x="119" y="154" type="line" smooth="yes"/>
      <point x="104" y="154"/>
      <point x="87" y="156"/>
      <point x="72" y="157" type="curve"/>
      <point x="86" y="140" type="line"/>
      <point x="222" y="300" type="line"/>
      <point x="210" y="308" type="line"/>
      <point x="210" y="101" type="line"/>
      <point x="210" y="61"/>
      <point x="211" y="46"/>
      <point x="210" y="42" type="curve"/>
      <point x="200" y="37"/>
      <point x="176" y="33"/>
      <point x="153" y="31" type="curve"/>
      <point x="156" y="-3" type="line"/>
      <point x="184" y="-1"/>
      <point x="218" y="1"/>
      <point x="248" y="1" type="curve"/>
      <point x="278" y="1"/>
      <point x="309" y="-1"/>
      <point x="331" y="-3" type="curve"/>
      <point x="332" y="31" type="line"/>
      <point x="315" y="33"/>
      <point x="296" y="37"/>
      <point x="289" y="42" type="curve"/>
      <point x="288" y="46"/>
      <point x="287" y="61"/>
    </contour>
  </outline>
</glyph>
<glyph name="five" format="1">
  <advance width="344"/>
  <unicode hex="0035"/>
  <outline>
    <contour>
      <point x="137" y="-6" type="curve"/>
      <point x="238" y="-6"/>
      <point x="308" y="54"/>
      <point x="308" y="120" type="curve"/>
      <point x="308" y="194"/>
      <point x="242" y="236"/>
      <point x="100" y="247" type="curve"/>
      <point x="118" y="222" type="line"/>
      <point x="131" y="319" type="line"/>
      <point x="282" y="319" type="line"/>
      <point x="288" y="388" type="line"/>
      <point x="97" y="388" type="line"/>
      <point x="72" y="179" type="line"/>
      <point x="189" y="169"/>
      <point x="228" y="147"/>
      <point x="228" y="100" type="curve"/>
      <point x="228" y="56"/>
      <point x="184" y="25"/>
      <point x="127" y="35" type="curve"/>
      <point x="155" y="25" type="line"/>
      <point x="107" y="64" type="line" smooth="yes"/>
      <point x="89" y="79"/>
      <point x="80" y="84"/>
      <point x="65" y="84" type="curve"/>
      <point x="46" y="84"/>
      <point x="33" y="70"/>
      <point x="33" y="51" type="curve"/>
      <point x="33" y="18"/>
      <point x="77" y="-6"/>
    </contour>
  </outline>
</glyph>
<glyph name="six" format="1">
  <advance width="379"/>
  <unicode hex="0036"/>
  <outline>
    <contour>
      <point x="112" y="171" type="curve"/>
      <point x="113" y="138" type="line"/>
      <point x="129" y="160"/>
      <point x="158" y="180"/>
      <point x="191" y="180" type="curve"/>
      <point x="233" y="180"/>
      <point x="261" y="150"/>
      <point x="261" y="102" type="curve"/>
      <point x="261" y="63"/>
      <point x="234" y="33"/>
      <point x="200" y="33" type="curve"/>
      <point x="156" y="33"/>
      <point x="126" y="80"/>
      <point x="126" y="142" type="curve"/>
      <point x="126" y="265"/>
      <point x="187" y="333"/>
      <point x="315" y="362" type="curve"/>
      <point x="303" y="400" type="line"/>
      <point x="142" y="383"/>
      <point x="43" y="272"/>
      <point x="43" y="149" type="curve"/>
      <point x="43" y="61"/>
      <point x="104" y="-6"/>
      <point x="194" y="-6" type="curve"/>
      <point x="276" y="-6"/>
      <point x="340" y="52"/>
      <point x="340" y="126" type="curve"/>
      <point x="340" y="190"/>
      <point x="288" y="239"/>
      <point x="222" y="239" type="curve"/>
      <point x="181" y="239"/>
      <point x="140" y="210"/>
    </contour>
  </outline>
</glyph>
<glyph name="seven" format="1">
  <advance width="339"/>
  <unicode hex="0037"/>
  <outline>
    <contour>
      <point x="99" y="0" type="line"/>
      <point x="166" y="0" type="line"/>
      <point x="321" y="358" type="line"/>
      <point x="318" y="389" type="line"/>
      <point x="300" y="389"/>
      <point x="282" y="388"/>
      <point x="265" y="388" type="curve"/>
      <point x="125" y="388" type="line" smooth="yes"/>
      <point x="100" y="388"/>
      <point x="61" y="389"/>
      <point x="40" y="390" type="curve"/>
      <point x="25" y="272" type="line"/>
      <point x="61" y="269" type="line"/>
      <point x="67" y="282"/>
      <point x="72" y="301"/>
      <point x="78" y="316" type="curve"/>
      <point x="87" y="317"/>
      <point x="100" y="318"/>
      <point x="110" y="318" type="curve"/>
      <point x="273" y="318" type="line"/>
      <point x="273" y="344" type="line"/>
      <point x="99" y="24" type="line"/>
    </contour>
  </outline>
</glyph>
<glyph name="eight" format="1">
  <advance width="403"/>
  <unicode hex="0038"/>
  <outline>
    <contour>
      <point x="197" y="-6" type="curve"/>
      <point x="294" y="-6"/>
      <point x="360" y="40"/>
      <point x="360" y="110" type="curve"/>
      <point x="360" y="235"/>
      <point x="138" y="210"/>
      <point x="138" y="305" type="curve"/>
      <point x="138" y="336"/>
      <point x="164" y="355"/>
      <point x="201" y="355" type="curve"/>
      <point x="244" y="355"/>
      <point x="270" y="329"/>
      <point x="270" y="287" type="curve"/>
      <point x="270" y="255"/>
      <point x="260" y="232"/>
      <point x="234" y="202" type="curve"/>
      <point x="245" y="194" type="line"/>
      <point x="309" y="209"/>
      <point x="344" y="244"/>
      <point x="344" y="293" type="curve"/>
      <point x="344" y="352"/>
      <point x="292" y="394"/>
      <point x="208" y="394" type="curve"/>
      <point x="121" y="394"/>
      <point x="60" y="348"/>
      <point x="60" y="284" type="curve"/>
      <point x="60" y="149"/>
      <point x="281" y="176"/>
      <point x="281" y="86" type="curve"/>
      <point x="281" y="57"/>
      <point x="252" y="37"/>
      <point x="207" y="37" type="curve"/>
      <point x="155" y="37"/>
      <point x="122" y="63"/>
      <point x="122" y="104" type="curve"/>
      <point x="122" y="131"/>
      <point x="137" y="155"/>
      <point x="174" y="183" type="curve"/>
      <point x="159" y="198" type="line"/>
      <point x="85" y="183"/>
      <point x="43" y="148"/>
      <point x="43" y="98" type="curve"/>
      <point x="43" y="37"/>
      <point x="104" y="-6"/>
    </contour>
  </outline>
</glyph>
<glyph name="colon" format="1">
  <advance width="182"/>
  <unicode hex="003A"/>
  <outline>
    <contour>
      <point x="91" y="-7" type="curve"/>
      <point x="122" y="-7"/>
      <point x="146" y="17"/>
      <point x="146" y="49" type="curve"/>
      <point x="146" y="80"/>
      <point x="122" y="105"/>
      <point x="91" y="105" type="curve"/>
      <point x="60" y="105"/>
      <point x="36" y="80"/>
      <point x="36" y="49" type="curve"/>
      <point x="36" y="17"/>
      <point x="60" y="-7"/>
    </contour>
    <contour>
      <point x="91" y="184" type="curve"/>
      <point x="122" y="184"/>
      <point x="146" y="208"/>
      <point x="146" y="239" type="curve"/>
      <point x="146" y="271"/>
      <point x="122" y="296"/>
      <point x="91" y="296" type="curve"/>
      <point x="60" y="296"/>
      <point x="36" y="271"/>
      <point x="36" y="239" type="curve"/>
      <point x="36" y="208"/>
      <point x="60" y="184"/>
    </contour>
  </outline>
</glyph>
<glyph name="semicolon" format="1">
  <advance width="182"/>
  <unicode hex="003B"/>
  <outline>
    <contour>
      <point x="20" y="-108" type="curve"/>
      <point x="32" y="-134" type="line"/>
      <point x="107" y="-102"/>
      <point x="150" y="-41"/>
      <point x="150" y="25" type="curve"/>
      <point x="150" y="83"/>
      <point x="119" y="105"/>
      <point x="90" y="105" type="curve"/>
      <point x="59" y="105"/>
      <point x="37" y="83"/>
      <point x="37" y="55" type="curve"/>
      <point x="37" y="7"/>
      <point x="86" y="10"/>
      <point x="86" y="-33" type="curve"/>
      <point x="86" y="-63"/>
      <point x="66" y="-88"/>
    </contour>
    <contour>
      <point x="91" y="184" type="curve"/>
      <point x="122" y="184"/>
      <point x="146" y="208"/>
      <point x="146" y="239" type="curve"/>
      <point x="146" y="271"/>
      <point x="122" y="296"/>
      <point x="91" y="296" type="curve"/>
      <point x="60" y="296"/>
      <point x="36" y="271"/>
      <point x="36" y="239" type="curve"/>
      <point x="36" y="208"/>
      <point x="60" y="184"/>
    </contour>
  </outline>
</glyph>
<glyph name="less" format="1">
  <advance width="378"/>
  <unicode hex="003C"/>
  <outline>
    <contour>
      <point x="37" y="198" type="line"/>
      <point x="37" y="140" type="line"/>
      <point x="341" y="19" type="line"/>
      <point x="341" y="78" type="line"/>
      <point x="59" y="187" type="line"/>
      <point x="59" y="149" type="line"/>
      <point x="341" y="259" type="line"/>
      <point x="341" y="318" type="line"/>
    </contour>
  </outline>
</glyph>
<glyph name="equal" format="1">
  <advance width="378"/>
  <unicode hex="003D"/>
  <outline>
    <contour>
      <point x="341" y="200" type="line"/>
      <point x="341" y="254" type="line"/>
      <point x="37" y="254" type="line"/>
      <point x="37" y="200" type="line"/>
    </contour>
    <contour>
      <point x="341" y="82" type="line"/>
      <point x="341" y="136" type="line"/>
      <point x="37" y="136" type="line"/>
      <point x="37" y="82" type="line"/>
    </contour>
  </outline>
</glyph>
<glyph name="greater" format="1">
  <advance width="378"/>
  <unicode hex="003E"/>
  <outline>
    <contour>
      <point x="37" y="19" type="line"/>
      <point x="341" y="140" type="line"/>
      <point x="341" y="198" type="line"/>
      <point x="37" y="318" type="line"/>
      <point x="37" y="259" type="line"/>
      <point x="318" y="149" type="line"/>
      <point x="318" y="187" type="line"/>
      <point x="37" y="78" type="line"/>
    </contour>
  </outline>
</glyph>
<glyph name="question" format="1">
  <advance width="258"/>
  <unicode hex="003F"/>
  <outline>
    <contour>
      <point x="75" y="142" type="curve"/>
      <point x="110" y="142" type="line"/>
      <point x="108" y="155"/>
      <point x="107" y="162"/>
      <point x="107" y="168" type="curve"/>
      <point x="107" y="226"/>
      <point x="229" y="224"/>
      <point x="229" y="318" type="curve"/>
      <point x="229" y="398"/>
      <point x="157" y="461"/>
      <point x="65" y="461" type="curve"/>
      <point x="27" y="461"/>
      <point x="7" y="444"/>
      <point x="7" y="421" type="curve"/>
      <point x="7" y="398"/>
      <point x="25" y="380"/>
      <point x="56" y="380" type="curve"/>
      <point x="78" y="380"/>
      <point x="99" y="391"/>
      <point x="121" y="391" type="curve"/>
      <point x="153" y="391"/>
      <point x="174" y="374"/>
      <point x="174" y="352" type="curve"/>
      <point x="174" y="296"/>
      <point x="57" y="275"/>
      <point x="57" y="204" type="curve"/>
      <point x="57" y="184"/>
      <point x="62" y="166"/>
    </contour>
    <contour>
      <point x="93" y="-7" type="curve"/>
      <point x="124" y="-7"/>
      <point x="148" y="17"/>
      <point x="148" y="49" type="curve"/>
      <point x="148" y="80"/>
      <point x="124" y="105"/>
      <point x="93" y="105" type="curve"/>
      <point x="62" y="105"/>
      <point x="38" y="80"/>
      <point x="38" y="49" type="curve"/>
      <point x="38" y="18"/>
      <point x="62" y="-7"/>
    </contour>
  </outline>
</glyph>
<glyph name="A" format="1">
  <advance width="418"/>
  <unicode hex="0041"/>
  <outline>
    <contour>
      <point x="-1" y="31" type="curve"/>
      <point x="1" y="-1" type="line"/>
      <point x="21" y="0"/>
      <point x="46" y="0"/>
      <point x="64" y="0" type="curve"/>
      <point x="82" y="0"/>
      <point x="107" y="0"/>
      <point x="128" y="-1" type="curve"/>
      <point x="129" y="31" type="line"/>
      <point x="112" y="34"/>
      <point x="93" y="37"/>
      <point x="85" y="39" type="curve"/>
      <point x="120" y="133" type="line"/>
      <point x="128" y="153" type="line"/>
      <point x="195" y="312" type="line"/>
      <point x="175" y="314" type="line"/>
      <point x="248" y="152" type="line"/>
      <point x="256" y="129" type="line"/>
      <point x="296" y="38" type="line"/>
      <point x="286" y="36"/>
      <point x="269" y="34"/>
      <point x="252" y="31" type="curve"/>
      <point x="254" y="-1" type="line"/>
      <point x="274" y="0"/>
      <point x="312" y="1"/>
      <point x="337" y="1" type="curve"/>
      <point x="360" y="1"/>
      <point x="399" y="0"/>
      <point x="419" y="-1" type="curve"/>
      <point x="421" y="31" type="line"/>
      <point x="406" y="34"/>
      <point x="394" y="36"/>
      <point x="385" y="38" type="curve"/>
      <point x="227" y="400" type="line"/>
      <point x="178" y="370" type="line"/>
      <point x="34" y="39" type="line"/>
      <point x="27" y="36"/>
      <point x="16" y="34"/>
    </contour>
    <contour>
      <point x="106" y="157" type="curve"/>
      <point x="106" y="115" type="line"/>
      <point x="124" y="115"/>
      <point x="150" y="116"/>
      <point x="190" y="116" type="curve"/>
      <point x="230" y="116"/>
      <point x="256" y="115"/>
      <point x="274" y="115" type="curve"/>
      <point x="274" y="157" type="line"/>
      <point x="257" y="157"/>
      <point x="230" y="155"/>
      <point x="190" y="155" type="curve"/>
      <point x="150" y="155"/>
      <point x="123" y="157"/>
    </contour>
    <contour>
      <point x="190" y="0" type="move" name="bottom"/>
    </contour>
    <contour>
      <point x="389" y="0" type="move" name="ogonek"/>
    </contour>
    <contour>
      <point x="203" y="388" type="move" name="top"/>
    </contour>
  </outline>
</glyph>
<glyph name="B" format="1">
  <advance width="411"/>
  <unicode hex="0042"/>
  <outline>
    <contour>
      <point x="71" y="42" type="curve"/>
      <point x="65" y="37"/>
      <point x="44" y="33"/>
      <point x="27" y="31" type="curve"/>
      <point x="29" y="-3" type="line"/>
      <point x="48" y="-1"/>
      <point x="97" y="1"/>
      <point x="131" y="1" type="curve"/>
      <point x="152" y="1"/>
      <point x="175" y="-1"/>
      <point x="198" y="-1" type="curve"/>
      <point x="315" y="-1"/>
      <point x="377" y="45"/>
      <point x="377" y="113" type="curve"/>
      <point x="377" y="168"/>
      <point x="332" y="207"/>
      <point x="239" y="211" type="curve"/>
      <point x="241" y="206" type="line"/>
      <point x="316" y="211"/>
      <point x="356" y="252"/>
      <point x="356" y="295" type="curve"/>
      <point x="356" y="356"/>
      <point x="309" y="390"/>
      <point x="214" y="390" type="curve"/>
      <point x="170" y="390"/>
      <point x="135" y="388"/>
      <point x="112" y="388" type="curve"/>
      <point x="86" y="388"/>
      <point x="59" y="387"/>
      <point x="29" y="389" type="curve"/>
      <point x="27" y="355" type="line"/>
      <point x="44" y="355"/>
      <point x="65" y="351"/>
      <point x="71" y="346" type="curve"/>
      <point x="74" y="342"/>
      <point x="76" y="306"/>
      <point x="76" y="246" type="curve"/>
      <point x="76" y="142" type="line" smooth="yes"/>
      <point x="76" y="82"/>
      <point x="73" y="47"/>
    </contour>
    <contour>
      <point x="153" y="117" type="curve"/>
      <point x="153" y="271" type="line" smooth="yes"/>
      <point x="153" y="322"/>
      <point x="154" y="347"/>
      <point x="154" y="352" type="curve"/>
      <point x="161" y="353"/>
      <point x="178" y="355"/>
      <point x="195" y="355" type="curve"/>
      <point x="240" y="355"/>
      <point x="273" y="333"/>
      <point x="273" y="287" type="curve"/>
      <point x="273" y="244"/>
      <point x="245" y="218"/>
      <point x="189" y="218" type="curve"/>
      <point x="175" y="218"/>
      <point x="160" y="218"/>
      <point x="145" y="219" type="curve"/>
      <point x="145" y="178" type="line"/>
      <point x="160" y="179"/>
      <point x="174" y="179"/>
      <point x="192" y="179" type="curve"/>
      <point x="260" y="179"/>
      <point x="294" y="154"/>
      <point x="294" y="105" type="curve"/>
      <point x="294" y="61"/>
      <point x="262" y="37"/>
      <point x="202" y="37" type="curve"/>
      <point x="183" y="37"/>
      <point x="162" y="40"/>
      <point x="155" y="42" type="curve"/>
      <point x="154" y="48"/>
      <point x="153" y="72"/>
    </contour>
    <contour>
      <point x="205" y="0" type="move" name="bottom"/>
    </contour>
    <contour>
      <point x="205" y="388" type="move" name="top"/>
    </contour>
  </outline>
</glyph>
<glyph name="C" format="1">
  <advance width="432"/>
  <unicode hex="0043"/>
  <outline>
    <contour>
      <point x="261" y="-6" type="curve"/>
      <point x="312" y="-6"/>
      <point x="362" y="10"/>
      <point x="392" y="27" type="curve"/>
      <point x="400" y="56"/>
      <point x="407" y="84"/>
      <point x="412" y="114" type="curve"/>
      <point x="373" y="118" type="line"/>
      <point x="363" y="100"/>
      <point x="356" y="79"/>
      <point x="345" y="58" type="curve"/>
      <point x="327" y="44"/>
      <point x="298" y="37"/>
      <point x="273" y="37" type="curve"/>
      <point x="193" y="37"/>
      <point x="129" y="99"/>
      <point x="129" y="203" type="curve"/>
      <point x="129" y="292"/>
      <point x="174" y="353"/>
      <point x="267" y="353" type="curve"/>
      <point x="291" y="353"/>
      <point x="318" y="348"/>
      <point x="336" y="339" type="curve"/>
      <point x="345" y="316"/>
      <point x="352" y="293"/>
      <point x="359" y="271" type="curve"/>
      <point x="396" y="273" type="line"/>
      <point x="391" y="372" type="line"/>
      <point x="360" y="385"/>
      <point x="313" y="394"/>
      <point x="273" y="394" type="curve"/>
      <point x="129" y="394"/>
      <point x="35" y="312"/>
      <point x="35" y="188" type="curve"/>
      <point x="35" y="64"/>
      <point x="131" y="-6"/>
    </contour>
    <contour>
      <point x="246" y="0" type="move" name="bottom"/>
    </contour>
    <contour>
      <point x="246" y="388" type="move" name="top"/>
    </contour>
  </outline>
</glyph>
<glyph name="D" format="1">
  <advance width="484"/>
  <unicode hex="0044"/>
  <outline>
    <contour>
      <point x="29" y="389" type="curve"/>
      <point x="27" y="355" type="line"/>
      <point x="44" y="354"/>
      <point x="65" y="351"/>
      <point x="71" y="346" type="curve"/>
      <point x="74" y="342"/>
      <point x="76" y="306"/>
      <point x="76" y="246" type="curve"/>
      <point x="76" y="142" type="line" smooth="yes"/>
      <point x="76" y="82"/>
      <point x="73" y="47"/>
      <point x="71" y="42" type="curve"/>
      <point x="65" y="37"/>
      <point x="44" y="33"/>
      <point x="27" y="31" type="curve"/>
      <point x="29" y="-3" type="line"/>
      <point x="48" y="-1"/>
      <point x="95" y="1"/>
      <point x="136" y="1" type="curve"/>
      <point x="164" y="1"/>
      <point x="194" y="-1"/>
      <point x="220" y="-1" type="curve"/>
      <point x="342" y="-1"/>
      <point x="449" y="72"/>
      <point x="449" y="199" type="curve"/>
      <point x="449" y="317"/>
      <point x="364" y="389"/>
      <point x="209" y="389" type="curve"/>
      <point x="180" y="389"/>
      <point x="140" y="388"/>
      <point x="110" y="388" type="curve"/>
      <point x="85" y="388"/>
      <point x="50" y="387"/>
    </contour>
    <contour>
      <point x="155" y="346" type="curve"/>
      <point x="169" y="348"/>
      <point x="188" y="350"/>
      <point x="206" y="350" type="curve"/>
      <point x="298" y="350"/>
      <point x="360" y="296"/>
      <point x="360" y="174" type="curve"/>
      <point x="360" y="82"/>
      <point x="312" y="42"/>
      <point x="225" y="42" type="curve"/>
      <point x="200" y="42"/>
      <point x="177" y="44"/>
      <point x="157" y="48" type="curve"/>
      <point x="156" y="56"/>
      <point x="153" y="88"/>
      <point x="153" y="142" type="curve"/>
      <point x="153" y="246" type="line" smooth="yes"/>
      <point x="153" y="306"/>
      <point x="155" y="336"/>
    </contour>
    <contour>
      <point x="245" y="0" type="move" name="bottom"/>
    </contour>
    <contour>
      <point x="245" y="194" type="move" name="center"/>
    </contour>
    <contour>
      <point x="144" y="194" type="move" name="stroke"/>
    </contour>
    <contour>
      <point x="245" y="388" type="move" name="top"/>
    </contour>
  </outline>
</glyph>
<glyph name="E" format="1">
  <advance width="400"/>
  <unicode hex="0045"/>
  <outline>
    <contour>
      <point x="352" y="-4" type="curve"/>
      <point x="382" y="101" type="line"/>
      <point x="347" y="108" type="line"/>
      <point x="332" y="81"/>
      <point x="320" y="60"/>
      <point x="309" y="43" type="curve"/>
      <point x="299" y="40"/>
      <point x="290" y="40"/>
      <point x="259" y="40" type="curve"/>
      <point x="207" y="40" type="line" smooth="yes"/>
      <point x="183" y="40"/>
      <point x="169" y="41"/>
      <point x="154" y="43" type="curve"/>
      <point x="153" y="53"/>
      <point x="153" y="80"/>
      <point x="153" y="121" type="curve"/>
      <point x="153" y="269" type="line" smooth="yes"/>
      <point x="153" y="310"/>
      <point x="153" y="339"/>
      <point x="154" y="348" type="curve"/>
      <point x="166" y="350"/>
      <point x="182" y="351"/>
      <point x="198" y="351" type="curve"/>
      <point x="264" y="351" type="line" smooth="yes"/>
      <point x="275" y="351"/>
      <point x="284" y="350"/>
      <point x="294" y="349" type="curve"/>
      <point x="303" y="331"/>
      <point x="310" y="315"/>
      <point x="319" y="291" type="curve"/>
      <point x="355" y="296" type="line"/>
      <point x="339" y="391" type="line"/>
      <point x="315" y="390"/>
      <point x="276" y="388"/>
      <point x="250" y="388" type="curve"/>
      <point x="115" y="388" type="line" smooth="yes"/>
      <point x="89" y="388"/>
      <point x="50" y="389"/>
      <point x="29" y="390" type="curve"/>
      <point x="27" y="356" type="line"/>
      <point x="45" y="356"/>
      <point x="65" y="351"/>
      <point x="71" y="346" type="curve"/>
      <point x="74" y="342"/>
      <point x="76" y="306"/>
      <point x="76" y="246" type="curve"/>
      <point x="76" y="142" type="line" smooth="yes"/>
      <point x="76" y="82"/>
      <point x="74" y="47"/>
      <point x="71" y="42" type="curve"/>
      <point x="65" y="37"/>
      <point x="45" y="33"/>
      <point x="27" y="31" type="curve"/>
      <point x="29" y="-3" type="line"/>
      <point x="50" y="-1"/>
      <point x="89" y="0"/>
      <point x="115" y="0" type="curve"/>
      <point x="271" y="0" type="line" smooth="yes"/>
      <point x="297" y="0"/>
      <point x="330" y="-2"/>
    </contour>
    <contour>
      <point x="269" y="133" type="curve"/>
      <point x="304" y="133" type="line"/>
      <point x="303" y="154"/>
      <point x="302" y="179"/>
      <point x="302" y="199" type="curve"/>
      <point x="302" y="220"/>
      <point x="303" y="243"/>
      <point x="304" y="265" type="curve"/>
      <point x="269" y="265" type="line"/>
      <point x="267" y="251"/>
      <point x="264" y="228"/>
      <point x="261" y="221" type="curve"/>
      <point x="255" y="221"/>
      <point x="242" y="220"/>
      <point x="225" y="220" type="curve"/>
      <point x="180" y="220" type="line" smooth="yes"/>
      <point x="166" y="220"/>
      <point x="151" y="221"/>
      <point x="140" y="221" type="curve"/>
      <point x="140" y="177" type="line"/>
      <point x="151" y="178"/>
      <point x="166" y="179"/>
      <point x="180" y="179" type="curve"/>
      <point x="225" y="179" type="line" smooth="yes"/>
      <point x="242" y="179"/>
      <point x="255" y="178"/>
      <point x="261" y="178" type="curve"/>
      <point x="264" y="171"/>
      <point x="267" y="146"/>
    </contour>
    <contour>
      <point x="201" y="0" type="move" name="bottom"/>
    </contour>
    <contour>
      <point x="354" y="0" type="move" name="ogonek"/>
    </contour>
    <contour>
      <point x="201" y="388" type="move" name="top"/>
    </contour>
    <contour>
      <point x="19" y="388" type="move" name="topleft"/>
    </contour>
  </outline>
</glyph>
<glyph name="F" format="1">
  <advance width="366"/>
  <unicode hex="0046"/>
  <outline>
    <contour>
      <point x="31" y="31" type="curve"/>
      <point x="33" y="-3" type="line"/>
      <point x="52" y="-1"/>
      <point x="95" y="0"/>
      <point x="122" y="0" type="curve"/>
      <point x="148" y="0"/>
      <point x="192" y="-1"/>
      <point x="213" y="-3" type="curve"/>
      <point x="215" y="32" type="line"/>
      <point x="197" y="34"/>
      <point x="172" y="37"/>
      <point x="158" y="42" type="curve"/>
      <point x="155" y="47"/>
      <point x="153" y="82"/>
      <point x="153" y="116" type="curve"/>
      <point x="153" y="269" type="line" smooth="yes"/>
      <point x="153" y="310"/>
      <point x="153" y="338"/>
      <point x="154" y="347" type="curve"/>
      <point x="164" y="350"/>
      <point x="182" y="351"/>
      <point x="197" y="351" type="curve"/>
      <point x="261" y="351" type="line" smooth="yes"/>
      <point x="271" y="351"/>
      <point x="280" y="350"/>
      <point x="290" y="349" type="curve"/>
      <point x="299" y="331"/>
      <point x="307" y="315"/>
      <point x="316" y="291" type="curve"/>
      <point x="352" y="296" type="line"/>
      <point x="335" y="391" type="line"/>
      <point x="312" y="390"/>
      <point x="272" y="388"/>
      <point x="247" y="388" type="curve"/>
      <point x="116" y="388" type="line" smooth="yes"/>
      <point x="90" y="388"/>
      <point x="51" y="389"/>
      <point x="30" y="390" type="curve"/>
      <point x="28" y="356" type="line"/>
      <point x="46" y="356"/>
      <point x="66" y="351"/>
      <point x="72" y="346" type="curve"/>
      <point x="75" y="342"/>
      <point x="77" y="306"/>
      <point x="77" y="246" type="curve"/>
      <point x="77" y="142" type="line" smooth="yes"/>
      <point x="77" y="82"/>
      <point x="75" y="47"/>
      <point x="72" y="42" type="curve"/>
      <point x="66" y="37"/>
      <point x="46" y="33"/>
    </contour>
    <contour>
      <point x="266" y="127" type="curve"/>
      <point x="300" y="127" type="line"/>
      <point x="299" y="149"/>
      <point x="298" y="174"/>
      <point x="298" y="196" type="curve"/>
      <point x="298" y="217"/>
      <point x="299" y="240"/>
      <point x="300" y="262" type="curve"/>
      <point x="266" y="262" type="line"/>
      <point x="263" y="248"/>
      <point x="260" y="225"/>
      <point x="257" y="218" type="curve"/>
      <point x="251" y="218"/>
      <point x="238" y="216"/>
      <point x="220" y="216" type="curve"/>
      <point x="171" y="216" type="line" smooth="yes"/>
      <point x="157" y="216"/>
      <point x="143" y="218"/>
      <point x="132" y="218" type="curve"/>
      <point x="132" y="174" type="line"/>
      <point x="143" y="175"/>
      <point x="157" y="176"/>
      <point x="171" y="176" type="curve"/>
      <point x="220" y="176" type="line" smooth="yes"/>
      <point x="238" y="176"/>
      <point x="251" y="175"/>
      <point x="257" y="174" type="curve"/>
      <point x="260" y="167"/>
      <point x="263" y="141"/>
    </contour>
    <contour>
      <point x="115" y="0" type="move" name="bottom"/>
    </contour>
    <contour>
      <point x="183" y="388" type="move" name="top"/>
    </contour>
  </outline>
</glyph>
<glyph name="G" format="1">
  <advance width="461"/>
  <unicode hex="0047"/>
  <outline>
    <contour>
      <point x="262" y="-6" type="curve"/>
      <point x="310" y="-6"/>
      <point x="365" y="6"/>
      <point x="404" y="30" type="curve"/>
      <point x="402" y="59"/>
      <point x="402" y="77"/>
      <point x="402" y="93" type="curve"/>
      <point x="402" y="114"/>
      <point x="401" y="136"/>
      <point x="403" y="141" type="curve"/>
      <point x="408" y="146"/>
      <point x="423" y="150"/>
      <point x="435" y="152" type="curve"/>
      <point x="433" y="184" type="line"/>
      <point x="419" y="183"/>
      <point x="388" y="182"/>
      <point x="359" y="182" type="curve"/>
      <point x="330" y="182"/>
      <point x="298" y="182"/>
      <point x="276" y="183" type="curve"/>
      <point x="275" y="151" type="line"/>
      <point x="293" y="149"/>
      <point x="313" y="145"/>
      <point x="321" y="141" type="curve"/>
      <point x="323" y="136"/>
      <point x="326" y="114"/>
      <point x="326" y="85" type="curve"/>
      <point x="326" y="15" type="line"/>
      <point x="341" y="51" type="line"/>
      <point x="321" y="41"/>
      <point x="294" y="37"/>
      <point x="275" y="37" type="curve"/>
      <point x="192" y="37"/>
      <point x="127" y="99"/>
      <point x="127" y="203" type="curve"/>
      <point x="127" y="292"/>
      <point x="173" y="353"/>
      <point x="268" y="353" type="curve"/>
      <point x="289" y="353"/>
      <point x="317" y="349"/>
      <point x="337" y="339" type="curve"/>
      <point x="345" y="319"/>
      <point x="351" y="299"/>
      <point x="358" y="278" type="curve"/>
      <point x="396" y="280" type="line"/>
      <point x="391" y="372" type="line"/>
      <point x="361" y="385"/>
      <point x="314" y="394"/>
      <point x="275" y="394" type="curve"/>
      <point x="129" y="394"/>
      <point x="34" y="312"/>
      <point x="34" y="187" type="curve"/>
      <point x="34" y="64"/>
      <point x="131" y="-6"/>
    </contour>
    <contour>
      <point x="247" y="0" type="move" name="bottom"/>
    </contour>
    <contour>
      <point x="247" y="388" type="move" name="top"/>
    </contour>
  </outline>
</glyph>
<glyph name="H" format="1">
  <advance width="481"/>
  <unicode hex="0048"/>
  <outline>
    <contour>
      <point x="280" y="31" type="curve"/>
      <point x="282" y="-3" type="line"/>
      <point x="303" y="-1"/>
      <point x="336" y="1"/>
      <point x="366" y="1" type="curve"/>
      <point x="397" y="1"/>
      <point x="430" y="-1"/>
      <point x="452" y="-3" type="curve"/>
      <point x="454" y="31" type="line"/>
      <point x="437" y="33"/>
      <point x="416" y="37"/>
      <point x="410" y="42" type="curve"/>
      <point x="407" y="47"/>
      <point x="405" y="82"/>
      <point x="405" y="142" type="curve"/>
      <point x="405" y="246" type="line" smooth="yes"/>
      <point x="405" y="306"/>
      <point x="407" y="342"/>
      <point x="410" y="346" type="curve"/>
      <point x="416" y="351"/>
      <point x="437" y="355"/>
      <point x="454" y="356" type="curve"/>
      <point x="452" y="390" type="line"/>
      <point x="430" y="389"/>
      <point x="397" y="387"/>
      <point x="366" y="387" type="curve"/>
      <point x="336" y="387"/>
      <point x="303" y="389"/>
      <point x="282" y="390" type="curve"/>
      <point x="280" y="356" type="line"/>
      <point x="297" y="355"/>
      <point x="316" y="351"/>
      <point x="323" y="346" type="curve"/>
      <point x="325" y="342"/>
      <point x="328" y="306"/>
      <point x="328" y="246" type="curve"/>
      <point x="328" y="142" type="line" smooth="yes"/>
      <point x="328" y="82"/>
      <point x="325" y="47"/>
      <point x="323" y="42" type="curve"/>
      <point x="316" y="37"/>
      <point x="297" y="33"/>
    </contour>
    <contour>
      <point x="27" y="31" type="curve"/>
      <point x="29" y="-3" type="line"/>
      <point x="50" y="-1"/>
      <point x="85" y="1"/>
      <point x="115" y="1" type="curve"/>
      <point x="145" y="1"/>
      <point x="179" y="-1"/>
      <point x="200" y="-3" type="curve"/>
      <point x="201" y="31" type="line"/>
      <point x="184" y="33"/>
      <point x="165" y="37"/>
      <point x="158" y="42" type="curve"/>
      <point x="156" y="47"/>
      <point x="153" y="82"/>
      <point x="153" y="142" type="curve"/>
      <point x="153" y="246" type="line" smooth="yes"/>
      <point x="153" y="306"/>
      <point x="156" y="342"/>
      <point x="158" y="346" type="curve"/>
      <point x="165" y="351"/>
      <point x="184" y="355"/>
      <point x="201" y="356" type="curve"/>
      <point x="200" y="390" type="line"/>
      <point x="179" y="389"/>
      <point x="145" y="387"/>
      <point x="115" y="387" type="curve"/>
      <point x="85" y="387"/>
      <point x="50" y="389"/>
      <point x="29" y="390" type="curve"/>
      <point x="27" y="356" type="line"/>
      <point x="45" y="355"/>
      <point x="65" y="351"/>
      <point x="71" y="346" type="curve"/>
      <point x="74" y="342"/>
      <point x="76" y="306"/>
      <point x="76" y="246" type="curve"/>
      <point x="76" y="142" type="line" smooth="yes"/>
      <point x="76" y="82"/>
      <point x="74" y="47"/>
      <point x="71" y="42" type="curve"/>
      <point x="65" y="37"/>
      <point x="45" y="33"/>
    </contour>
    <contour>
      <point x="142" y="222" type="curve"/>
      <point x="142" y="174" type="line"/>
      <point x="162" y="175"/>
      <point x="192" y="177"/>
      <point x="241" y="177" type="curve"/>
      <point x="289" y="177"/>
      <point x="319" y="175"/>
      <point x="339" y="174" type="curve"/>
      <point x="339" y="222" type="line"/>
      <point x="320" y="221"/>
      <point x="289" y="220"/>
      <point x="241" y="220" type="curve"/>
      <point x="192" y="220"/>
      <point x="161" y="221"/>
    </contour>
    <contour>
      <point x="241" y="0" type="move" name="bottom"/>
    </contour>
    <contour>
      <point x="241" y="287" type="move" name="center"/>
    </contour>
    <contour>
      <point x="241" y="388" type="move" name="top"/>
    </contour>
    <contour>
      <point x="19" y="388" type="move" name="topleft"/>
    </contour>
  </outline>
</glyph>
<glyph name="I" format="1">
  <advance width="229"/>
  <unicode hex="0049"/>
  <outline>
    <contour>
      <point x="27" y="31" type="curve"/>
      <point x="29" y="-3" type="line"/>
      <point x="50" y="-1"/>
      <point x="85" y="1"/>
      <point x="115" y="1" type="curve"/>
      <point x="145" y="1"/>
      <point x="179" y="-1"/>
      <point x="201" y="-3" type="curve"/>
      <point x="202" y="31" type="line"/>
      <point x="185" y="33"/>
      <point x="165" y="37"/>
      <point x="158" y="42" type="curve"/>
      <point x="156" y="47"/>
      <point x="153" y="82"/>
      <point x="153" y="142" type="curve"/>
      <point x="153" y="246" type="line" smooth="yes"/>
      <point x="153" y="306"/>
      <point x="156" y="342"/>
      <point x="158" y="346" type="curve"/>
      <point x="165" y="351"/>
      <point x="185" y="355"/>
      <point x="202" y="356" type="curve"/>
      <point x="201" y="390" type="line"/>
      <point x="179" y="389"/>
      <point x="145" y="387"/>
      <point x="115" y="387" type="curve"/>
      <point x="85" y="387"/>
      <point x="50" y="389"/>
      <point x="29" y="390" type="curve"/>
      <point x="27" y="356" type="line"/>
      <point x="45" y="355"/>
      <point x="65" y="351"/>
      <point x="71" y="346" type="curve"/>
      <point x="74" y="342"/>
      <point x="76" y="306"/>
      <point x="76" y="246" type="curve"/>
      <point x="76" y="142" type="line" smooth="yes"/>
      <point x="76" y="82"/>
      <point x="74" y="47"/>
      <point x="71" y="42" type="curve"/>
      <point x="65" y="37"/>
      <point x="45" y="33"/>
    </contour>
    <contour>
      <point x="115" y="0" type="move" name="bottom"/>
    </contour>
    <contour>
      <point x="161" y="0" type="move" name="ogonek"/>
    </contour>
    <contour>
      <point x="115" y="388" type="move" name="top"/>
    </contour>
    <contour>
      <point x="19" y="388" type="move" name="topleft"/>
    </contour>
  </outline>
</glyph>
<glyph name="J" format="1">
  <advance width="230"/>
  <unicode hex="004A"/>
  <outline>
    <contour>
      <point x="160" y="346" type="curve"/>
      <point x="166" y="351"/>
      <point x="187" y="355"/>
      <point x="202" y="356" type="curve"/>
      <point x="201" y="390" type="line"/>
      <point x="180" y="389"/>
      <point x="146" y="387"/>
      <point x="117" y="387" type="curve"/>
      <point x="86" y="387"/>
      <point x="51" y="389"/>
      <point x="28" y="390" type="curve"/>
      <point x="26" y="356" type="line"/>
      <point x="45" y="355"/>
      <point x="67" y="351"/>
      <point x="73" y="347" type="curve"/>
      <point x="75" y="341"/>
      <point x="78" y="307"/>
      <point x="78" y="248" type="curve"/>
      <point x="78" y="-15" type="line"/>
      <point x="78" y="-94"/>
      <point x="61" y="-104"/>
      <point x="29" y="-100" type="curve"/>
      <point x="61" y="-111" type="line"/>
      <point x="18" y="-70" type="line" smooth="yes"/>
      <point x="2" y="-54"/>
      <point x="-10" y="-49"/>
      <point x="-24" y="-49" type="curve"/>
      <point x="-42" y="-49"/>
      <point x="-56" y="-60"/>
      <point x="-56" y="-81" type="curve"/>
      <point x="-56" y="-113"/>
      <point x="-15" y="-134"/>
      <point x="34" y="-134" type="curve"/>
      <point x="101" y="-134"/>
      <point x="156" y="-88"/>
      <point x="156" y="4" type="curve"/>
      <point x="155" y="247" type="line"/>
      <point x="155" y="307"/>
      <point x="157" y="341"/>
    </contour>
    <contour>
      <point x="117" y="388" type="move" name="top"/>
    </contour>
  </outline>
</glyph>
<glyph name="K" format="1">
  <advance width="441"/>
  <unicode hex="004B"/>
  <outline>
    <contour>
      <point x="254" y="31" type="curve"/>
      <point x="255" y="-3" type="line"/>
      <point x="275" y="-2"/>
      <point x="318" y="1"/>
      <point x="348" y="1" type="curve"/>
      <point x="380" y="1"/>
      <point x="418" y="1"/>
      <point x="443" y="-1" type="curve"/>
      <point x="443" y="33" type="line"/>
      <point x="431" y="34"/>
      <point x="419" y="36"/>
      <point x="408" y="38" type="curve"/>
      <point x="399" y="45"/>
      <point x="386" y="57"/>
      <point x="358" y="91" type="curve"/>
      <point x="224" y="240" type="line"/>
      <point x="223" y="214" type="line"/>
      <point x="384" y="349" type="line"/>
      <point x="397" y="352"/>
      <point x="414" y="354"/>
      <point x="428" y="355" type="curve"/>
      <point x="426" y="389" type="line"/>
      <point x="409" y="388"/>
      <point x="374" y="387"/>
      <point x="353" y="387" type="curve"/>
      <point x="332" y="387"/>
      <point x="298" y="387"/>
      <point x="277" y="388" type="curve"/>
      <point x="277" y="354" type="line"/>
      <point x="288" y="354"/>
      <point x="308" y="352"/>
      <point x="321" y="349" type="curve"/>
      <point x="177" y="209" type="line"/>
      <point x="144" y="202" type="line"/>
      <point x="144" y="173" type="line"/>
      <point x="170" y="173" type="line"/>
      <point x="267" y="70" type="line" smooth="yes"/>
      <point x="279" y="56"/>
      <point x="286" y="48"/>
      <point x="293" y="38" type="curve"/>
      <point x="285" y="35"/>
      <point x="267" y="32"/>
    </contour>
    <contour>
      <point x="29" y="31" type="curve"/>
      <point x="31" y="-3" type="line"/>
      <point x="52" y="-1"/>
      <point x="85" y="1"/>
      <point x="115" y="1" type="curve"/>
      <point x="145" y="1"/>
      <point x="177" y="-1"/>
      <point x="196" y="-3" type="curve"/>
      <point x="197" y="31" type="line"/>
      <point x="183" y="33"/>
      <point x="163" y="37"/>
      <point x="157" y="42" type="curve"/>
      <point x="155" y="47"/>
      <point x="154" y="82"/>
      <point x="154" y="142" type="curve"/>
      <point x="154" y="246" type="line" smooth="yes"/>
      <point x="154" y="307"/>
      <point x="156" y="342"/>
      <point x="159" y="347" type="curve"/>
      <point x="165" y="352"/>
      <point x="185" y="356"/>
      <point x="203" y="357" type="curve"/>
      <point x="201" y="391" type="line"/>
      <point x="180" y="389"/>
      <point x="145" y="387"/>
      <point x="115" y="387" type="curve"/>
      <point x="85" y="387"/>
      <point x="50" y="389"/>
      <point x="29" y="391" type="curve"/>
      <point x="27" y="357" type="line"/>
      <point x="45" y="356"/>
      <point x="65" y="352"/>
      <point x="71" y="347" type="curve"/>
      <point x="74" y="342"/>
      <point x="76" y="307"/>
      <point x="76" y="246" type="curve"/>
      <point x="76" y="142" type="line" smooth="yes"/>
      <point x="76" y="82"/>
      <point x="74" y="47"/>
      <point x="72" y="42" type="curve"/>
      <point x="66" y="37"/>
      <point x="46" y="33"/>
    </contour>
    <contour>
      <point x="226" y="0" type="move" name="bottom"/>
    </contour>
    <contour>
      <point x="226" y="388" type="move" name="top"/>
    </contour>
  </outline>
</glyph>
<glyph name="L" format="1">
  <advance width="376"/>
  <unicode hex="004C"/>
  <outline>
    <contour>
      <point x="340" y="-4" type="curve"/>
      <point x="371" y="110" type="line"/>
      <point x="334" y="119" type="line"/>
      <point x="320" y="93"/>
      <point x="309" y="69"/>
      <point x="296" y="49" type="curve"/>
      <point x="282" y="47"/>
      <point x="273" y="46"/>
      <point x="246" y="46" type="curve"/>
      <point x="210" y="46" type="line" smooth="yes"/>
      <point x="186" y="46"/>
      <point x="172" y="46"/>
      <point x="159" y="48" type="curve"/>
      <point x="158" y="58"/>
      <point x="156" y="87"/>
      <point x="156" y="142" type="curve"/>
      <point x="156" y="246" type="line" smooth="yes"/>
      <point x="156" y="306"/>
      <point x="158" y="341"/>
      <point x="161" y="346" type="curve"/>
      <point x="167" y="351"/>
      <point x="188" y="354"/>
      <point x="221" y="356" type="curve"/>
      <point x="219" y="391" type="line"/>
      <point x="185" y="389"/>
      <point x="157" y="387"/>
      <point x="126" y="387" type="curve"/>
      <point x="99" y="387"/>
      <point x="52" y="389"/>
      <point x="31" y="390" type="curve"/>
      <point x="29" y="356" type="line"/>
      <point x="47" y="356"/>
      <point x="67" y="351"/>
      <point x="74" y="346" type="curve"/>
      <point x="76" y="342"/>
      <point x="78" y="306"/>
      <point x="78" y="246" type="curve"/>
      <point x="78" y="142" type="line" smooth="yes"/>
      <point x="78" y="82"/>
      <point x="76" y="47"/>
      <point x="74" y="42" type="curve"/>
      <point x="67" y="37"/>
      <point x="47" y="33"/>
      <point x="29" y="31" type="curve"/>
      <point x="31" y="-3" type="line"/>
      <point x="52" y="-1"/>
      <point x="91" y="0"/>
      <point x="117" y="0" type="curve"/>
      <point x="250" y="0" type="line" smooth="yes"/>
      <point x="276" y="0"/>
      <point x="316" y="-2"/>
    </contour>
    <contour>
      <point x="204" y="0" type="move" name="bottom"/>
    </contour>
    <contour>
      <point x="140" y="200" type="move" name="center"/>
    </contour>
    <contour>
      <point x="258" y="212" type="move" name="dotacc"/>
    </contour>
    <contour>
      <point x="117" y="388" type="move" name="top"/>
    </contour>
    <contour>
      <point x="263" y="388" type="move" name="topright"/>
    </contour>
  </outline>
</glyph>
<glyph name="M" format="1">
  <advance width="610"/>
  <unicode hex="004D"/>
  <outline>
    <contour>
      <point x="33" y="389" type="curve"/>
      <point x="32" y="355" type="line"/>
      <point x="49" y="354"/>
      <point x="71" y="351"/>
      <point x="78" y="346" type="curve"/>
      <point x="78" y="340"/>
      <point x="79" y="322"/>
      <point x="78" y="262" type="curve"/>
      <point x="76" y="134" type="line" smooth="yes"/>
      <point x="76" y="84"/>
      <point x="74" y="48"/>
      <point x="72" y="42" type="curve"/>
      <point x="66" y="37"/>
      <point x="44" y="34"/>
      <point x="26" y="32" type="curve"/>
      <point x="27" y="-2" type="line"/>
      <point x="50" y="-1"/>
      <point x="77" y="1"/>
      <point x="97" y="1" type="curve"/>
      <point x="116" y="1"/>
      <point x="148" y="-1"/>
      <point x="171" y="-2" type="curve"/>
      <point x="172" y="32" type="line"/>
      <point x="154" y="34"/>
      <point x="133" y="37"/>
      <point x="126" y="42" type="curve"/>
      <point x="124" y="48"/>
      <point x="124" y="85"/>
      <point x="124" y="142" type="curve"/>
      <point x="123" y="369" type="line"/>
      <point x="93" y="369" type="line"/>
      <point x="273" y="-2" type="line"/>
      <point x="307" y="-2" type="line"/>
      <point x="475" y="369" type="line"/>
      <point x="450" y="369" type="line"/>
      <point x="452" y="143" type="line" smooth="yes"/>
      <point x="453" y="85"/>
      <point x="452" y="48"/>
      <point x="451" y="42" type="curve"/>
      <point x="444" y="37"/>
      <point x="424" y="33"/>
      <point x="407" y="31" type="curve"/>
      <point x="409" y="-3" type="line"/>
      <point x="430" y="-1"/>
      <point x="464" y="1"/>
      <point x="491" y="1" type="curve"/>
      <point x="519" y="1"/>
      <point x="558" y="-1"/>
      <point x="580" y="-3" type="curve"/>
      <point x="582" y="31" type="line"/>
      <point x="564" y="33"/>
      <point x="544" y="37"/>
      <point x="538" y="42" type="curve"/>
      <point x="536" y="49"/>
      <point x="535" y="93"/>
      <point x="533" y="146" type="curve"/>
      <point x="528" y="263" type="line" smooth="yes"/>
      <point x="526" y="306"/>
      <point x="526" y="340"/>
      <point x="528" y="348" type="curve"/>
      <point x="535" y="351"/>
      <point x="555" y="355"/>
      <point x="574" y="356" type="curve"/>
      <point x="573" y="390" type="line"/>
      <point x="551" y="389"/>
      <point x="521" y="387"/>
      <point x="497" y="387" type="curve"/>
      <point x="479" y="387"/>
      <point x="457" y="388"/>
      <point x="439" y="389" type="curve"/>
      <point x="300" y="89" type="line"/>
      <point x="317" y="89" type="line"/>
      <point x="171" y="389" type="line"/>
      <point x="152" y="388"/>
      <point x="120" y="387"/>
      <point x="101" y="387" type="curve"/>
      <point x="80" y="387"/>
      <point x="55" y="388"/>
    </contour>
    <contour>
      <point x="290" y="0" type="move" name="bottom"/>
    </contour>
    <contour>
      <point x="290" y="388" type="move" name="top"/>
    </contour>
  </outline>
</glyph>
<glyph name="O" format="1">
  <advance width="491"/>
  <unicode hex="004F"/>
  <outline>
    <contour>
      <point x="250" y="-6" type="curve"/>
      <point x="350" y="-6"/>
      <point x="456" y="67"/>
      <point x="456" y="199" type="curve"/>
      <point x="456" y="314"/>
      <point x="372" y="394"/>
      <point x="251" y="394" type="curve"/>
      <point x="126" y="394"/>
      <point x="34" y="308"/>
      <point x="34" y="190" type="curve"/>
      <point x="34" y="75"/>
      <point x="124" y="-6"/>
    </contour>
    <contour>
      <point x="256" y="40" type="curve"/>
      <point x="180" y="40"/>
      <point x="127" y="109"/>
      <point x="127" y="208" type="curve"/>
      <point x="127" y="298"/>
      <point x="171" y="353"/>
      <point x="242" y="353" type="curve"/>
      <point x="316" y="353"/>
      <point x="366" y="285"/>
      <point x="366" y="182" type="curve"/>
      <point x="366" y="91"/>
      <point x="325" y="40"/>
    </contour>
    <contour>
      <point x="245" y="0" type="move" name="bottom"/>
    </contour>
    <contour>
      <point x="245" y="194" type="move" name="center"/>
    </contour>
    <contour>
      <point x="297" y="0" type="move" name="ogonek"/>
    </contour>
    <contour>
      <point x="245" y="388" type="move" name="top"/>
    </contour>
    <contour>
      <point x="13" y="388" type="move" name="topleft"/>
    </contour>
    <contour>
      <point x="477" y="388" type="move" name="topright"/>
    </contour>
  </outline>
</glyph>
<glyph name="Q" format="1">
  <advance width="491"/>
  <unicode hex="0051"/>
  <outline>
    <contour>
      <point x="250" y="-5" type="curve"/>
      <point x="258" y="-3" type="line"/>
      <point x="353" y="-3"/>
      <point x="456" y="67"/>
      <point x="456" y="199" type="curve"/>
      <point x="456" y="314"/>
      <point x="372" y="394"/>
      <point x="251" y="394" type="curve"/>
      <point x="126" y="394"/>
      <point x="34" y="308"/>
      <point x="34" y="190" type="curve"/>
      <point x="34" y="75"/>
      <point x="124" y="-5"/>
    </contour>
    <contour>
      <point x="425" y="-96" type="curve"/>
      <point x="462" y="-96"/>
      <point x="496" y="-85"/>
      <point x="520" y="-70" type="curve"/>
      <point x="512" y="-37" type="line"/>
      <point x="496" y="-42"/>
      <point x="480" y="-43"/>
      <point x="467" y="-43" type="curve"/>
      <point x="439" y="-43"/>
      <point x="417" y="-37"/>
      <point x="382" y="-17" type="curve"/>
      <point x="355" y="-1"/>
      <point x="327" y="6"/>
      <point x="293" y="8" type="curve"/>
      <point x="187" y="8" type="line"/>
      <point x="218" y="-3"/>
      <point x="252" y="-21"/>
      <point x="285" y="-47" type="curve"/>
      <point x="329" y="-76"/>
      <point x="367" y="-96"/>
    </contour>
    <contour>
      <point x="256" y="40" type="curve"/>
      <point x="180" y="40"/>
      <point x="127" y="109"/>
      <point x="127" y="208" type="curve"/>
      <point x="127" y="298"/>
      <point x="171" y="353"/>
      <point x="242" y="353" type="curve"/>
      <point x="316" y="353"/>
      <point x="366" y="285"/>
      <point x="366" y="182" type="curve"/>
      <point x="366" y="91"/>
      <point x="325" y="40"/>
    </contour>
    <contour>
      <point x="245" y="0" type="move" name="bottom"/>
    </contour>
    <contour>
      <point x="245" y="388" type="move" name="top"/>
    </contour>
  </outline>
</glyph>
<glyph name="R" format="1">
  <advance width="415"/>
  <unicode hex="0052"/>
  <outline>
    <contour>
      <point x="29" y="31" type="curve"/>
      <point x="31" y="-3" type="line"/>
      <point x="52" y="-1"/>
      <point x="85" y="1"/>
      <point x="114" y="1" type="curve"/>
      <point x="145" y="1"/>
      <point x="176" y="-1"/>
      <point x="195" y="-3" type="curve"/>
      <point x="197" y="31" type="line"/>
      <point x="182" y="33"/>
      <point x="164" y="37"/>
      <point x="156" y="42" type="curve"/>
      <point x="155" y="49"/>
      <point x="153" y="82"/>
      <point x="153" y="142" type="curve"/>
      <point x="153" y="252" type="line" smooth="yes"/>
      <point x="153" y="311"/>
      <point x="154" y="348"/>
      <point x="155" y="353" type="curve"/>
      <point x="162" y="355"/>
      <point x="174" y="356"/>
      <point x="188" y="356" type="curve"/>
      <point x="232" y="356"/>
      <point x="263" y="335"/>
      <point x="263" y="288" type="curve"/>
      <point x="263" y="236"/>
      <point x="226" y="213"/>
      <point x="179" y="213" type="curve"/>
      <point x="169" y="213"/>
      <point x="158" y="213"/>
      <point x="146" y="214" type="curve"/>
      <point x="146" y="177" type="line"/>
      <point x="188" y="177" type="line" smooth="yes"/>
      <point x="278" y="177"/>
      <point x="344" y="224"/>
      <point x="344" y="289" type="curve"/>
      <point x="344" y="360"/>
      <point x="291" y="390"/>
      <point x="197" y="390" type="curve"/>
      <point x="166" y="390"/>
      <point x="134" y="387"/>
      <point x="112" y="387" type="curve"/>
      <point x="86" y="387"/>
      <point x="59" y="387"/>
      <point x="29" y="389" type="curve"/>
      <point x="27" y="355" type="line"/>
      <point x="45" y="355"/>
      <point x="65" y="351"/>
      <point x="71" y="346" type="curve"/>
      <point x="74" y="342"/>
      <point x="76" y="306"/>
      <point x="76" y="246" type="curve"/>
      <point x="76" y="142" type="line" smooth="yes"/>
      <point x="76" y="82"/>
      <point x="74" y="47"/>
      <point x="74" y="42" type="curve"/>
      <point x="66" y="37"/>
      <point x="46" y="33"/>
    </contour>
    <contour>
      <point x="381" y="-8" type="curve"/>
      <point x="393" y="-8"/>
      <point x="406" y="-6"/>
      <point x="418" y="-4" type="curve"/>
      <point x="419" y="25" type="line"/>
      <point x="386" y="32"/>
      <point x="362" y="50"/>
      <point x="324" y="94" type="curve"/>
      <point x="245" y="203" type="line"/>
      <point x="179" y="187" type="line"/>
      <point x="223" y="106" type="line" smooth="yes"/>
      <point x="267" y="26"/>
      <point x="310" y="-8"/>
    </contour>
    <contour>
      <point x="226" y="0" type="move" name="bottom"/>
    </contour>
    <contour>
      <point x="199" y="388" type="move" name="top"/>
    </contour>
  </outline>
</glyph>
<glyph name="S" format="1">
  <advance width="347"/>
  <unicode hex="0053"/>
  <outline>
    <contour>
      <point x="164" y="-6" type="curve"/>
      <point x="261" y="-6"/>
      <point x="328" y="43"/>
      <point x="328" y="110" type="curve"/>
      <point x="328" y="235"/>
      <point x="123" y="213"/>
      <point x="123" y="302" type="curve"/>
      <point x="123" y="336"/>
      <point x="152" y="356"/>
      <point x="194" y="356" type="curve"/>
      <point x="214" y="356"/>
      <point x="231" y="353"/>
      <point x="248" y="345" type="curve"/>
      <point x="256" y="329"/>
      <point x="262" y="306"/>
      <point x="269" y="281" type="curve"/>
      <point x="306" y="285" type="line"/>
      <point x="299" y="378" type="line"/>
      <point x="274" y="388"/>
      <point x="236" y="395"/>
      <point x="201" y="395" type="curve"/>
      <point x="106" y="395"/>
      <point x="41" y="348"/>
      <point x="41" y="278" type="curve"/>
      <point x="41" y="147"/>
      <point x="244" y="175"/>
      <point x="244" y="84" type="curve"/>
      <point x="244" y="53"/>
      <point x="217" y="35"/>
      <point x="174" y="35" type="curve"/>
      <point x="149" y="35"/>
      <point x="120" y="41"/>
      <point x="99" y="54" type="curve"/>
      <point x="91" y="75"/>
      <point x="84" y="98"/>
      <point x="77" y="121" type="curve"/>
      <point x="40" y="117" type="line"/>
      <point x="39" y="89"/>
      <point x="41" y="59"/>
      <point x="43" y="23" type="curve"/>
      <point x="73" y="5"/>
      <point x="124" y="-6"/>
    </contour>
    <contour>
      <point x="180" y="0" type="move" name="bottom"/>
    </contour>
    <contour>
      <point x="180" y="388" type="move" name="top"/>
    </contour>
  </outline>
</glyph>
<glyph name="T" format="1">
  <advance width="411"/>
  <unicode hex="0054"/>
  <outline>
    <contour>
      <point x="382" y="391" type="curve"/>
      <point x="361" y="390"/>
      <point x="323" y="388"/>
      <point x="299" y="388" type="curve"/>
      <point x="110" y="388" type="line" smooth="yes"/>
      <point x="87" y="388"/>
      <point x="48" y="390"/>
      <point x="27" y="391" type="curve"/>
      <point x="22" y="353"/>
      <point x="18" y="314"/>
      <point x="12" y="276" type="curve"/>
      <point x="49" y="272" type="line"/>
      <point x="59" y="302"/>
      <point x="69" y="330"/>
      <point x="77" y="349" type="curve"/>
      <point x="87" y="350"/>
      <point x="96" y="351"/>
      <point x="107" y="351" type="curve"/>
      <point x="132" y="351" type="line" smooth="yes"/>
      <point x="141" y="351"/>
      <point x="156" y="351"/>
      <point x="165" y="350" type="curve"/>
      <point x="166" y="341"/>
      <point x="167" y="277"/>
      <point x="167" y="222" type="curve"/>
      <point x="167" y="153" type="line" smooth="yes"/>
      <point x="167" y="102"/>
      <point x="165" y="59"/>
      <point x="164" y="42" type="curve"/>
      <point x="148" y="38"/>
      <point x="119" y="34"/>
      <point x="103" y="32" type="curve"/>
      <point x="105" y="-3" type="line"/>
      <point x="131" y="-1"/>
      <point x="179" y="1"/>
      <point x="206" y="1" type="curve"/>
      <point x="233" y="1"/>
      <point x="281" y="-1"/>
      <point x="307" y="-3" type="curve"/>
      <point x="309" y="32" type="line"/>
      <point x="293" y="34"/>
      <point x="263" y="38"/>
      <point x="247" y="42" type="curve"/>
      <point x="246" y="59"/>
      <point x="245" y="102"/>
      <point x="245" y="153" type="curve"/>
      <point x="245" y="222" type="line" smooth="yes"/>
      <point x="245" y="277"/>
      <point x="246" y="341"/>
      <point x="246" y="350" type="curve"/>
      <point x="255" y="351"/>
      <point x="271" y="351"/>
      <point x="279" y="351" type="curve"/>
      <point x="304" y="351" type="line" smooth="yes"/>
      <point x="314" y="351"/>
      <point x="322" y="350"/>
      <point x="333" y="349" type="curve"/>
      <point x="340" y="330"/>
      <point x="351" y="302"/>
      <point x="361" y="273" type="curve"/>
      <point x="398" y="276" type="line"/>
      <point x="392" y="314"/>
      <point x="387" y="353"/>
    </contour>
    <contour>
      <point x="206" y="0" type="move" name="bottom"/>
    </contour>
    <contour>
      <point x="206" y="200" type="move" name="stroke"/>
    </contour>
    <contour>
      <point x="206" y="388" type="move" name="top"/>
    </contour>
  </outline>
</glyph>
<glyph name="U" format="1">
  <advance width="477"/>
  <unicode hex="0055"/>
  <outline>
    <contour>
      <point x="26" y="390" type="curve"/>
      <point x="25" y="356" type="line"/>
      <point x="42" y="355"/>
      <point x="62" y="351"/>
      <point x="69" y="346" type="curve"/>
      <point x="71" y="342"/>
      <point x="73" y="306"/>
      <point x="73" y="246" type="curve"/>
      <point x="73" y="159" type="line" smooth="yes"/>
      <point x="73" y="52"/>
      <point x="137" y="-6"/>
      <point x="246" y="-6" type="curve"/>
      <point x="336" y="-6"/>
      <point x="404" y="48"/>
      <point x="404" y="162" type="curve"/>
      <point x="404" y="234" type="line" smooth="yes"/>
      <point x="404" y="293"/>
      <point x="407" y="342"/>
      <point x="409" y="346" type="curve"/>
      <point x="416" y="351"/>
      <point x="438" y="355"/>
      <point x="455" y="356" type="curve"/>
      <point x="453" y="390" type="line"/>
      <point x="430" y="389"/>
      <point x="398" y="388"/>
      <point x="379" y="388" type="curve"/>
      <point x="359" y="388"/>
      <point x="328" y="389"/>
      <point x="306" y="390" type="curve"/>
      <point x="304" y="356" type="line"/>
      <point x="323" y="355"/>
      <point x="343" y="351"/>
      <point x="349" y="346" type="curve"/>
      <point x="352" y="342"/>
      <point x="354" y="293"/>
      <point x="354" y="234" type="curve"/>
      <point x="354" y="171" type="line" smooth="yes"/>
      <point x="354" y="84"/>
      <point x="315" y="52"/>
      <point x="256" y="52" type="curve"/>
      <point x="192" y="52"/>
      <point x="152" y="87"/>
      <point x="152" y="169" type="curve"/>
      <point x="152" y="246" type="line"/>
      <point x="151" y="306"/>
      <point x="154" y="335"/>
      <point x="157" y="346" type="curve"/>
      <point x="163" y="351"/>
      <point x="183" y="355"/>
      <point x="202" y="356" type="curve"/>
      <point x="200" y="390" type="line"/>
      <point x="177" y="389"/>
      <point x="143" y="388"/>
      <point x="113" y="388" type="curve"/>
      <point x="82" y="388"/>
      <point x="48" y="389"/>
    </contour>
    <contour>
      <point x="253" y="0" type="move" name="bottom"/>
    </contour>
    <contour>
      <point x="296" y="0" type="move" name="ogonek"/>
    </contour>
    <contour>
      <point x="254" y="388" type="move" name="top"/>
    </contour>
    <contour>
      <point x="459" y="388" type="move" name="topright"/>
    </contour>
  </outline>
</glyph>
<glyph name="V" format="1">
  <advance width="421"/>
  <unicode hex="0056"/>
  <outline>
    <contour>
      <point x="34" y="348" type="curve"/>
      <point x="192" y="-2" type="line"/>
      <point x="226" y="-2" type="line"/>
      <point x="387" y="348" type="line"/>
      <point x="394" y="351"/>
      <point x="409" y="355"/>
      <point x="421" y="356" type="curve"/>
      <point x="420" y="390" type="line"/>
      <point x="399" y="389"/>
      <point x="378" y="388"/>
      <point x="359" y="388" type="curve"/>
      <point x="339" y="388"/>
      <point x="309" y="389"/>
      <point x="284" y="390" type="curve"/>
      <point x="282" y="355" type="line"/>
      <point x="302" y="353"/>
      <point x="322" y="351"/>
      <point x="331" y="349" type="curve"/>
      <point x="221" y="82" type="line"/>
      <point x="243" y="82" type="line"/>
      <point x="124" y="349" type="line"/>
      <point x="132" y="351"/>
      <point x="153" y="353"/>
      <point x="173" y="355" type="curve"/>
      <point x="171" y="390" type="line"/>
      <point x="145" y="389"/>
      <point x="104" y="388"/>
      <point x="80" y="388" type="curve"/>
      <point x="56" y="388"/>
      <point x="22" y="389"/>
      <point x="1" y="390" type="curve"/>
      <point x="-1" y="356" type="line"/>
      <point x="12" y="355"/>
      <point x="26" y="351"/>
    </contour>
    <contour>
      <point x="207" y="0" type="move" name="bottom"/>
    </contour>
    <contour>
      <point x="207" y="388" type="move" name="top"/>
    </contour>
  </outline>
</glyph>
<glyph name="W" format="1">
  <advance width="673"/>
  <unicode hex="0057"/>
  <outline>
    <contour>
      <point x="224" y="-2" type="line"/>
      <point x="345" y="267" type="line"/>
      <point x="318" y="324" type="line"/>
      <point x="215" y="82" type="line"/>
      <point x="241" y="82" type="line"/>
      <point x="128" y="349" type="line"/>
      <point x="134" y="351"/>
      <point x="148" y="354"/>
      <point x="161" y="355" type="curve"/>
      <point x="159" y="390" type="line"/>
      <point x="140" y="388"/>
      <point x="108" y="388"/>
      <point x="84" y="388" type="curve"/>
      <point x="60" y="388"/>
      <point x="30" y="388"/>
      <point x="5" y="390" type="curve"/>
      <point x="4" y="356" type="line"/>
      <point x="16" y="355"/>
      <point x="31" y="351"/>
      <point x="38" y="348" type="curve"/>
      <point x="190" y="-2" type="line"/>
    </contour>
    <contour>
      <point x="294" y="348" type="curve"/>
      <point x="446" y="-2" type="line"/>
      <point x="480" y="-2" type="line"/>
      <point x="635" y="348" type="line"/>
      <point x="642" y="351"/>
      <point x="657" y="355"/>
      <point x="669" y="356" type="curve"/>
      <point x="668" y="390" type="line"/>
      <point x="647" y="389"/>
      <point x="629" y="388"/>
      <point x="610" y="388" type="curve"/>
      <point x="590" y="388"/>
      <point x="557" y="389"/>
      <point x="532" y="390" type="curve"/>
      <point x="530" y="355" type="line"/>
      <point x="550" y="354"/>
      <point x="570" y="351"/>
      <point x="579" y="349" type="curve"/>
      <point x="472" y="82" type="line"/>
      <point x="495" y="82" type="line"/>
      <point x="382" y="349" type="line"/>
      <point x="390" y="351"/>
      <point x="411" y="354"/>
      <point x="432" y="356" type="curve"/>
      <point x="430" y="390" type="line"/>
      <point x="404" y="388"/>
      <point x="372" y="388"/>
      <point x="348" y="388" type="curve"/>
      <point x="324" y="388"/>
      <point x="286" y="388"/>
      <point x="263" y="390" type="curve"/>
      <point x="262" y="356" type="line"/>
      <point x="273" y="355"/>
      <point x="288" y="351"/>
    </contour>
    <contour>
      <point x="339" y="0" type="move" name="bottom"/>
    </contour>
    <contour>
      <point x="339" y="388" type="move" name="top"/>
    </contour>
  </outline>
</glyph>
<glyph name="X" format="1">
  <advance width="417"/>
  <unicode hex="0058"/>
  <outline>
    <contour>
      <point x="415" y="-2" type="curve"/>
      <point x="417" y="33" type="line"/>
      <point x="403" y="34"/>
      <point x="388" y="37"/>
      <point x="382" y="41" type="curve"/>
      <point x="247" y="220" type="line"/>
      <point x="224" y="255" type="line"/>
      <point x="149" y="348" type="line"/>
      <point x="155" y="351"/>
      <point x="171" y="355"/>
      <point x="186" y="355" type="curve"/>
      <point x="185" y="389" type="line"/>
      <point x="166" y="389"/>
      <point x="127" y="388"/>
      <point x="97" y="388" type="curve"/>
      <point x="66" y="388"/>
      <point x="36" y="389"/>
      <point x="20" y="389" type="curve"/>
      <point x="19" y="355" type="line"/>
      <point x="32" y="356"/>
      <point x="48" y="351"/>
      <point x="52" y="347" type="curve"/>
      <point x="171" y="191" type="line"/>
      <point x="197" y="157" type="line"/>
      <point x="285" y="42" type="line"/>
      <point x="279" y="37"/>
      <point x="259" y="33"/>
      <point x="242" y="32" type="curve"/>
      <point x="243" y="-2" type="line"/>
      <point x="268" y="-1"/>
      <point x="310" y="1"/>
      <point x="339" y="1" type="curve"/>
      <point x="371" y="1"/>
      <point x="398" y="-1"/>
    </contour>
    <contour>
      <point x="296" y="348" type="curve"/>
      <point x="224" y="255" type="line"/>
      <point x="171" y="191" type="line"/>
      <point x="49" y="42" type="line"/>
      <point x="44" y="37"/>
      <point x="29" y="35"/>
      <point x="15" y="33" type="curve"/>
      <point x="16" y="-1" type="line"/>
      <point x="35" y="0"/>
      <point x="63" y="1"/>
      <point x="80" y="1" type="curve"/>
      <point x="97" y="1"/>
      <point x="130" y="0"/>
      <point x="149" y="-1" type="curve"/>
      <point x="150" y="33" type="line"/>
      <point x="135" y="33"/>
      <point x="111" y="40"/>
      <point x="107" y="42" type="curve"/>
      <point x="197" y="157" type="line"/>
      <point x="247" y="220" type="line"/>
      <point x="354" y="348" type="line"/>
      <point x="358" y="351"/>
      <point x="374" y="356"/>
      <point x="387" y="355" type="curve"/>
      <point x="386" y="389" type="line"/>
      <point x="369" y="389"/>
      <point x="353" y="388"/>
      <point x="331" y="388" type="curve"/>
      <point x="307" y="388"/>
      <point x="277" y="389"/>
      <point x="261" y="389" type="curve"/>
      <point x="260" y="355" type="line"/>
      <point x="274" y="355"/>
      <point x="291" y="351"/>
    </contour>
    <contour>
      <point x="207" y="0" type="move" name="bottom"/>
    </contour>
    <contour>
      <point x="207" y="388" type="move" name="top"/>
    </contour>
  </outline>
</glyph>
<glyph name="Y" format="1">
  <advance width="396"/>
  <unicode hex="0059"/>
  <outline>
    <contour>
      <point x="212" y="126" type="line"/>
      <point x="359" y="349" type="line"/>
      <point x="368" y="352"/>
      <point x="383" y="355"/>
      <point x="393" y="355" type="curve"/>
      <point x="392" y="389" type="line"/>
      <point x="371" y="389"/>
      <point x="352" y="388"/>
      <point x="333" y="388" type="curve"/>
      <point x="314" y="388"/>
      <point x="284" y="389"/>
      <point x="259" y="389" type="curve"/>
      <point x="257" y="355" type="line"/>
      <point x="274" y="353"/>
      <point x="295" y="351"/>
      <point x="306" y="349" type="curve"/>
      <point x="211" y="200" type="line"/>
      <point x="225" y="200" type="line"/>
      <point x="127" y="349" type="line"/>
      <point x="137" y="351"/>
      <point x="158" y="353"/>
      <point x="177" y="355" type="curve"/>
      <point x="175" y="389" type="line"/>
      <point x="151" y="389"/>
      <point x="108" y="388"/>
      <point x="83" y="388" type="curve"/>
      <point x="58" y="388"/>
      <point x="27" y="389"/>
      <point x="4" y="389" type="curve"/>
      <point x="2" y="355" type="line"/>
      <point x="14" y="354"/>
      <point x="29" y="351"/>
      <point x="37" y="349" type="curve"/>
      <point x="178" y="126" type="line"/>
      <point x="159" y="188" type="line"/>
      <point x="159" y="122" type="line" smooth="yes"/>
      <point x="159" y="82"/>
      <point x="157" y="46"/>
      <point x="155" y="41" type="curve"/>
      <point x="149" y="37"/>
      <point x="129" y="33"/>
      <point x="105" y="31" type="curve"/>
      <point x="107" y="-3" type="line"/>
      <point x="134" y="-1"/>
      <point x="168" y="1"/>
      <point x="198" y="1" type="curve"/>
      <point x="228" y="1"/>
      <point x="260" y="-1"/>
      <point x="288" y="-3" type="curve"/>
      <point x="290" y="31" type="line"/>
      <point x="266" y="33"/>
      <point x="246" y="37"/>
      <point x="240" y="41" type="curve"/>
      <point x="238" y="46"/>
      <point x="236" y="82"/>
      <point x="236" y="122" type="curve"/>
      <point x="236" y="188" type="line"/>
    </contour>
    <contour>
      <point x="198" y="0" type="move" name="bottom"/>
    </contour>
    <contour>
      <point x="198" y="388" type="move" name="top"/>
    </contour>
    <contour>
      <point x="15" y="388" type="move" name="topleft"/>
    </contour>
  </outline>
</glyph>
<glyph name="Z" format="1">
  <advance width="382"/>
  <unicode hex="005A"/>
  <outline>
    <contour>
      <point x="348" y="-3" type="curve"/>
      <point x="367" y="113" type="line"/>
      <point x="331" y="117" type="line"/>
      <point x="319" y="83"/>
      <point x="310" y="60"/>
      <point x="302" y="42" type="curve"/>
      <point x="291" y="41"/>
      <point x="283" y="40"/>
      <point x="273" y="40" type="curve"/>
      <point x="123" y="40" type="line"/>
      <point x="123" y="14" type="line"/>
      <point x="346" y="357" type="line"/>
      <point x="346" y="389" type="line"/>
      <point x="328" y="389"/>
      <point x="310" y="388"/>
      <point x="292" y="388" type="curve"/>
      <point x="96" y="388" type="line" smooth="yes"/>
      <point x="78" y="388"/>
      <point x="54" y="388"/>
      <point x="32" y="389" type="curve"/>
      <point x="33" y="280" type="line"/>
      <point x="70" y="280" type="line"/>
      <point x="74" y="311"/>
      <point x="77" y="330"/>
      <point x="81" y="348" type="curve"/>
      <point x="95" y="350"/>
      <point x="109" y="351"/>
      <point x="133" y="351" type="curve"/>
      <point x="271" y="351" type="line"/>
      <point x="271" y="378" type="line"/>
      <point x="44" y="30" type="line"/>
      <point x="44" y="-2" type="line"/>
      <point x="62" y="-1"/>
      <point x="79" y="0"/>
      <point x="97" y="0" type="curve"/>
      <point x="267" y="0" type="line" smooth="yes"/>
      <point x="290" y="0"/>
      <point x="327" y="-2"/>
    </contour>
    <contour>
      <point x="191" y="0" type="move" name="bottom"/>
    </contour>
    <contour>
      <point x="191" y="388" type="move" name="top"/>
    </contour>
  </outline>
</glyph>
<glyph name="bracketleft" format="1">
  <advance width="235"/>
  <unicode hex="005B"/>
  <outline>
    <contour>
      <point x="68" y="-145" type="line"/>
      <point x="209" y="-145" type="line"/>
      <point x="209" y="-108" type="line"/>
      <point x="141" y="-108" type="line"/>
      <point x="141" y="440" type="line"/>
      <point x="209" y="440" type="line"/>
      <point x="209" y="477" type="line"/>
      <point x="68" y="477" type="line"/>
    </contour>
  </outline>
</glyph>
<glyph name="backslash" format="1">
  <advance width="274"/>
  <unicode hex="005C"/>
  <outline>
    <contour>
      <point x="200" y="-145" type="line"/>
      <point x="257" y="-145" type="line"/>
      <point x="46" y="481" type="line"/>
      <point x="-11" y="481" type="line"/>
    </contour>
  </outline>
</glyph>
<glyph name="bracketright" format="1">
  <advance width="235"/>
  <unicode hex="005D"/>
  <outline>
    <contour>
      <point x="26" y="-108" type="line"/>
      <point x="26" y="-145" type="line"/>
      <point x="167" y="-145" type="line"/>
      <point x="167" y="477" type="line"/>
      <point x="26" y="477" type="line"/>
      <point x="26" y="440" type="line"/>
      <point x="95" y="440" type="line"/>
      <point x="95" y="-108" type="line"/>
    </contour>
  </outline>
</glyph>
<glyph name="asciicircum" format="1">
  <advance width="381"/>
  <unicode hex="005E"/>
  <outline>
    <contour>
      <point x="349" y="84" type="line"/>
      <point x="218" y="371" type="line"/>
      <point x="164" y="371" type="line"/>
      <point x="33" y="84" type="line"/>
      <point x="89" y="84" type="line"/>
      <point x="209" y="348" type="line"/>
      <point x="173" y="348" type="line"/>
      <point x="293" y="84" type="line"/>
    </contour>
  </outline>
</glyph>
<glyph name="underscore" format="1">
  <advance width="311"/>
  <unicode hex="005F"/>
  <outline>
    <contour>
      <point x="17" y="0" type="line"/>
      <point x="17" y="-46" type="line"/>
      <point x="293" y="-46" type="line"/>
      <point x="293" y="0" type="line"/>
    </contour>
  </outline>
</glyph>
<glyph name="a" format="1">
  <advance width="341"/>
  <unicode hex="0061"/>
  <outline>
    <contour>
      <point x="131" y="-5" type="curve"/>
      <point x="154" y="-5"/>
      <point x="184" y="7"/>
      <point x="219" y="47" type="curve"/>
      <point x="206" y="50" type="line"/>
      <point x="217" y="21" type="line" smooth="yes"/>
      <point x="222" y="5"/>
      <point x="232" y="-5"/>
      <point x="250" y="-5" type="curve"/>
      <point x="268" y="-5"/>
      <point x="290" y="7"/>
      <point x="328" y="20" type="curve"/>
      <point x="328" y="45" type="line"/>
      <point x="314" y="47"/>
      <point x="292" y="50"/>
      <point x="282" y="54" type="curve"/>
      <point x="280" y="63"/>
      <point x="277" y="77"/>
      <point x="277" y="99" type="curve"/>
      <point x="279" y="197" type="line"/>
      <point x="279" y="257"/>
      <point x="228" y="294"/>
      <point x="154" y="294" type="curve"/>
      <point x="108" y="289"/>
      <point x="34" y="249"/>
      <point x="34" y="216" type="curve"/>
      <point x="34" y="190"/>
      <point x="65" y="178"/>
      <point x="104" y="187" type="curve"/>
      <point x="106" y="224" type="line" smooth="yes"/>
      <point x="108" y="245"/>
      <point x="113" y="251"/>
      <point x="133" y="251" type="curve"/>
      <point x="168" y="251"/>
      <point x="204" y="226"/>
      <point x="204" y="195" type="curve"/>
      <point x="204" y="169" type="line"/>
      <point x="96" y="138" type="line" smooth="yes"/>
      <point x="48" y="124"/>
      <point x="31" y="103"/>
      <point x="31" y="73" type="curve"/>
      <point x="31" y="40"/>
      <point x="69" y="-5"/>
    </contour>
    <contour>
      <point x="158" y="49" type="curve"/>
      <point x="135" y="49"/>
      <point x="110" y="68"/>
      <point x="110" y="90" type="curve"/>
      <point x="110" y="107"/>
      <point x="119" y="117"/>
      <point x="142" y="122" type="curve"/>
      <point x="205" y="133" type="line"/>
      <point x="205" y="67" type="line"/>
      <point x="190" y="54"/>
      <point x="174" y="49"/>
    </contour>
    <contour>
      <point x="171" y="0" type="move" name="bottom"/>
    </contour>
    <contour>
      <point x="303" y="0" type="move" name="ogonek"/>
    </contour>
    <contour>
      <point x="164" y="289" type="move" name="top"/>
    </contour>
  </outline>
</glyph>
<glyph name="b" format="1">
  <advance width="393"/>
  <unicode hex="0062"/>
  <outline>
    <contour>
      <point x="61" y="19" type="curve"/>
      <point x="98" y="3"/>
      <point x="139" y="-5"/>
      <point x="181" y="-5" type="curve"/>
      <point x="287" y="-5"/>
      <point x="363" y="67"/>
      <point x="363" y="159" type="curve"/>
      <point x="363" y="244"/>
      <point x="302" y="294"/>
      <point x="232" y="294" type="curve"/>
      <point x="193" y="294"/>
      <point x="156" y="273"/>
      <point x="136" y="246" type="curve"/>
      <point x="133" y="246" type="line"/>
      <point x="135" y="350"/>
      <point x="136" y="395"/>
      <point x="139" y="449" type="curve"/>
      <point x="123" y="461" type="line"/>
      <point x="90" y="446"/>
      <point x="51" y="434"/>
      <point x="11" y="426" type="curve"/>
      <point x="13" y="397" type="line"/>
      <point x="25" y="397"/>
      <point x="45" y="396"/>
      <point x="60" y="394" type="curve"/>
      <point x="61" y="375"/>
      <point x="63" y="315"/>
      <point x="63" y="239" type="curve"/>
      <point x="63" y="151" type="line"/>
      <point x="63" y="105"/>
      <point x="62" y="63"/>
    </contour>
    <contour>
      <point x="198" y="42" type="curve"/>
      <point x="172" y="42"/>
      <point x="151" y="49"/>
      <point x="134" y="59" type="curve"/>
      <point x="134" y="210" type="line"/>
      <point x="151" y="227"/>
      <point x="175" y="236"/>
      <point x="199" y="236" type="curve"/>
      <point x="245" y="236"/>
      <point x="283" y="208"/>
      <point x="283" y="142" type="curve"/>
      <point x="282" y="73"/>
      <point x="246" y="42"/>
    </contour>
    <contour>
      <point x="199" y="0" type="move" name="bottom"/>
    </contour>
    <contour>
      <point x="199" y="436" type="move" name="top"/>
    </contour>
  </outline>
</glyph>
<glyph name="d" format="1">
  <advance width="392"/>
  <unicode hex="0064"/>
  <outline>
    <contour>
      <point x="255" y="1" type="line"/>
      <point x="270" y="-8" type="line"/>
      <point x="300" y="2"/>
      <point x="337" y="13"/>
      <point x="378" y="20" type="curve"/>
      <point x="378" y="47" type="line"/>
      <point x="363" y="49"/>
      <point x="340" y="52"/>
      <point x="330" y="56" type="curve"/>
      <point x="328" y="72"/>
      <point x="325" y="100"/>
      <point x="325" y="145" type="curve"/>
      <point x="326" y="299" type="line" smooth="yes"/>
      <point x="326" y="350"/>
      <point x="327" y="395"/>
      <point x="329" y="449" type="curve"/>
      <point x="313" y="461" type="line"/>
      <point x="280" y="446"/>
      <point x="241" y="434"/>
      <point x="202" y="426" type="curve"/>
      <point x="203" y="397" type="line"/>
      <point x="215" y="397"/>
      <point x="235" y="396"/>
      <point x="250" y="394" type="curve"/>
      <point x="252" y="375"/>
      <point x="253" y="316"/>
      <point x="253" y="283" type="curve"/>
      <point x="239" y="290"/>
      <point x="213" y="294"/>
      <point x="192" y="294" type="curve"/>
      <point x="112" y="294"/>
      <point x="28" y="233"/>
      <point x="28" y="135" type="curve"/>
      <point x="28" y="51"/>
      <point x="90" y="-6"/>
      <point x="167" y="-6" type="curve"/>
      <point x="198" y="-6"/>
      <point x="228" y="7"/>
      <point x="254" y="44" type="curve"/>
      <point x="256" y="43" type="line"/>
    </contour>
    <contour>
      <point x="192" y="53" type="curve"/>
      <point x="146" y="53"/>
      <point x="108" y="90"/>
      <point x="108" y="157" type="curve"/>
      <point x="108" y="219"/>
      <point x="143" y="257"/>
      <point x="192" y="257" type="curve"/>
      <point x="214" y="257"/>
      <point x="239" y="250"/>
      <point x="254" y="230" type="curve"/>
      <point x="254" y="83" type="line"/>
      <point x="235" y="61"/>
      <point x="213" y="53"/>
    </contour>
    <contour>
      <point x="206" y="0" type="move" name="bottom"/>
    </contour>
    <contour>
      <point x="196" y="145" type="move" name="center"/>
    </contour>
    <contour>
      <point x="250" y="343" type="move" name="stroke"/>
    </contour>
    <contour>
      <point x="196" y="455" type="move" name="top"/>
    </contour>
    <contour>
      <point x="354" y="455" type="move" name="topright"/>
    </contour>
  </outline>
</glyph>
<glyph name="e" format="1">
  <advance width="334"/>
  <unicode hex="0065"/>
  <outline>
    <contour>
      <point x="178" y="-5" type="curve"/>
      <point x="233" y="-5"/>
      <point x="279" y="21"/>
      <point x="305" y="72" type="curve"/>
      <point x="285" y="91" type="line"/>
      <point x="260" y="63"/>
      <point x="235" y="53"/>
      <point x="203" y="53" type="curve"/>
      <point x="144" y="53"/>
      <point x="104" y="95"/>
      <point x="104" y="159" type="curve"/>
      <point x="104" y="172" type="line" smooth="yes"/>
      <point x="104" y="232"/>
      <point x="137" y="260"/>
      <point x="175" y="260" type="curve"/>
      <point x="213" y="260"/>
      <point x="235" y="233"/>
      <point x="235" y="189" type="curve"/>
      <point x="235" y="169" type="line"/>
      <point x="245" y="183" type="line"/>
      <point x="93" y="183" type="line"/>
      <point x="93" y="150" type="line"/>
      <point x="302" y="150" type="line"/>
      <point x="302" y="164" type="line" smooth="yes"/>
      <point x="302" y="241"/>
      <point x="260" y="294"/>
      <point x="180" y="294" type="curve"/>
      <point x="101" y="295"/>
      <point x="28" y="233"/>
      <point x="28" y="140" type="curve"/>
      <point x="28" y="56"/>
      <point x="92" y="-5"/>
    </contour>
    <contour>
      <point x="174" y="0" type="move" name="bottom"/>
    </contour>
    <contour>
      <point x="265" y="0" type="move" name="ogonek"/>
    </contour>
    <contour>
      <point x="174" y="289" type="move" name="top"/>
    </contour>
  </outline>
</glyph>
<glyph name="f" format="1">
  <advance width="219"/>
  <unicode hex="0066"/>
  <outline>
    <contour>
      <point x="198" y="-3" type="curve"/>
      <point x="199" y="29" type="line"/>
      <point x="180" y="31"/>
      <point x="152" y="36"/>
      <point x="140" y="40" type="curve"/>
      <point x="138" y="47"/>
      <point x="137" y="75"/>
      <point x="136" y="150" type="curve"/>
      <point x="134" y="248" type="line"/>
      <point x="133" y="288" type="line"/>
      <point x="133" y="340" type="line" smooth="yes"/>
      <point x="133" y="414"/>
      <point x="157" y="433"/>
      <point x="181" y="433" type="curve"/>
      <point x="157" y="437" type="line"/>
      <point x="193" y="404" type="line" smooth="yes"/>
      <point x="206" y="392"/>
      <point x="216" y="387"/>
      <point x="231" y="387" type="curve"/>
      <point x="247" y="387"/>
      <point x="258" y="397"/>
      <point x="258" y="414" type="curve"/>
      <point x="258" y="441"/>
      <point x="227" y="461"/>
      <point x="185" y="461" type="curve"/>
      <point x="115" y="461"/>
      <point x="61" y="403"/>
      <point x="61" y="313" type="curve"/>
      <point x="61" y="248" type="line"/>
      <point x="63" y="134" type="line"/>
      <point x="63" y="73"/>
      <point x="61" y="45"/>
      <point x="60" y="40" type="curve"/>
      <point x="54" y="36"/>
      <point x="29" y="31"/>
      <point x="15" y="29" type="curve"/>
      <point x="18" y="-2" type="line"/>
      <point x="40" y="0"/>
      <point x="75" y="2"/>
      <point x="105" y="2" type="curve"/>
      <point x="133" y="2"/>
      <point x="165" y="0"/>
    </contour>
    <contour>
      <point x="10" y="276" type="curve"/>
      <point x="10" y="248" type="line"/>
      <point x="210" y="248" type="line"/>
      <point x="210" y="288" type="line"/>
      <point x="108" y="288" type="line"/>
      <point x="61" y="290" type="line"/>
      <point x="44" y="284"/>
      <point x="28" y="279"/>
    </contour>
  </outline>
</glyph>
<glyph name="g" format="1">
  <advance width="362"/>
  <unicode hex="0067"/>
  <outline>
    <contour>
      <point x="171" y="-151" type="curve"/>
      <point x="266" y="-151"/>
      <point x="338" y="-102"/>
      <point x="338" y="-41" type="curve"/>
      <point x="338" y="5"/>
      <point x="305" y="32"/>
      <point x="236" y="39" type="curve"/>
      <point x="140" y="48" type="line" smooth="yes"/>
      <point x="122" y="50"/>
      <point x="112" y="57"/>
      <point x="112" y="67" type="curve"/>
      <point x="112" y="75"/>
      <point x="119" y="83"/>
      <point x="134" y="92" type="curve"/>
      <point x="124" y="103" type="line"/>
      <point x="77" y="87"/>
      <point x="49" y="63"/>
      <point x="49" y="36" type="curve"/>
      <point x="49" y="10"/>
      <point x="77" y="-9"/>
      <point x="116" y="-9" type="curve"/>
      <point x="125" y="-12" type="line"/>
      <point x="204" y="-19" type="line" smooth="yes"/>
      <point x="254" y="-23"/>
      <point x="272" y="-35"/>
      <point x="272" y="-59" type="curve"/>
      <point x="272" y="-93"/>
      <point x="233" y="-117"/>
      <point x="177" y="-117" type="curve"/>
      <point x="124" y="-117"/>
      <point x="95" y="-99"/>
      <point x="95" y="-67" type="curve"/>
      <point x="95" y="-45"/>
      <point x="110" y="-24"/>
      <point x="137" y="-8" type="curve"/>
      <point x="110" y="-3" type="line"/>
      <point x="53" y="-23"/>
      <point x="24" y="-49"/>
      <point x="24" y="-78" type="curve"/>
      <point x="24" y="-123"/>
      <point x="80" y="-151"/>
    </contour>
    <contour>
      <point x="176" y="80" type="curve"/>
      <point x="252" y="80"/>
      <point x="307" y="125"/>
      <point x="307" y="186" type="curve"/>
      <point x="307" y="247"/>
      <point x="252" y="294"/>
      <point x="177" y="294" type="curve"/>
      <point x="100" y="294"/>
      <point x="42" y="247"/>
      <point x="42" y="184" type="curve"/>
      <point x="42" y="122"/>
      <point x="97" y="80"/>
    </contour>
    <contour>
      <point x="181" y="114" type="curve"/>
      <point x="144" y="114"/>
      <point x="119" y="144"/>
      <point x="119" y="189" type="curve"/>
      <point x="119" y="231"/>
      <point x="143" y="261"/>
      <point x="177" y="261" type="curve"/>
      <point x="212" y="261"/>
      <point x="236" y="230"/>
      <point x="236" y="183" type="curve"/>
      <point x="236" y="141"/>
      <point x="214" y="114"/>
    </contour>
    <contour>
      <point x="262" y="246" type="line"/>
      <point x="348" y="238" type="line"/>
      <point x="348" y="287" type="line"/>
      <point x="233" y="275" type="line"/>
    </contour>
    <contour>
      <point x="181" y="-145" type="move" name="bottom"/>
    </contour>
    <contour>
      <point x="178" y="289" type="move" name="top"/>
    </contour>
  </outline>
</glyph>
<glyph name="h" format="1">
  <advance width="400"/>
  <unicode hex="0068"/>
  <outline>
    <contour>
      <point x="14" y="29" type="curve"/>
      <point x="17" y="-2" type="line"/>
      <point x="41" y="0"/>
      <point x="74" y="1"/>
      <point x="99" y="1" type="curve"/>
      <point x="125" y="1"/>
      <point x="159" y="0"/>
      <point x="183" y="-2" type="curve"/>
      <point x="186" y="29" type="line"/>
      <point x="171" y="30"/>
      <point x="146" y="35"/>
      <point x="139" y="40" type="curve"/>
      <point x="137" y="45"/>
      <point x="135" y="69"/>
      <point x="135" y="109" type="curve"/>
      <point x="135" y="206" type="line"/>
      <point x="153" y="227"/>
      <point x="178" y="238"/>
      <point x="203" y="238" type="curve"/>
      <point x="237" y="238"/>
      <point x="267" y="217"/>
      <point x="267" y="166" type="curve"/>
      <point x="267" y="106" type="line" smooth="yes"/>
      <point x="267" y="69"/>
      <point x="265" y="45"/>
      <point x="264" y="40" type="curve"/>
      <point x="256" y="35"/>
      <point x="234" y="30"/>
      <point x="221" y="29" type="curve"/>
      <point x="224" y="-2" type="line"/>
      <point x="248" y="0"/>
      <point x="279" y="1"/>
      <point x="305" y="1" type="curve"/>
      <point x="330" y="1"/>
      <point x="364" y="0"/>
      <point x="388" y="-2" type="curve"/>
      <point x="390" y="29" type="line"/>
      <point x="376" y="30"/>
      <point x="351" y="35"/>
      <point x="343" y="40" type="curve"/>
      <point x="342" y="45"/>
      <point x="339" y="68"/>
      <point x="339" y="107" type="curve"/>
      <point x="339" y="176" type="line" smooth="yes"/>
      <point x="339" y="253"/>
      <point x="292" y="294"/>
      <point x="237" y="294" type="curve"/>
      <point x="199" y="294"/>
      <point x="166" y="279"/>
      <point x="136" y="245" type="curve"/>
      <point x="133" y="246" type="line"/>
      <point x="135" y="350"/>
      <point x="136" y="395"/>
      <point x="139" y="449" type="curve"/>
      <point x="123" y="461" type="line"/>
      <point x="89" y="446"/>
      <point x="51" y="434"/>
      <point x="11" y="426" type="curve"/>
      <point x="13" y="397" type="line"/>
      <point x="25" y="397"/>
      <point x="45" y="396"/>
      <point x="60" y="394" type="curve"/>
      <point x="61" y="375"/>
      <point x="63" y="315"/>
      <point x="63" y="239" type="curve"/>
      <point x="63" y="155" type="line" smooth="yes"/>
      <point x="63" y="79"/>
      <point x="60" y="45"/>
      <point x="59" y="40" type="curve"/>
      <point x="52" y="35"/>
      <point x="29" y="30"/>
    </contour>
    <contour>
      <point x="201" y="0" type="move" name="bottom"/>
    </contour>
    <contour>
      <point x="140" y="343" type="move" name="stroke"/>
    </contour>
    <contour>
      <point x="99" y="436" type="move" name="top"/>
    </contour>
  </outline>
</glyph>
<glyph name="k" format="1">
  <advance width="366"/>
  <unicode hex="006B"/>
  <outline>
    <contour>
      <point x="20" y="29" type="curve"/>
      <point x="23" y="-2" type="line"/>
      <point x="44" y="0"/>
      <point x="74" y="1"/>
      <point x="100" y="1" type="curve"/>
      <point x="125" y="1"/>
      <point x="153" y="0"/>
      <point x="174" y="-2" type="curve"/>
      <point x="177" y="29" type="line"/>
      <point x="168" y="30"/>
      <point x="145" y="35"/>
      <point x="137" y="40" type="curve"/>
      <point x="137" y="45"/>
      <point x="135" y="68"/>
      <point x="135" y="104" type="curve"/>
      <point x="136" y="256" type="line"/>
      <point x="136" y="349"/>
      <point x="137" y="395"/>
      <point x="140" y="449" type="curve"/>
      <point x="123" y="461" type="line"/>
      <point x="90" y="446"/>
      <point x="51" y="434"/>
      <point x="12" y="426" type="curve"/>
      <point x="13" y="397" type="line"/>
      <point x="26" y="397"/>
      <point x="45" y="396"/>
      <point x="60" y="394" type="curve"/>
      <point x="62" y="375"/>
      <point x="63" y="315"/>
      <point x="63" y="239" type="curve"/>
      <point x="63" y="152" type="line" smooth="yes"/>
      <point x="63" y="79"/>
      <point x="61" y="45"/>
      <point x="60" y="40" type="curve"/>
      <point x="52" y="35"/>
      <point x="30" y="30"/>
    </contour>
    <contour>
      <point x="362" y="-1" type="curve"/>
      <point x="363" y="29" type="line"/>
      <point x="353" y="30"/>
      <point x="343" y="32"/>
      <point x="334" y="34" type="curve"/>
      <point x="327" y="40"/>
      <point x="314" y="54"/>
      <point x="297" y="73" type="curve"/>
      <point x="197" y="186" type="line"/>
      <point x="188" y="157" type="line"/>
      <point x="309" y="252" type="line"/>
      <point x="322" y="255"/>
      <point x="341" y="258"/>
      <point x="356" y="260" type="curve"/>
      <point x="354" y="290" type="line"/>
      <point x="333" y="289"/>
      <point x="302" y="288"/>
      <point x="281" y="288" type="curve"/>
      <point x="259" y="288"/>
      <point x="226" y="288"/>
      <point x="205" y="289" type="curve"/>
      <point x="204" y="259" type="line"/>
      <point x="215" y="258"/>
      <point x="235" y="256"/>
      <point x="249" y="252" type="curve"/>
      <point x="150" y="160" type="line"/>
      <point x="126" y="155" type="line"/>
      <point x="125" y="132" type="line"/>
      <point x="144" y="132" type="line"/>
      <point x="229" y="43" type="line" smooth="yes"/>
      <point x="241" y="29"/>
      <point x="251" y="14"/>
      <point x="263" y="0" type="curve"/>
      <point x="294" y="0"/>
      <point x="331" y="0"/>
    </contour>
    <contour>
      <point x="194" y="0" type="move" name="bottom"/>
    </contour>
    <contour>
      <point x="100" y="436" type="move" name="top"/>
    </contour>
  </outline>
</glyph>
<glyph name="l" format="1">
  <advance width="201"/>
  <unicode hex="006C"/>
  <outline>
    <contour>
      <point x="13" y="29" type="curve"/>
      <point x="15" y="-2" type="line"/>
      <point x="42" y="0"/>
      <point x="75" y="1"/>
      <point x="101" y="1" type="curve"/>
      <point x="127" y="1"/>
      <point x="161" y="0"/>
      <point x="187" y="-2" type="curve"/>
      <point x="190" y="29" type="line"/>
      <point x="173" y="30"/>
      <point x="148" y="35"/>
      <point x="140" y="40" type="curve"/>
      <point x="139" y="45"/>
      <point x="137" y="73"/>
      <point x="137" y="155" type="curve"/>
      <point x="137" y="255" type="line"/>
      <point x="138" y="350"/>
      <point x="138" y="395"/>
      <point x="141" y="449" type="curve"/>
      <point x="124" y="461" type="line"/>
      <point x="91" y="446"/>
      <point x="51" y="434"/>
      <point x="12" y="426" type="curve"/>
      <point x="13" y="397" type="line"/>
      <point x="26" y="397"/>
      <point x="45" y="396"/>
      <point x="60" y="394" type="curve"/>
      <point x="62" y="375"/>
      <point x="63" y="315"/>
      <point x="63" y="239" type="curve"/>
      <point x="63" y="155" type="line" smooth="yes"/>
      <point x="63" y="79"/>
      <point x="61" y="45"/>
      <point x="59" y="40" type="curve"/>
      <point x="52" y="35"/>
      <point x="30" y="30"/>
    </contour>
    <contour>
      <point x="100" y="0" type="move" name="bottom"/>
    </contour>
    <contour>
      <point x="100" y="227" type="move" name="center"/>
    </contour>
    <contour>
      <point x="215" y="227" type="move" name="dotacc"/>
    </contour>
    <contour>
      <point x="100" y="436" type="move" name="top"/>
    </contour>
    <contour>
      <point x="165" y="455" type="move" name="topright"/>
    </contour>
  </outline>
</glyph>
<glyph name="m" format="1">
  <advance width="594"/>
  <unicode hex="006D"/>
  <outline>
    <contour>
      <point x="15" y="29" type="curve"/>
      <point x="18" y="-2" type="line"/>
      <point x="42" y="0"/>
      <point x="75" y="1"/>
      <point x="101" y="1" type="curve"/>
      <point x="126" y="1"/>
      <point x="159" y="0"/>
      <point x="180" y="-2" type="curve"/>
      <point x="183" y="29" type="line"/>
      <point x="172" y="31"/>
      <point x="147" y="35"/>
      <point x="140" y="40" type="curve"/>
      <point x="139" y="45"/>
      <point x="136" y="69"/>
      <point x="136" y="109" type="curve"/>
      <point x="136" y="206" type="line"/>
      <point x="153" y="227"/>
      <point x="177" y="238"/>
      <point x="201" y="238" type="curve"/>
      <point x="234" y="238"/>
      <point x="263" y="220"/>
      <point x="263" y="171" type="curve"/>
      <point x="263" y="106" type="line"/>
      <point x="263" y="69"/>
      <point x="261" y="45"/>
      <point x="260" y="40" type="curve"/>
      <point x="253" y="35"/>
      <point x="232" y="31"/>
      <point x="220" y="29" type="curve"/>
      <point x="222" y="-2" type="line"/>
      <point x="245" y="0"/>
      <point x="274" y="1"/>
      <point x="300" y="1" type="curve"/>
      <point x="325" y="1"/>
      <point x="356" y="0"/>
      <point x="379" y="-2" type="curve"/>
      <point x="381" y="29" type="line"/>
      <point x="368" y="31"/>
      <point x="346" y="35"/>
      <point x="339" y="40" type="curve"/>
      <point x="338" y="45"/>
      <point x="335" y="68"/>
      <point x="335" y="107" type="curve"/>
      <point x="335" y="176" type="line"/>
      <point x="335" y="257"/>
      <point x="283" y="294"/>
      <point x="232" y="294" type="curve"/>
      <point x="197" y="294"/>
      <point x="165" y="279"/>
      <point x="136" y="245" type="curve"/>
      <point x="134" y="245" type="line"/>
      <point x="138" y="282" type="line"/>
      <point x="123" y="293" type="line"/>
      <point x="92" y="282"/>
      <point x="53" y="272"/>
      <point x="13" y="265" type="curve"/>
      <point x="13" y="237" type="line"/>
      <point x="29" y="235"/>
      <point x="46" y="232"/>
      <point x="58" y="228" type="curve"/>
      <point x="61" y="211"/>
      <point x="64" y="191"/>
      <point x="64" y="157" type="curve"/>
      <point x="63" y="107" type="line" smooth="yes"/>
      <point x="63" y="69"/>
      <point x="61" y="45"/>
      <point x="60" y="40" type="curve"/>
      <point x="53" y="35"/>
      <point x="30" y="30"/>
    </contour>
    <contour>
      <point x="418" y="29" type="curve"/>
      <point x="420" y="-2" type="line"/>
      <point x="443" y="0"/>
      <point x="472" y="1"/>
      <point x="497" y="1" type="curve"/>
      <point x="523" y="1"/>
      <point x="557" y="0"/>
      <point x="581" y="-2" type="curve"/>
      <point x="584" y="29" type="line"/>
      <point x="569" y="30"/>
      <point x="544" y="35"/>
      <point x="537" y="40" type="curve"/>
      <point x="535" y="45"/>
      <point x="533" y="68"/>
      <point x="533" y="107" type="curve"/>
      <point x="532" y="177" type="line" smooth="yes"/>
      <point x="532" y="249"/>
      <point x="489" y="294"/>
      <point x="423" y="294" type="curve"/>
      <point x="380" y="294"/>
      <point x="343" y="273"/>
      <point x="312" y="232" type="curve"/>
      <point x="327" y="206" type="line"/>
      <point x="345" y="227"/>
      <point x="370" y="238"/>
      <point x="397" y="238" type="curve"/>
      <point x="429" y="238"/>
      <point x="460" y="219"/>
      <point x="460" y="166" type="curve"/>
      <point x="461" y="106" type="line" smooth="yes"/>
      <point x="461" y="69"/>
      <point x="459" y="45"/>
      <point x="457" y="40" type="curve"/>
      <point x="450" y="35"/>
      <point x="430" y="31"/>
    </contour>
    <contour>
      <point x="299" y="0" type="move" name="bottom"/>
    </contour>
    <contour>
      <point x="299" y="289" type="move" name="top"/>
    </contour>
  </outline>
</glyph>
<glyph name="n" format="1">
  <advance width="401"/>
  <unicode hex="006E"/>
  <outline>
    <contour>
      <point x="15" y="29" type="curve"/>
      <point x="17" y="-2" type="line"/>
      <point x="41" y="0"/>
      <point x="74" y="1"/>
      <point x="100" y="1" type="curve"/>
      <point x="125" y="1"/>
      <point x="160" y="0"/>
      <point x="184" y="-2" type="curve"/>
      <point x="186" y="29" type="line"/>
      <point x="172" y="30"/>
      <point x="147" y="35"/>
      <point x="139" y="40" type="curve"/>
      <point x="138" y="45"/>
      <point x="136" y="69"/>
      <point x="136" y="109" type="curve"/>
      <point x="136" y="206" type="line"/>
      <point x="154" y="227"/>
      <point x="178" y="238"/>
      <point x="204" y="238" type="curve"/>
      <point x="238" y="238"/>
      <point x="268" y="217"/>
      <point x="268" y="166" type="curve"/>
      <point x="268" y="106" type="line" smooth="yes"/>
      <point x="268" y="69"/>
      <point x="266" y="45"/>
      <point x="265" y="40" type="curve"/>
      <point x="257" y="35"/>
      <point x="235" y="30"/>
      <point x="222" y="29" type="curve"/>
      <point x="224" y="-2" type="line"/>
      <point x="248" y="0"/>
      <point x="280" y="1"/>
      <point x="305" y="1" type="curve"/>
      <point x="331" y="1"/>
      <point x="364" y="0"/>
      <point x="388" y="-2" type="curve"/>
      <point x="391" y="29" type="line"/>
      <point x="377" y="30"/>
      <point x="351" y="35"/>
      <point x="344" y="40" type="curve"/>
      <point x="343" y="45"/>
      <point x="340" y="68"/>
      <point x="340" y="107" type="curve"/>
      <point x="340" y="176" type="line" smooth="yes"/>
      <point x="340" y="253"/>
      <point x="293" y="294"/>
      <point x="237" y="294" type="curve"/>
      <point x="200" y="294"/>
      <point x="167" y="278"/>
      <point x="136" y="245" type="curve"/>
      <point x="133" y="245" type="line"/>
      <point x="137" y="282" type="line"/>
      <point x="122" y="293" type="line"/>
      <point x="91" y="282"/>
      <point x="52" y="272"/>
      <point x="12" y="265" type="curve"/>
      <point x="12" y="237" type="line"/>
      <point x="28" y="235"/>
      <point x="46" y="232"/>
      <point x="57" y="228" type="curve"/>
      <point x="60" y="211"/>
      <point x="63" y="191"/>
      <point x="63" y="157" type="curve"/>
      <point x="63" y="107" type="line" smooth="yes"/>
      <point x="62" y="69"/>
      <point x="61" y="45"/>
      <point x="59" y="40" type="curve"/>
      <point x="52" y="35"/>
      <point x="30" y="30"/>
    </contour>
    <contour>
      <point x="202" y="0" type="move" name="bottom"/>
    </contour>
    <contour>
      <point x="202" y="289" type="move" name="top"/>
    </contour>
  </outline>
</glyph>
<glyph name="o" format="1">
  <advance width="371"/>
  <unicode hex="006F"/>
  <outline>
    <contour>
      <point x="188" y="-5" type="curve"/>
      <point x="273" y="-5"/>
      <point x="341" y="62"/>
      <point x="341" y="147" type="curve"/>
      <point x="341" y="234"/>
      <point x="280" y="294"/>
      <point x="191" y="294" type="curve"/>
      <point x="105" y="294"/>
      <point x="29" y="237"/>
      <point x="29" y="142" type="curve"/>
      <point x="29" y="55"/>
      <point x="93" y="-5"/>
    </contour>
    <contour>
      <point x="195" y="34" type="curve"/>
      <point x="146" y="34"/>
      <point x="111" y="87"/>
      <point x="111" y="159" type="curve"/>
      <point x="111" y="219"/>
      <point x="138" y="257"/>
      <point x="181" y="257" type="curve"/>
      <point x="229" y="257"/>
      <point x="261" y="205"/>
      <point x="261" y="129" type="curve"/>
      <point x="261" y="70"/>
      <point x="236" y="34"/>
    </contour>
    <contour>
      <point x="185" y="0" type="move" name="bottom"/>
    </contour>
    <contour>
      <point x="185" y="145" type="move" name="center"/>
    </contour>
    <contour>
      <point x="236" y="0" type="move" name="ogonek"/>
    </contour>
    <contour>
      <point x="185" y="289" type="move" name="top"/>
    </contour>
    <contour>
      <point x="357" y="289" type="move" name="topright"/>
    </contour>
  </outline>
</glyph>
<glyph name="p" format="1">
  <advance width="389"/>
  <unicode hex="0070"/>
  <outline>
    <contour>
      <point x="14" y="-118" type="curve"/>
      <point x="17" y="-150" type="line"/>
      <point x="40" y="-147"/>
      <point x="69" y="-145"/>
      <point x="98" y="-145" type="curve"/>
      <point x="128" y="-145"/>
      <point x="163" y="-147"/>
      <point x="187" y="-150" type="curve"/>
      <point x="189" y="-118" type="line"/>
      <point x="171" y="-116"/>
      <point x="146" y="-111"/>
      <point x="138" y="-107" type="curve"/>
      <point x="137" y="-101"/>
      <point x="134" y="-78"/>
      <point x="134" y="-40" type="curve"/>
      <point x="134" y="4" type="line"/>
      <point x="153" y="-1"/>
      <point x="174" y="-5"/>
      <point x="193" y="-5" type="curve"/>
      <point x="291" y="-5"/>
      <point x="359" y="69"/>
      <point x="359" y="155" type="curve"/>
      <point x="359" y="242"/>
      <point x="301" y="294"/>
      <point x="229" y="294" type="curve"/>
      <point x="192" y="294"/>
      <point x="158" y="274"/>
      <point x="134" y="243" type="curve"/>
      <point x="132" y="244" type="line"/>
      <point x="136" y="282" type="line"/>
      <point x="121" y="293" type="line"/>
      <point x="90" y="282"/>
      <point x="52" y="272"/>
      <point x="11" y="265" type="curve"/>
      <point x="11" y="237" type="line"/>
      <point x="28" y="235"/>
      <point x="45" y="232"/>
      <point x="57" y="228" type="curve"/>
      <point x="60" y="211"/>
      <point x="63" y="191"/>
      <point x="63" y="158" type="curve"/>
      <point x="61" y="19" type="line" smooth="yes"/>
      <point x="60" y="-78"/>
      <point x="59" y="-102"/>
      <point x="57" y="-107" type="curve"/>
      <point x="51" y="-111"/>
      <point x="28" y="-116"/>
    </contour>
    <contour>
      <point x="195" y="39" type="curve"/>
      <point x="173" y="39"/>
      <point x="151" y="45"/>
      <point x="134" y="54" type="curve"/>
      <point x="134" y="207" type="line"/>
      <point x="151" y="226"/>
      <point x="174" y="236"/>
      <point x="199" y="236" type="curve"/>
      <point x="243" y="236"/>
      <point x="279" y="204"/>
      <point x="279" y="137" type="curve"/>
      <point x="279" y="70"/>
      <point x="245" y="39"/>
    </contour>
    <contour>
      <point x="195" y="289" type="move" name="top"/>
    </contour>
  </outline>
</glyph>
<glyph name="q" format="1">
  <advance width="392"/>
  <unicode hex="0071"/>
  <outline>
    <contour>
      <point x="201" y="-118" type="curve"/>
      <point x="203" y="-150" type="line"/>
      <point x="233" y="-147"/>
      <point x="260" y="-145"/>
      <point x="290" y="-145" type="curve"/>
      <point x="318" y="-145"/>
      <point x="345" y="-147"/>
      <point x="368" y="-150" type="curve"/>
      <point x="371" y="-118" type="line"/>
      <point x="357" y="-115"/>
      <point x="337" y="-111"/>
      <point x="330" y="-107" type="curve"/>
      <point x="328" y="-101"/>
      <point x="326" y="-74"/>
      <point x="326" y="-13" type="curve"/>
      <point x="324" y="157" type="line" smooth="yes"/>
      <point x="323" y="209"/>
      <point x="324" y="264"/>
      <point x="326" y="301" type="curve"/>
      <point x="301" y="301" type="line"/>
      <point x="275" y="278" type="line"/>
      <point x="251" y="288"/>
      <point x="225" y="294"/>
      <point x="195" y="294" type="curve"/>
      <point x="112" y="294"/>
      <point x="28" y="235"/>
      <point x="28" y="135" type="curve"/>
      <point x="28" y="51"/>
      <point x="88" y="-6"/>
      <point x="166" y="-6" type="curve"/>
      <point x="197" y="-6"/>
      <point x="227" y="8"/>
      <point x="252" y="44" type="curve"/>
      <point x="254" y="43" type="line"/>
      <point x="253" y="-39" type="line" smooth="yes"/>
      <point x="253" y="-78"/>
      <point x="252" y="-103"/>
      <point x="251" y="-107" type="curve"/>
      <point x="243" y="-111"/>
      <point x="219" y="-116"/>
    </contour>
    <contour>
      <point x="191" y="53" type="curve"/>
      <point x="144" y="53"/>
      <point x="108" y="90"/>
      <point x="108" y="157" type="curve"/>
      <point x="108" y="221"/>
      <point x="146" y="257"/>
      <point x="192" y="257" type="curve"/>
      <point x="213" y="257"/>
      <point x="238" y="250"/>
      <point x="252" y="233" type="curve"/>
      <point x="252" y="83" type="line"/>
      <point x="233" y="61"/>
      <point x="212" y="53"/>
    </contour>
    <contour>
      <point x="196" y="289" type="move" name="top"/>
    </contour>
  </outline>
</glyph>
<glyph name="r" format="1">
  <advance width="270"/>
  <unicode hex="0072"/>
  <outline>
    <contour>
      <point x="16" y="29" type="curve"/>
      <point x="19" y="-3" type="line"/>
      <point x="43" y="0"/>
      <point x="76" y="1"/>
      <point x="108" y="1" type="curve"/>
      <point x="136" y="1"/>
      <point x="170" y="0"/>
      <point x="205" y="-3" type="curve"/>
      <point x="206" y="30" type="line"/>
      <point x="185" y="32"/>
      <point x="151" y="37"/>
      <point x="142" y="40" type="curve"/>
      <point x="140" y="47"/>
      <point x="138" y="76"/>
      <point x="138" y="131" type="curve"/>
      <point x="137" y="190" type="line"/>
      <point x="148" y="208"/>
      <point x="163" y="224"/>
      <point x="179" y="234" type="curve"/>
      <point x="163" y="237" type="line"/>
      <point x="180" y="221"/>
      <point x="195" y="215"/>
      <point x="216" y="215" type="curve"/>
      <point x="243" y="215"/>
      <point x="261" y="230"/>
      <point x="261" y="255" type="curve"/>
      <point x="261" y="280"/>
      <point x="244" y="293"/>
      <point x="218" y="293" type="curve"/>
      <point x="192" y="293"/>
      <point x="163" y="277"/>
      <point x="135" y="235" type="curve"/>
      <point x="133" y="236" type="line"/>
      <point x="136" y="282" type="line"/>
      <point x="121" y="293" type="line"/>
      <point x="92" y="282"/>
      <point x="54" y="272"/>
      <point x="13" y="265" type="curve"/>
      <point x="13" y="237" type="line"/>
      <point x="30" y="235"/>
      <point x="47" y="232"/>
      <point x="59" y="228" type="curve"/>
      <point x="62" y="211"/>
      <point x="65" y="191"/>
      <point x="65" y="157" type="curve"/>
      <point x="64" y="107" type="line" smooth="yes"/>
      <point x="63" y="69"/>
      <point x="62" y="45"/>
      <point x="61" y="40" type="curve"/>
      <point x="54" y="35"/>
      <point x="31" y="30"/>
    </contour>
    <contour>
      <point x="101" y="0" type="move" name="bottom"/>
    </contour>
    <contour>
      <point x="122" y="289" type="move" name="top"/>
    </contour>
  </outline>
</glyph>
<glyph name="s" format="1">
  <advance width="291"/>
  <unicode hex="0073"/>
  <outline>
    <contour>
      <point x="139" y="-5" type="curve"/>
      <point x="214" y="-5"/>
      <point x="267" y="31"/>
      <point x="267" y="85" type="curve"/>
      <point x="267" y="123"/>
      <point x="244" y="148"/>
      <point x="182" y="172" type="curve"/>
      <point x="128" y="193"/>
      <point x="110" y="205"/>
      <point x="110" y="226" type="curve"/>
      <point x="110" y="248"/>
      <point x="131" y="260"/>
      <point x="161" y="260" type="curve"/>
      <point x="174" y="260"/>
      <point x="188" y="258"/>
      <point x="198" y="252" type="curve"/>
      <point x="203" y="239"/>
      <point x="208" y="225"/>
      <point x="214" y="206" type="curve"/>
      <point x="253" y="206" type="line"/>
      <point x="245" y="281" type="line"/>
      <point x="226" y="289"/>
      <point x="194" y="294"/>
      <point x="166" y="294" type="curve"/>
      <point x="90" y="294"/>
      <point x="38" y="257"/>
      <point x="38" y="205" type="curve"/>
      <point x="38" y="163"/>
      <point x="61" y="139"/>
      <point x="128" y="114" type="curve"/>
      <point x="179" y="95"/>
      <point x="193" y="83"/>
      <point x="193" y="63" type="curve"/>
      <point x="193" y="43"/>
      <point x="173" y="30"/>
      <point x="144" y="30" type="curve"/>
      <point x="123" y="30"/>
      <point x="105" y="35"/>
      <point x="88" y="45" type="curve"/>
      <point x="82" y="60"/>
      <point x="78" y="74"/>
      <point x="74" y="93" type="curve"/>
      <point x="34" y="93" type="line"/>
      <point x="34" y="63"/>
      <point x="36" y="42"/>
      <point x="37" y="17" type="curve"/>
      <point x="63" y="4"/>
      <point x="102" y="-5"/>
    </contour>
    <contour>
      <point x="146" y="0" type="move" name="bottom"/>
    </contour>
    <contour>
      <point x="148" y="289" type="move" name="top"/>
    </contour>
  </outline>
</glyph>
<glyph name="t" format="1">
  <advance width="256"/>
  <unicode hex="0074"/>
  <outline>
    <contour>
      <point x="258" y="52" type="curve"/>
      <point x="242" y="71" type="line"/>
      <point x="228" y="59"/>
      <point x="210" y="52"/>
      <point x="191" y="52" type="curve"/>
      <point x="155" y="52"/>
      <point x="134" y="68"/>
      <point x="134" y="107" type="curve"/>
      <point x="136" y="265" type="line"/>
      <point x="137" y="355" type="line"/>
      <point x="118" y="355" type="line"/>
      <point x="84" y="324"/>
      <point x="49" y="296"/>
      <point x="12" y="268" type="curve"/>
      <point x="12" y="248" type="line"/>
      <point x="63" y="248" type="line"/>
      <point x="61" y="98" type="line"/>
      <point x="61" y="29"/>
      <point x="104" y="-6"/>
      <point x="165" y="-6" type="curve"/>
      <point x="205" y="-6"/>
      <point x="241" y="16"/>
    </contour>
    <contour>
      <point x="99" y="288" type="line"/>
      <point x="99" y="248" type="line"/>
      <point x="237" y="248" type="line"/>
      <point x="237" y="288" type="line"/>
    </contour>
    <contour>
      <point x="144" y="0" type="move" name="bottom"/>
    </contour>
    <contour>
      <point x="98" y="178" type="move" name="stroke"/>
    </contour>
    <contour>
      <point x="126" y="350" type="move" name="top"/>
    </contour>
    <contour>
      <point x="164" y="455" type="move" name="topright"/>
    </contour>
  </outline>
</glyph>
<glyph name="u" format="1">
  <advance width="401"/>
  <unicode hex="0075"/>
  <outline>
    <contour>
      <point x="340" y="56" type="curve"/>
      <point x="338" y="72"/>
      <point x="335" y="100"/>
      <point x="335" y="133" type="curve"/>
      <point x="335" y="185" type="line" smooth="yes"/>
      <point x="335" y="226"/>
      <point x="336" y="257"/>
      <point x="337" y="282" type="curve"/>
      <point x="322" y="293" type="line"/>
      <point x="290" y="282"/>
      <point x="254" y="272"/>
      <point x="213" y="265" type="curve"/>
      <point x="213" y="237" type="line"/>
      <point x="231" y="235"/>
      <point x="246" y="232"/>
      <point x="260" y="227" type="curve"/>
      <point x="261" y="210"/>
      <point x="264" y="189"/>
      <point x="264" y="154" type="curve"/>
      <point x="264" y="86" type="line"/>
      <point x="247" y="62"/>
      <point x="222" y="52"/>
      <point x="201" y="52" type="curve"/>
      <point x="161" y="52"/>
      <point x="136" y="73"/>
      <point x="136" y="121" type="curve"/>
      <point x="136" y="181" type="line"/>
      <point x="136" y="220"/>
      <point x="138" y="257"/>
      <point x="140" y="282" type="curve"/>
      <point x="125" y="293" type="line"/>
      <point x="90" y="282"/>
      <point x="53" y="272"/>
      <point x="13" y="265" type="curve"/>
      <point x="13" y="237" type="line"/>
      <point x="29" y="235"/>
      <point x="47" y="232"/>
      <point x="60" y="228" type="curve"/>
      <point x="61" y="211"/>
      <point x="63" y="189"/>
      <point x="63" y="168" type="curve"/>
      <point x="63" y="111" type="line" smooth="yes"/>
      <point x="63" y="33"/>
      <point x="110" y="-6"/>
      <point x="174" y="-6" type="curve"/>
      <point x="206" y="-6"/>
      <point x="237" y="7"/>
      <point x="264" y="47" type="curve"/>
      <point x="266" y="46" type="line"/>
      <point x="265" y="1" type="line"/>
      <point x="280" y="-8" type="line"/>
      <point x="310" y="2"/>
      <point x="347" y="13"/>
      <point x="387" y="20" type="curve"/>
      <point x="387" y="47" type="line"/>
      <point x="373" y="49"/>
      <point x="350" y="52"/>
    </contour>
    <contour>
      <point x="201" y="0" type="move" name="bottom"/>
    </contour>
    <contour>
      <point x="306" y="0" type="move" name="ogonek"/>
    </contour>
    <contour>
      <point x="201" y="289" type="move" name="top"/>
    </contour>
    <contour>
      <point x="322" y="289" type="move" name="topright"/>
    </contour>
  </outline>
</glyph>
<glyph name="v" format="1">
  <advance width="347"/>
  <unicode hex="0076"/>
  <outline>
    <contour>
      <point x="32" y="251" type="curve"/>
      <point x="159" y="-3" type="line"/>
      <point x="185" y="-3" type="line"/>
      <point x="315" y="251" type="line"/>
      <point x="325" y="254"/>
      <point x="337" y="257"/>
      <point x="347" y="260" type="curve"/>
      <point x="346" y="289" type="line"/>
      <point x="330" y="289"/>
      <point x="308" y="288"/>
      <point x="290" y="288" type="curve"/>
      <point x="273" y="288"/>
      <point x="238" y="288"/>
      <point x="222" y="289" type="curve"/>
      <point x="221" y="259" type="line"/>
      <point x="238" y="257"/>
      <point x="254" y="254"/>
      <point x="267" y="251" type="curve"/>
      <point x="185" y="78" type="line"/>
      <point x="205" y="79" type="line"/>
      <point x="117" y="251" type="line"/>
      <point x="130" y="254"/>
      <point x="146" y="257"/>
      <point x="162" y="259" type="curve"/>
      <point x="161" y="289" type="line"/>
      <point x="139" y="288"/>
      <point x="102" y="288"/>
      <point x="81" y="288" type="curve"/>
      <point x="60" y="288"/>
      <point x="20" y="289"/>
      <point x="-1" y="289" type="curve"/>
      <point x="-3" y="260" type="line"/>
      <point x="8" y="257"/>
      <point x="22" y="254"/>
    </contour>
    <contour>
      <point x="174" y="0" type="move" name="bottom"/>
    </contour>
    <contour>
      <point x="174" y="289" type="move" name="top"/>
    </contour>
  </outline>
</glyph>
<glyph name="w" format="1">
  <advance width="556"/>
  <unicode hex="0077"/>
  <outline>
    <contour>
      <point x="254" y="251" type="curve"/>
      <point x="369" y="-3" type="line"/>
      <point x="395" y="-3" type="line"/>
      <point x="523" y="251" type="line"/>
      <point x="532" y="254"/>
      <point x="544" y="257"/>
      <point x="554" y="260" type="curve"/>
      <point x="553" y="289" type="line"/>
      <point x="539" y="289"/>
      <point x="511" y="288"/>
      <point x="493" y="288" type="curve"/>
      <point x="476" y="288"/>
      <point x="453" y="288"/>
      <point x="437" y="289" type="curve"/>
      <point x="436" y="259" type="line"/>
      <point x="452" y="257"/>
      <point x="462" y="254"/>
      <point x="474" y="251" type="curve"/>
      <point x="394" y="78" type="line"/>
      <point x="413" y="79" type="line"/>
      <point x="336" y="251" type="line"/>
      <point x="347" y="254"/>
      <point x="359" y="257"/>
      <point x="371" y="259" type="curve"/>
      <point x="370" y="289" type="line"/>
      <point x="355" y="288"/>
      <point x="318" y="288"/>
      <point x="301" y="288" type="curve"/>
      <point x="280" y="288"/>
      <point x="237" y="289"/>
      <point x="222" y="289" type="curve"/>
      <point x="220" y="259" type="line"/>
      <point x="232" y="257"/>
      <point x="243" y="254"/>
    </contour>
    <contour>
      <point x="36" y="251" type="curve"/>
      <point x="156" y="-3" type="line"/>
      <point x="182" y="-3" type="line"/>
      <point x="291" y="208" type="line"/>
      <point x="269" y="252" type="line"/>
      <point x="181" y="78" type="line"/>
      <point x="202" y="79" type="line"/>
      <point x="121" y="251" type="line"/>
      <point x="132" y="254"/>
      <point x="143" y="257"/>
      <point x="156" y="259" type="curve"/>
      <point x="154" y="289" type="line"/>
      <point x="139" y="288"/>
      <point x="96" y="288"/>
      <point x="79" y="288" type="curve"/>
      <point x="58" y="288"/>
      <point x="20" y="289"/>
      <point x="3" y="289" type="curve"/>
      <point x="1" y="260" type="line"/>
      <point x="12" y="257"/>
      <point x="26" y="254"/>
    </contour>
    <contour>
      <point x="276" y="0" type="move" name="bottom"/>
    </contour>
    <contour>
      <point x="295" y="289" type="move" name="top"/>
    </contour>
  </outline>
</glyph>
<glyph name="x" format="1">
  <advance width="340"/>
  <unicode hex="0078"/>
  <outline>
    <contour>
      <point x="332" y="-2" type="curve"/>
      <point x="333" y="30" type="line"/>
      <point x="325" y="32"/>
      <point x="311" y="36"/>
      <point x="301" y="39" type="curve"/>
      <point x="205" y="160" type="line"/>
      <point x="184" y="187" type="line"/>
      <point x="131" y="253" type="line"/>
      <point x="141" y="256"/>
      <point x="152" y="258"/>
      <point x="162" y="260" type="curve"/>
      <point x="161" y="289" type="line"/>
      <point x="140" y="288"/>
      <point x="108" y="288"/>
      <point x="87" y="288" type="curve"/>
      <point x="66" y="288"/>
      <point x="34" y="289"/>
      <point x="13" y="289" type="curve"/>
      <point x="11" y="260" type="line"/>
      <point x="20" y="259"/>
      <point x="32" y="256"/>
      <point x="42" y="253" type="curve"/>
      <point x="132" y="142" type="line"/>
      <point x="152" y="114" type="line"/>
      <point x="213" y="39" type="line"/>
      <point x="204" y="36"/>
      <point x="190" y="34"/>
      <point x="181" y="32" type="curve"/>
      <point x="181" y="-1" type="line"/>
      <point x="202" y="0"/>
      <point x="236" y="1"/>
      <point x="257" y="1" type="curve"/>
      <point x="278" y="1"/>
      <point x="311" y="0"/>
    </contour>
    <contour>
      <point x="237" y="253" type="curve"/>
      <point x="184" y="187" type="line"/>
      <point x="132" y="142" type="line"/>
      <point x="42" y="39" type="line"/>
      <point x="32" y="36"/>
      <point x="17" y="32"/>
      <point x="9" y="30" type="curve"/>
      <point x="10" y="-2" type="line"/>
      <point x="24" y="0"/>
      <point x="49" y="1"/>
      <point x="66" y="1" type="curve"/>
      <point x="82" y="1"/>
      <point x="109" y="0"/>
      <point x="123" y="-1" type="curve"/>
      <point x="124" y="31" type="line"/>
      <point x="115" y="33"/>
      <point x="101" y="36"/>
      <point x="92" y="39" type="curve"/>
      <point x="152" y="114" type="line"/>
      <point x="205" y="160" type="line"/>
      <point x="286" y="253" type="line"/>
      <point x="297" y="256"/>
      <point x="308" y="259"/>
      <point x="317" y="260" type="curve"/>
      <point x="316" y="289" type="line"/>
      <point x="302" y="289"/>
      <point x="277" y="288"/>
      <point x="261" y="288" type="curve"/>
      <point x="245" y="288"/>
      <point x="221" y="288"/>
      <point x="207" y="289" type="curve"/>
      <point x="206" y="260" type="line"/>
      <point x="216" y="258"/>
      <point x="227" y="256"/>
    </contour>
    <contour>
      <point x="170" y="0" type="move" name="bottom"/>
    </contour>
    <contour>
      <point x="170" y="289" type="move" name="top"/>
    </contour>
  </outline>
</glyph>
<glyph name="y" format="1">
  <advance width="347"/>
  <unicode hex="0079"/>
  <outline>
    <contour>
      <point x="32" y="251" type="curve"/>
      <point x="159" y="-3" type="line"/>
      <point x="205" y="79" type="line"/>
      <point x="117" y="251" type="line"/>
      <point x="130" y="254"/>
      <point x="146" y="257"/>
      <point x="162" y="259" type="curve"/>
      <point x="161" y="289" type="line"/>
      <point x="139" y="288"/>
      <point x="102" y="288"/>
      <point x="81" y="288" type="curve"/>
      <point x="60" y="288"/>
      <point x="20" y="289"/>
      <point x="-1" y="289" type="curve"/>
      <point x="-3" y="260" type="line"/>
      <point x="8" y="257"/>
      <point x="22" y="254"/>
    </contour>
    <contour>
      <point x="348" y="260" type="curve"/>
      <point x="347" y="289" type="line"/>
      <point x="331" y="289"/>
      <point x="309" y="288"/>
      <point x="291" y="288" type="curve"/>
      <point x="273" y="288"/>
      <point x="237" y="288"/>
      <point x="223" y="289" type="curve"/>
      <point x="222" y="259" type="line"/>
      <point x="239" y="257"/>
      <point x="254" y="254"/>
      <point x="268" y="251" type="curve"/>
      <point x="184" y="78" type="line"/>
      <point x="176" y="64" type="line"/>
      <point x="95" y="-83" type="line"/>
      <point x="134" y="-52" type="line"/>
      <point x="60" y="-73" type="line" smooth="yes"/>
      <point x="32" y="-81"/>
      <point x="18" y="-97"/>
      <point x="18" y="-116" type="curve"/>
      <point x="18" y="-136"/>
      <point x="36" y="-151"/>
      <point x="64" y="-151" type="curve"/>
      <point x="93" y="-151"/>
      <point x="117" y="-137"/>
      <point x="140" y="-90" type="curve"/>
      <point x="195" y="19" type="line"/>
      <point x="316" y="251" type="line"/>
      <point x="325" y="254"/>
      <point x="338" y="257"/>
    </contour>
    <contour>
      <point x="228" y="0" type="move" name="bottom"/>
    </contour>
    <contour>
      <point x="193" y="289" type="move" name="top"/>
    </contour>
  </outline>
</glyph>
<glyph name="z" format="1">
  <advance width="305"/>
  <unicode hex="007A"/>
  <outline>
    <contour>
      <point x="103" y="38" type="line"/>
      <point x="105" y="12" type="line"/>
      <point x="276" y="262" type="line"/>
      <point x="276" y="290" type="line"/>
      <point x="256" y="290"/>
      <point x="235" y="289"/>
      <point x="215" y="289" type="curve"/>
      <point x="90" y="289" type="line" smooth="yes"/>
      <point x="71" y="289"/>
      <point x="46" y="289"/>
      <point x="22" y="290" type="curve"/>
      <point x="22" y="263"/>
      <point x="23" y="226"/>
      <point x="23" y="196" type="curve"/>
      <point x="61" y="196" type="line"/>
      <point x="64" y="217"/>
      <point x="67" y="235"/>
      <point x="71" y="249" type="curve"/>
      <point x="85" y="251"/>
      <point x="101" y="253"/>
      <point x="120" y="253" type="curve"/>
      <point x="202" y="253" type="line"/>
      <point x="203" y="277" type="line"/>
      <point x="29" y="27" type="line"/>
      <point x="29" y="-2" type="line"/>
      <point x="49" y="-1"/>
      <point x="69" y="0"/>
      <point x="89" y="0" type="curve"/>
      <point x="212" y="0" type="line" smooth="yes"/>
      <point x="231" y="0"/>
      <point x="257" y="0"/>
      <point x="281" y="-1" type="curve"/>
      <point x="284" y="28"/>
      <point x="289" y="64"/>
      <point x="294" y="98" type="curve"/>
      <point x="254" y="98" type="line"/>
      <point x="248" y="73"/>
      <point x="242" y="53"/>
      <point x="237" y="41" type="curve"/>
      <point x="221" y="39"/>
      <point x="206" y="38"/>
      <point x="190" y="38" type="curve"/>
    </contour>
    <contour>
      <point x="153" y="0" type="move" name="bottom"/>
    </contour>
    <contour>
      <point x="153" y="289" type="move" name="top"/>
    </contour>
  </outline>
</glyph>
<glyph name="braceleft" format="1">
  <advance width="262"/>
  <unicode hex="007B"/>
  <outline>
    <contour>
      <point x="159" y="-52" type="curve"/>
      <point x="159" y="-6"/>
      <point x="186" y="29"/>
      <point x="186" y="82" type="curve"/>
      <point x="186" y="130"/>
      <point x="154" y="167"/>
      <point x="96" y="174" type="curve"/>
      <point x="96" y="165" type="line"/>
      <point x="155" y="171"/>
      <point x="186" y="202"/>
      <point x="186" y="250" type="curve"/>
      <point x="186" y="303"/>
      <point x="159" y="338"/>
      <point x="159" y="384" type="curve"/>
      <point x="159" y="424"/>
      <point x="184" y="444"/>
      <point x="231" y="450" type="curve"/>
      <point x="223" y="483" type="line"/>
      <point x="130" y="471"/>
      <point x="78" y="438"/>
      <point x="78" y="373" type="curve"/>
      <point x="78" y="324"/>
      <point x="115" y="275"/>
      <point x="115" y="235" type="curve"/>
      <point x="115" y="203"/>
      <point x="96" y="187"/>
      <point x="42" y="185" type="curve"/>
      <point x="42" y="147" type="line"/>
      <point x="96" y="145"/>
      <point x="115" y="128"/>
      <point x="115" y="97" type="curve"/>
      <point x="115" y="57"/>
      <point x="78" y="7"/>
      <point x="78" y="-41" type="curve"/>
      <point x="78" y="-106"/>
      <point x="130" y="-139"/>
      <point x="223" y="-151" type="curve"/>
      <point x="231" y="-118" type="line"/>
      <point x="184" y="-112"/>
      <point x="159" y="-93"/>
    </contour>
  </outline>
</glyph>
<glyph name="bar" format="1">
  <advance width="190"/>
  <unicode hex="007C"/>
  <outline>
    <contour>
      <point x="68" y="477" type="line"/>
      <point x="68" y="-145" type="line"/>
      <point x="121" y="-145" type="line"/>
      <point x="121" y="477" type="line"/>
    </contour>
  </outline>
</glyph>
<glyph name="braceright" format="1">
  <advance width="262"/>
  <unicode hex="007D"/>
  <outline>
    <contour>
      <point x="104" y="-52" type="curve"/>
      <point x="104" y="-93"/>
      <point x="78" y="-112"/>
      <point x="32" y="-118" type="curve"/>
      <point x="39" y="-151" type="line"/>
      <point x="132" y="-139"/>
      <point x="184" y="-106"/>
      <point x="184" y="-41" type="curve"/>
      <point x="184" y="7"/>
      <point x="148" y="57"/>
      <point x="148" y="97" type="curve"/>
      <point x="148" y="128"/>
      <point x="166" y="145"/>
      <point x="220" y="147" type="curve"/>
      <point x="220" y="185" type="line"/>
      <point x="166" y="187"/>
      <point x="148" y="203"/>
      <point x="148" y="235" type="curve"/>
      <point x="148" y="275"/>
      <point x="184" y="324"/>
      <point x="184" y="373" type="curve"/>
      <point x="184" y="438"/>
      <point x="132" y="471"/>
      <point x="39" y="483" type="curve"/>
      <point x="32" y="450" type="line"/>
      <point x="78" y="444"/>
      <point x="104" y="424"/>
      <point x="104" y="384" type="curve"/>
      <point x="104" y="338"/>
      <point x="76" y="303"/>
      <point x="76" y="250" type="curve"/>
      <point x="76" y="202"/>
      <point x="108" y="171"/>
      <point x="166" y="165" type="curve"/>
      <point x="166" y="174" type="line"/>
      <point x="109" y="167"/>
      <point x="76" y="130"/>
      <point x="76" y="82" type="curve"/>
      <point x="76" y="29"/>
      <point x="104" y="-6"/>
    </contour>
  </outline>
</glyph>
<glyph name="asciitilde" format="1">
  <advance width="378"/>
  <unicode hex="007E"/>
  <outline>
    <contour>
      <point x="341" y="186" type="curve"/>
      <point x="316" y="203" type="line"/>
      <point x="304" y="183"/>
      <point x="288" y="172"/>
      <point x="267" y="172" type="curve"/>
      <point x="233" y="172"/>
      <point x="172" y="216"/>
      <point x="120" y="216" type="curve"/>
      <point x="83" y="216"/>
      <point x="52" y="191"/>
      <point x="37" y="151" type="curve"/>
      <point x="62" y="134" type="line"/>
      <point x="74" y="154"/>
      <point x="91" y="165"/>
      <point x="111" y="165" type="curve"/>
      <point x="145" y="165"/>
      <point x="206" y="121"/>
      <point x="258" y="121" type="curve"/>
      <point x="295" y="121"/>
      <point x="326" y="146"/>
    </contour>
  </outline>
</glyph>
<glyph name="exclamdown" format="1">
  <advance width="196"/>
  <unicode hex="00A1"/>
  <outline>
    <contour>
      <point x="115" y="146" type="curve"/>
      <point x="81" y="146" type="line"/>
      <point x="75" y="57"/>
      <point x="48" y="-31"/>
      <point x="48" y="-91" type="curve"/>
      <point x="48" y="-129"/>
      <point x="70" y="-151"/>
      <point x="98" y="-151" type="curve"/>
      <point x="127" y="-151"/>
      <point x="148" y="-129"/>
      <point x="148" y="-91" type="curve"/>
      <point x="148" y="-31"/>
      <point x="121" y="57"/>
    </contour>
    <contour>
      <point x="98" y="294" type="curve"/>
      <point x="68" y="294"/>
      <point x="43" y="270"/>
      <point x="43" y="239" type="curve"/>
      <point x="43" y="207"/>
      <point x="68" y="182"/>
      <point x="98" y="182" type="curve"/>
      <point x="129" y="182"/>
      <point x="153" y="207"/>
      <point x="153" y="239" type="curve"/>
      <point x="153" y="270"/>
      <point x="129" y="294"/>
    </contour>
  </outline>
</glyph>
<glyph name="cent" format="1">
  <advance width="318"/>
  <unicode hex="00A2"/>
  <outline>
    <contour>
      <point x="180" y="-5" type="curve"/>
      <point x="232" y="-5"/>
      <point x="278" y="21"/>
      <point x="304" y="73" type="curve"/>
      <point x="284" y="92" type="line"/>
      <point x="260" y="64"/>
      <point x="235" y="54"/>
      <point x="204" y="54" type="curve"/>
      <point x="150" y="54"/>
      <point x="109" y="90"/>
      <point x="109" y="158" type="curve"/>
      <point x="109" y="232"/>
      <point x="160" y="266"/>
      <point x="209" y="258" type="curve"/>
      <point x="182" y="265" type="line"/>
      <point x="224" y="225" type="line" smooth="yes"/>
      <point x="241" y="210"/>
      <point x="250" y="205"/>
      <point x="266" y="205" type="curve"/>
      <point x="284" y="205"/>
      <point x="297" y="216"/>
      <point x="297" y="236" type="curve"/>
      <point x="297" y="269"/>
      <point x="256" y="294"/>
      <point x="195" y="294" type="curve"/>
      <point x="99" y="294"/>
      <point x="28" y="223"/>
      <point x="28" y="138" type="curve"/>
      <point x="28" y="52"/>
      <point x="96" y="-5"/>
    </contour>
    <contour>
      <point x="169" y="371" type="line"/>
      <point x="169" y="-82" type="line"/>
      <point x="209" y="-82" type="line"/>
      <point x="209" y="371" type="line"/>
    </contour>
  </outline>
</glyph>
<glyph name="currency" format="1">
  <advance width="378"/>
  <unicode hex="00A4"/>
  <outline>
    <contour>
      <point x="189" y="69" type="curve"/>
      <point x="274" y="69"/>
      <point x="342" y="136"/>
      <point x="342" y="218" type="curve"/>
      <point x="342" y="300"/>
      <point x="274" y="367"/>
      <point x="189" y="367" type="curve"/>
      <point x="104" y="367"/>
      <point x="35" y="300"/>
      <point x="35" y="218" type="curve"/>
      <point x="35" y="136"/>
      <point x="104" y="69"/>
    </contour>
    <contour>
      <point x="13" y="77" type="line"/>
      <point x="43" y="47" type="line"/>
      <point x="119" y="123" type="line"/>
      <point x="90" y="155" type="line"/>
    </contour>
    <contour>
      <point x="257" y="126" type="line"/>
      <point x="334" y="47" type="line"/>
      <point x="364" y="77" type="line"/>
      <point x="286" y="158" type="line"/>
    </contour>
    <contour>
      <point x="189" y="104" type="curve"/>
      <point x="144" y="104"/>
      <point x="110" y="154"/>
      <point x="110" y="217" type="curve"/>
      <point x="110" y="281"/>
      <point x="145" y="331"/>
      <point x="189" y="331" type="curve"/>
      <point x="232" y="330"/>
      <point x="267" y="281"/>
      <point x="267" y="217" type="curve"/>
      <point x="267" y="154"/>
      <point x="232" y="104"/>
    </contour>
    <contour>
      <point x="13" y="358" type="line"/>
      <point x="83" y="289" type="line"/>
      <point x="113" y="319" type="line"/>
      <point x="43" y="389" type="line"/>
    </contour>
    <contour>
      <point x="262" y="318" type="line"/>
      <point x="294" y="286" type="line"/>
      <point x="364" y="357" type="line"/>
      <point x="333" y="390" type="line"/>
    </contour>
  </outline>
</glyph>
<glyph name="yen" format="1">
  <advance width="396"/>
  <unicode hex="00A5"/>
  <outline>
    <contour>
      <point x="56" y="199" type="line"/>
      <point x="56" y="162" type="line"/>
      <point x="338" y="162" type="line"/>
      <point x="338" y="199" type="line"/>
    </contour>
    <contour>
      <point x="56" y="121" type="line"/>
      <point x="56" y="84" type="line"/>
      <point x="338" y="84" type="line"/>
      <point x="338" y="121" type="line"/>
    </contour>
    <contour>
      <point x="212" y="126" type="line"/>
      <point x="359" y="349" type="line"/>
      <point x="368" y="352"/>
      <point x="383" y="355"/>
      <point x="393" y="355" type="curve"/>
      <point x="392" y="389" type="line"/>
      <point x="371" y="389"/>
      <point x="352" y="388"/>
      <point x="333" y="388" type="curve"/>
      <point x="314" y="388"/>
      <point x="284" y="389"/>
      <point x="259" y="389" type="curve"/>
      <point x="257" y="355" type="line"/>
      <point x="274" y="353"/>
      <point x="295" y="351"/>
      <point x="306" y="349" type="curve"/>
      <point x="211" y="200" type="line"/>
      <point x="225" y="200" type="line"/>
      <point x="127" y="349" type="line"/>
      <point x="137" y="351"/>
      <point x="158" y="353"/>
      <point x="177" y="355" type="curve"/>
      <point x="175" y="389" type="line"/>
      <point x="151" y="389"/>
      <point x="108" y="388"/>
      <point x="83" y="388" type="curve"/>
      <point x="58" y="388"/>
      <point x="27" y="389"/>
      <point x="4" y="389" type="curve"/>
      <point x="2" y="355" type="line"/>
      <point x="14" y="354"/>
      <point x="29" y="351"/>
      <point x="37" y="349" type="curve"/>
      <point x="178" y="126" type="line"/>
      <point x="159" y="188" type="line"/>
      <point x="159" y="84" type="line" smooth="yes"/>
      <point x="159" y="63"/>
      <point x="159" y="46"/>
      <point x="158" y="41" type="curve"/>
      <point x="150" y="37"/>
      <point x="129" y="33"/>
      <point x="105" y="31" type="curve"/>
      <point x="107" y="-3" type="line"/>
      <point x="134" y="-1"/>
      <point x="168" y="1"/>
      <point x="198" y="1" type="curve"/>
      <point x="228" y="1"/>
      <point x="260" y="-1"/>
      <point x="288" y="-3" type="curve"/>
      <point x="290" y="31" type="line"/>
      <point x="266" y="33"/>
      <point x="245" y="37"/>
      <point x="237" y="41" type="curve"/>
      <point x="237" y="46"/>
      <point x="236" y="63"/>
      <point x="236" y="84" type="curve"/>
      <point x="236" y="188" type="line"/>
    </contour>
  </outline>
</glyph>
<glyph name="brokenbar" format="1">
  <advance width="190"/>
  <unicode hex="00A6"/>
  <outline>
    <contour>
      <point x="68" y="477" type="line"/>
      <point x="68" y="231" type="line"/>
      <point x="121" y="231" type="line"/>
      <point x="121" y="477" type="line"/>
    </contour>
    <contour>
      <point x="68" y="100" type="line"/>
      <point x="68" y="-145" type="line"/>
      <point x="121" y="-145" type="line"/>
      <point x="121" y="100" type="line"/>
    </contour>
  </outline>
</glyph>
<glyph name="section" format="1">
  <advance width="332"/>
  <unicode hex="00A7"/>
  <outline>
    <contour>
      <point x="159" y="167" type="curve"/>
      <point x="170" y="155" type="line"/>
      <point x="231" y="155"/>
      <point x="298" y="187"/>
      <point x="298" y="246" type="curve"/>
      <point x="298" y="344"/>
      <point x="127" y="336"/>
      <point x="127" y="393" type="curve"/>
      <point x="127" y="414"/>
      <point x="148" y="427"/>
      <point x="182" y="427" type="curve"/>
      <point x="192" y="427"/>
      <point x="204" y="426"/>
      <point x="214" y="421" type="curve"/>
      <point x="219" y="407"/>
      <point x="224" y="393"/>
      <point x="229" y="380" type="curve"/>
      <point x="268" y="380" type="line"/>
      <point x="266" y="403"/>
      <point x="264" y="423"/>
      <point x="261" y="448" type="curve"/>
      <point x="242" y="456"/>
      <point x="209" y="461"/>
      <point x="181" y="461" type="curve"/>
      <point x="109" y="461"/>
      <point x="54" y="425"/>
      <point x="54" y="376" type="curve"/>
      <point x="54" y="282"/>
      <point x="229" y="294"/>
      <point x="229" y="222" type="curve"/>
      <point x="229" y="193"/>
      <point x="200" y="174"/>
    </contour>
    <contour>
      <point x="147" y="-5" type="curve"/>
      <point x="222" y="-5"/>
      <point x="276" y="32"/>
      <point x="276" y="81" type="curve"/>
      <point x="276" y="173"/>
      <point x="104" y="162"/>
      <point x="104" y="233" type="curve"/>
      <point x="104" y="262"/>
      <point x="133" y="281"/>
      <point x="175" y="289" type="curve"/>
      <point x="165" y="301" type="line"/>
      <point x="103" y="300"/>
      <point x="34" y="267"/>
      <point x="34" y="207" type="curve"/>
      <point x="34" y="113"/>
      <point x="203" y="119"/>
      <point x="203" y="64" type="curve"/>
      <point x="203" y="43"/>
      <point x="183" y="30"/>
      <point x="148" y="30" type="curve"/>
      <point x="135" y="30"/>
      <point x="121" y="33"/>
      <point x="111" y="38" type="curve"/>
      <point x="106" y="52"/>
      <point x="102" y="66"/>
      <point x="97" y="80" type="curve"/>
      <point x="58" y="80" type="line"/>
      <point x="59" y="57"/>
      <point x="61" y="35"/>
      <point x="63" y="9" type="curve"/>
      <point x="82" y="1"/>
      <point x="114" y="-5"/>
    </contour>
  </outline>
</glyph>
<glyph name="copyright" format="1">
  <advance width="421"/>
  <unicode hex="00A9"/>
  <outline>
    <contour>
      <point x="210" y="131" type="curve"/>
      <point x="237" y="131"/>
      <point x="261" y="135"/>
      <point x="280" y="144" type="curve"/>
      <point x="285" y="147"/>
      <point x="294" y="173"/>
      <point x="294" y="179" type="curve"/>
      <point x="293" y="180"/>
      <point x="288" y="182"/>
      <point x="281" y="182" type="curve"/>
      <point x="280" y="182"/>
      <point x="271" y="165"/>
      <point x="267" y="162" type="curve"/>
      <point x="258" y="154"/>
      <point x="244" y="151"/>
      <point x="223" y="151" type="curve"/>
      <point x="186" y="151"/>
      <point x="157" y="184"/>
      <point x="157" y="229" type="curve"/>
      <point x="157" y="266"/>
      <point x="181" y="298"/>
      <point x="216" y="298" type="curve"/>
      <point x="253" y="298"/>
      <point x="273" y="279"/>
      <point x="277" y="263" type="curve"/>
      <point x="280" y="263"/>
      <point x="282" y="262"/>
      <point x="284" y="262" type="curve"/>
      <point x="290" y="262"/>
      <point x="293" y="263"/>
      <point x="293" y="265" type="curve"/>
      <point x="293" y="269"/>
      <point x="288" y="302"/>
      <point x="284" y="309" type="curve"/>
      <point x="261" y="315"/>
      <point x="236" y="318"/>
      <point x="211" y="318" type="curve"/>
      <point x="155" y="318"/>
      <point x="113" y="275"/>
      <point x="113" y="223" type="curve"/>
      <point x="113" y="172"/>
      <point x="156" y="131"/>
    </contour>
  </outline>
</glyph>
<glyph name="ordfeminine" format="1">
  <advance width="289"/>
  <unicode hex="00AA"/>
  <outline>
    <contour>
      <point x="108" y="149" type="curve"/>
      <point x="128" y="149"/>
      <point x="153" y="161"/>
      <point x="178" y="193" type="curve"/>
      <point x="168" y="199" type="line"/>
      <point x="178" y="173" type="line" smooth="yes"/>
      <point x="184" y="158"/>
      <point x="192" y="149"/>
      <point x="208" y="149" type="curve"/>
      <point x="226" y="149"/>
      <point x="244" y="160"/>
      <point x="279" y="175" type="curve"/>
      <point x="279" y="200" type="line"/>
      <point x="267" y="202"/>
      <point x="252" y="203"/>
      <point x="242" y="208" type="curve"/>
      <point x="238" y="220"/>
      <point x="237" y="229"/>
      <point x="237" y="246" type="curve"/>
      <point x="237" y="311" type="line"/>
      <point x="238" y="362"/>
      <point x="197" y="393"/>
      <point x="132" y="393" type="curve"/>
      <point x="98" y="390"/>
      <point x="29" y="356"/>
      <point x="29" y="324" type="curve"/>
      <point x="29" y="303"/>
      <point x="54" y="290"/>
      <point x="91" y="297" type="curve"/>
      <point x="94" y="336" type="line" smooth="yes"/>
      <point x="95" y="347"/>
      <point x="98" y="351"/>
      <point x="113" y="351" type="curve"/>
      <point x="140" y="351"/>
      <point x="166" y="329"/>
      <point x="166" y="307" type="curve"/>
      <point x="166" y="294" type="line"/>
      <point x="77" y="272" type="line" smooth="yes"/>
      <point x="39" y="262"/>
      <point x="25" y="243"/>
      <point x="25" y="218" type="curve"/>
      <point x="25" y="190"/>
      <point x="56" y="149"/>
    </contour>
    <contour>
      <point x="137" y="205" type="curve"/>
      <point x="119" y="205"/>
      <point x="101" y="219"/>
      <point x="101" y="238" type="curve"/>
      <point x="101" y="250"/>
      <point x="108" y="260"/>
      <point x="128" y="261" type="curve"/>
      <point x="167" y="264" type="line"/>
      <point x="167" y="212" type="line"/>
      <point x="157" y="207"/>
      <point x="147" y="205"/>
    </contour>
  </outline>
</glyph>
<glyph name="logicalnot" format="1">
  <advance width="378"/>
  <unicode hex="00AC"/>
  <outline>
    <contour>
      <point x="341" y="82" type="line"/>
      <point x="341" y="255" type="line"/>
      <point x="37" y="255" type="line"/>
      <point x="37" y="201" type="line"/>
      <point x="290" y="201" type="line"/>
      <point x="290" y="82" type="line"/>
    </contour>
  </outline>
</glyph>
<glyph name="degree" format="1">
  <advance width="266"/>
  <unicode hex="00B0"/>
  <outline>
    <contour>
      <point x="133" y="202" type="curve"/>
      <point x="192" y="202"/>
      <point x="237" y="242"/>
      <point x="237" y="298" type="curve"/>
      <point x="237" y="353"/>
      <point x="192" y="394"/>
      <point x="133" y="394" type="curve"/>
      <point x="75" y="394"/>
      <point x="30" y="353"/>
      <point x="30" y="298" type="curve"/>
      <point x="30" y="242"/>
      <point x="75" y="202"/>
    </contour>
    <contour>
      <point x="133" y="243" type="curve"/>
      <point x="100" y="243"/>
      <point x="75" y="265"/>
      <point x="75" y="298" type="curve"/>
      <point x="75" y="330"/>
      <point x="100" y="353"/>
      <point x="133" y="353" type="curve"/>
      <point x="166" y="353"/>
      <point x="191" y="330"/>
      <point x="191" y="298" type="curve"/>
      <point x="191" y="265"/>
      <point x="166" y="243"/>
    </contour>
  </outline>
</glyph>
<glyph name="plusminus" format="1">
  <advance width="378"/>
  <unicode hex="00B1"/>
  <outline>
    <contour>
      <point x="341" y="171" type="line"/>
      <point x="341" y="222" type="line"/>
      <point x="37" y="222" type="line"/>
      <point x="37" y="171" type="line"/>
    </contour>
    <contour>
      <point x="214" y="312" type="line"/>
      <point x="164" y="312" type="line"/>
      <point x="164" y="80" type="line"/>
      <point x="214" y="80" type="line"/>
    </contour>
    <contour>
      <point x="341" y="0" type="line"/>
      <point x="341" y="53" type="line"/>
      <point x="37" y="53" type="line"/>
      <point x="37" y="0" type="line"/>
    </contour>
  </outline>
</glyph>
<glyph name="paragraph" format="1">
  <advance width="378"/>
  <unicode hex="00B6"/>
  <outline>
    <contour>
      <point x="357" y="-3" type="curve"/>
      <point x="359" y="31" type="line"/>
      <point x="343" y="33"/>
      <point x="324" y="37"/>
      <point x="318" y="42" type="curve"/>
      <point x="316" y="47"/>
      <point x="313" y="82"/>
      <point x="313" y="142" type="curve"/>
      <point x="313" y="246" type="line" smooth="yes"/>
      <point x="313" y="306"/>
      <point x="316" y="342"/>
      <point x="318" y="346" type="curve"/>
      <point x="324" y="351"/>
      <point x="345" y="354"/>
      <point x="361" y="355" type="curve"/>
      <point x="360" y="389" type="line"/>
      <point x="339" y="388"/>
      <point x="304" y="387"/>
      <point x="258" y="387" type="curve"/>
      <point x="231" y="387"/>
      <point x="208" y="389"/>
      <point x="182" y="389" type="curve"/>
      <point x="82" y="389"/>
      <point x="17" y="340"/>
      <point x="17" y="267" type="curve"/>
      <point x="17" y="189"/>
      <point x="83" y="146"/>
      <point x="189" y="146" type="curve"/>
      <point x="219" y="146"/>
      <point x="252" y="150"/>
      <point x="288" y="160" type="curve"/>
      <point x="288" y="204" type="line"/>
      <point x="253" y="193"/>
      <point x="224" y="189"/>
      <point x="192" y="189" type="curve"/>
      <point x="133" y="189"/>
      <point x="100" y="222"/>
      <point x="100" y="277" type="curve"/>
      <point x="100" y="323"/>
      <point x="130" y="353"/>
      <point x="181" y="353" type="curve"/>
      <point x="188" y="353"/>
      <point x="194" y="353"/>
      <point x="203" y="352" type="curve"/>
      <point x="203" y="341"/>
      <point x="203" y="309"/>
      <point x="203" y="238" type="curve"/>
      <point x="203" y="116" type="line" smooth="yes"/>
      <point x="203" y="82"/>
      <point x="201" y="47"/>
      <point x="199" y="42" type="curve"/>
      <point x="185" y="37"/>
      <point x="160" y="34"/>
      <point x="142" y="32" type="curve"/>
      <point x="143" y="-3" type="line"/>
      <point x="165" y="-1"/>
      <point x="209" y="0"/>
      <point x="249" y="0" type="curve"/>
      <point x="295" y="0"/>
      <point x="338" y="-1"/>
    </contour>
    <contour>
      <point x="244" y="36" type="line"/>
      <point x="244" y="353" type="line"/>
      <point x="277" y="353" type="line"/>
      <point x="274" y="36" type="line"/>
    </contour>
  </outline>
</glyph>
<glyph name="periodcentered" format="1">
  <advance width="191"/>
  <unicode hex="00B7"/>
  <outline>
    <contour>
      <point x="95" y="91" type="curve"/>
      <point x="126" y="91"/>
      <point x="150" y="115"/>
      <point x="150" y="146" type="curve"/>
      <point x="150" y="178"/>
      <point x="126" y="203"/>
      <point x="95" y="203" type="curve"/>
      <point x="65" y="203"/>
      <point x="40" y="178"/>
      <point x="40" y="146" type="curve"/>
      <point x="40" y="115"/>
      <point x="65" y="91"/>
    </contour>
  </outline>
</glyph>
<glyph name="ordmasculine" format="1">
  <advance width="308"/>
  <unicode hex="00BA"/>
  <outline>
    <contour>
      <point x="156" y="149" type="curve"/>
      <point x="228" y="149"/>
      <point x="285" y="204"/>
      <point x="285" y="274" type="curve"/>
      <point x="285" y="344"/>
      <point x="233" y="393"/>
      <point x="159" y="393" type="curve"/>
      <point x="83" y="393"/>
      <point x="23" y="342"/>
      <point x="23" y="267" type="curve"/>
      <point x="23" y="198"/>
      <point x="78" y="149"/>
    </contour>
    <contour>
      <point x="162" y="188" type="curve"/>
      <point x="129" y="188"/>
      <point x="103" y="231"/>
      <point x="103" y="288" type="curve"/>
      <point x="103" y="332"/>
      <point x="121" y="357"/>
      <point x="149" y="357" type="curve"/>
      <point x="183" y="357"/>
      <point x="206" y="315"/>
      <point x="206" y="252" type="curve"/>
      <point x="206" y="209"/>
      <point x="191" y="188"/>
    </contour>
  </outline>
</glyph>
<glyph name="questiondown" format="1">
  <advance width="258"/>
  <unicode hex="00BF"/>
  <outline>
    <contour>
      <point x="183" y="146" type="curve"/>
      <point x="148" y="146" type="line"/>
      <point x="150" y="132"/>
      <point x="151" y="126"/>
      <point x="151" y="119" type="curve"/>
      <point x="151" y="71"/>
      <point x="30" y="71"/>
      <point x="30" y="-14" type="curve"/>
      <point x="30" y="-89"/>
      <point x="102" y="-152"/>
      <point x="194" y="-152" type="curve"/>
      <point x="231" y="-152"/>
      <point x="251" y="-135"/>
      <point x="251" y="-111" type="curve"/>
      <point x="251" y="-88"/>
      <point x="233" y="-70"/>
      <point x="203" y="-70" type="curve"/>
      <point x="180" y="-70"/>
      <point x="159" y="-81"/>
      <point x="137" y="-81" type="curve"/>
      <point x="105" y="-81"/>
      <point x="85" y="-67"/>
      <point x="85" y="-47" type="curve"/>
      <point x="85" y="-1"/>
      <point x="201" y="23"/>
      <point x="201" y="84" type="curve"/>
      <point x="201" y="104"/>
      <point x="197" y="121"/>
    </contour>
    <contour>
      <point x="165" y="294" type="curve"/>
      <point x="134" y="294"/>
      <point x="110" y="270"/>
      <point x="110" y="239" type="curve"/>
      <point x="110" y="207"/>
      <point x="134" y="182"/>
      <point x="165" y="182" type="curve"/>
      <point x="196" y="182"/>
      <point x="220" y="207"/>
      <point x="220" y="239" type="curve"/>
      <point x="220" y="270"/>
      <point x="196" y="294"/>
    </contour>
  </outline>
</glyph>
<glyph name="AE" format="1">
  <advance width="577"/>
  <unicode hex="00C6"/>
  <outline>
    <contour>
      <point x="446" y="133" type="curve"/>
      <point x="480" y="133" type="line"/>
      <point x="479" y="154"/>
      <point x="478" y="179"/>
      <point x="478" y="199" type="curve"/>
      <point x="478" y="220"/>
      <point x="479" y="242"/>
      <point x="480" y="265" type="curve"/>
      <point x="446" y="265" type="line"/>
      <point x="444" y="251"/>
      <point x="440" y="227"/>
      <point x="437" y="221" type="curve"/>
      <point x="432" y="220"/>
      <point x="418" y="219"/>
      <point x="402" y="219" type="curve"/>
      <point x="363" y="219" type="line" smooth="yes"/>
      <point x="348" y="219"/>
      <point x="334" y="220"/>
      <point x="322" y="221" type="curve"/>
      <point x="322" y="177" type="line"/>
      <point x="334" y="178"/>
      <point x="348" y="179"/>
      <point x="363" y="179" type="curve"/>
      <point x="402" y="179" type="line" smooth="yes"/>
      <point x="418" y="179"/>
      <point x="432" y="178"/>
      <point x="437" y="178" type="curve"/>
      <point x="440" y="171"/>
      <point x="444" y="146"/>
    </contour>
    <contour>
      <point x="123" y="153" type="curve"/>
      <point x="112" y="110" type="line"/>
      <point x="130" y="111"/>
      <point x="155" y="112"/>
      <point x="193" y="112" type="curve"/>
      <point x="231" y="112"/>
      <point x="256" y="111"/>
      <point x="272" y="110" type="curve"/>
      <point x="272" y="153" type="line"/>
      <point x="256" y="151"/>
      <point x="231" y="150"/>
      <point x="193" y="150" type="curve"/>
      <point x="155" y="150"/>
      <point x="140" y="151"/>
    </contour>
    <contour>
      <point x="559" y="101" type="line"/>
      <point x="523" y="108" type="line"/>
      <point x="508" y="81"/>
      <point x="496" y="58"/>
      <point x="486" y="40" type="curve"/>
      <point x="475" y="38"/>
      <point x="466" y="38"/>
      <point x="436" y="38" type="curve"/>
      <point x="390" y="38" type="line" smooth="yes"/>
      <point x="366" y="38"/>
      <point x="352" y="39"/>
      <point x="337" y="41" type="curve"/>
      <point x="336" y="51"/>
      <point x="336" y="80"/>
      <point x="336" y="121" type="curve"/>
      <point x="336" y="269" type="line" smooth="yes"/>
      <point x="336" y="310"/>
      <point x="336" y="342"/>
      <point x="337" y="351" type="curve"/>
      <point x="349" y="353"/>
      <point x="366" y="353"/>
      <point x="382" y="353" type="curve"/>
      <point x="441" y="353" type="line" smooth="yes"/>
      <point x="451" y="353"/>
      <point x="460" y="353"/>
      <point x="470" y="351" type="curve"/>
      <point x="479" y="333"/>
      <point x="486" y="315"/>
      <point x="495" y="291" type="curve"/>
      <point x="531" y="296" type="line"/>
      <point x="515" y="391" type="line"/>
      <point x="491" y="390"/>
      <point x="452" y="388"/>
      <point x="426" y="388" type="curve"/>
      <point x="298" y="388" type="line" smooth="yes"/>
      <point x="271" y="388"/>
      <point x="222" y="389"/>
      <point x="200" y="390" type="curve"/>
      <point x="198" y="356" type="line"/>
      <point x="216" y="356"/>
      <point x="244" y="351"/>
      <point x="251" y="346" type="curve"/>
      <point x="255" y="371" type="line"/>
      <point x="22" y="39" type="line"/>
      <point x="14" y="36"/>
      <point x="5" y="34"/>
      <point x="-12" y="31" type="curve"/>
      <point x="-10" y="-1" type="line"/>
      <point x="10" y="0"/>
      <point x="35" y="0"/>
      <point x="53" y="0" type="curve"/>
      <point x="71" y="0"/>
      <point x="95" y="0"/>
      <point x="116" y="-1" type="curve"/>
      <point x="118" y="31" type="line"/>
      <point x="101" y="34"/>
      <point x="82" y="37"/>
      <point x="73" y="39" type="curve"/>
      <point x="281" y="344" type="line"/>
      <point x="258" y="335" type="line"/>
      <point x="258" y="149" type="line" smooth="yes"/>
      <point x="258" y="82"/>
      <point x="258" y="47"/>
      <point x="257" y="42" type="curve"/>
      <point x="250" y="37"/>
      <point x="229" y="33"/>
      <point x="212" y="31" type="curve"/>
      <point x="213" y="-3" type="line"/>
      <point x="235" y="-1"/>
      <point x="271" y="0"/>
      <point x="298" y="0" type="curve"/>
      <point x="447" y="0" type="line" smooth="yes"/>
      <point x="473" y="0"/>
      <point x="506" y="-2"/>
      <point x="529" y="-4" type="curve"/>
    </contour>
    <contour>
      <point x="297" y="0" type="move" name="bottom"/>
    </contour>
    <contour>
      <point x="297" y="388" type="move" name="top"/>
    </contour>
  </outline>
</glyph>
<glyph name="multiply" format="1">
  <advance width="378"/>
  <unicode hex="00D7"/>
  <outline>
    <contour>
      <point x="335" y="268" type="line"/>
      <point x="299" y="306" type="line"/>
      <point x="43" y="69" type="line"/>
      <point x="80" y="31" type="line"/>
    </contour>
    <contour>
      <point x="335" y="69" type="line"/>
      <point x="80" y="306" type="line"/>
      <point x="43" y="268" type="line"/>
      <point x="299" y="31" type="line"/>
    </contour>
  </outline>
</glyph>
<glyph name="Thorn" format="1">
  <advance width="380"/>
  <unicode hex="00DE"/>
  <outline>
    <contour>
      <point x="27" y="31" type="curve"/>
      <point x="29" y="-3" type="line"/>
      <point x="50" y="-1"/>
      <point x="85" y="1"/>
      <point x="115" y="1" type="curve"/>
      <point x="145" y="1"/>
      <point x="180" y="-1"/>
      <point x="209" y="-3" type="curve"/>
      <point x="210" y="32" type="line"/>
      <point x="186" y="33"/>
      <point x="164" y="37"/>
      <point x="156" y="42" type="curve"/>
      <point x="155" y="47"/>
      <point x="153" y="62"/>
      <point x="153" y="83" type="curve"/>
      <point x="153" y="283" type="line"/>
      <point x="164" y="285"/>
      <point x="173" y="286"/>
      <point x="187" y="286" type="curve"/>
      <point x="235" y="286"/>
      <point x="271" y="258"/>
      <point x="271" y="196" type="curve"/>
      <point x="271" y="149"/>
      <point x="242" y="122"/>
      <point x="193" y="122" type="curve"/>
      <point x="174" y="122"/>
      <point x="157" y="125"/>
      <point x="143" y="129" type="curve"/>
      <point x="143" y="88" type="line"/>
      <point x="158" y="85"/>
      <point x="179" y="84"/>
      <point x="197" y="84" type="curve"/>
      <point x="289" y="84"/>
      <point x="353" y="135"/>
      <point x="353" y="204" type="curve"/>
      <point x="353" y="280"/>
      <point x="295" y="322"/>
      <point x="192" y="322" type="curve"/>
      <point x="171" y="322"/>
      <point x="150" y="320"/>
      <point x="136" y="318" type="curve"/>
      <point x="154" y="290" type="line"/>
      <point x="154" y="326" type="line" smooth="yes"/>
      <point x="154" y="336"/>
      <point x="155" y="342"/>
      <point x="157" y="346" type="curve"/>
      <point x="164" y="351"/>
      <point x="184" y="355"/>
      <point x="200" y="356" type="curve"/>
      <point x="198" y="390" type="line"/>
      <point x="178" y="389"/>
      <point x="145" y="387"/>
      <point x="115" y="387" type="curve"/>
      <point x="85" y="387"/>
      <point x="50" y="389"/>
      <point x="30" y="390" type="curve"/>
      <point x="28" y="356" type="line"/>
      <point x="45" y="355"/>
      <point x="65" y="351"/>
      <point x="71" y="346" type="curve"/>
      <point x="74" y="342"/>
      <point x="76" y="306"/>
      <point x="76" y="246" type="curve"/>
      <point x="76" y="142" type="line" smooth="yes"/>
      <point x="76" y="82"/>
      <point x="74" y="47"/>
      <point x="71" y="42" type="curve"/>
      <point x="65" y="37"/>
      <point x="45" y="33"/>
    </contour>
  </outline>
</glyph>
<glyph name="germandbls" format="1">
  <advance width="423"/>
  <unicode hex="00DF"/>
  <outline>
    <contour>
      <point x="292" y="-5" type="curve"/>
      <point x="363" y="-5"/>
      <point x="409" y="32"/>
      <point x="409" y="88" type="curve"/>
      <point x="409" y="184"/>
      <point x="264" y="177"/>
      <point x="264" y="243" type="curve"/>
      <point x="264" y="283"/>
      <point x="327" y="319"/>
      <point x="328" y="373" type="curve"/>
      <point x="328" y="427"/>
      <point x="284" y="461"/>
      <point x="213" y="461" type="curve"/>
      <point x="120" y="461"/>
      <point x="61" y="400"/>
      <point x="61" y="313" type="curve"/>
      <point x="61" y="248" type="line"/>
      <point x="63" y="132" type="line" smooth="yes"/>
      <point x="63" y="73"/>
      <point x="61" y="45"/>
      <point x="60" y="40" type="curve"/>
      <point x="54" y="36"/>
      <point x="32" y="31"/>
      <point x="19" y="29" type="curve"/>
      <point x="21" y="-2" type="line"/>
      <point x="43" y="0"/>
      <point x="74" y="2"/>
      <point x="105" y="2" type="curve"/>
      <point x="132" y="2"/>
      <point x="148" y="0"/>
      <point x="175" y="-2" type="curve"/>
      <point x="176" y="29" type="line"/>
      <point x="164" y="31"/>
      <point x="146" y="36"/>
      <point x="138" y="39" type="curve"/>
      <point x="137" y="46"/>
      <point x="135" y="75"/>
      <point x="134" y="148" type="curve"/>
      <point x="133" y="343" type="line"/>
      <point x="133" y="395"/>
      <point x="161" y="426"/>
      <point x="204" y="426" type="curve"/>
      <point x="241" y="426"/>
      <point x="262" y="403"/>
      <point x="262" y="362" type="curve"/>
      <point x="262" y="296"/>
      <point x="197" y="270"/>
      <point x="197" y="215" type="curve"/>
      <point x="197" y="122"/>
      <point x="340" y="134"/>
      <point x="340" y="66" type="curve"/>
      <point x="340" y="44"/>
      <point x="323" y="30"/>
      <point x="298" y="30" type="curve"/>
      <point x="282" y="30"/>
      <point x="264" y="34"/>
      <point x="247" y="44" type="curve"/>
      <point x="243" y="59"/>
      <point x="239" y="74"/>
      <point x="236" y="91" type="curve"/>
      <point x="198" y="91" type="line"/>
      <point x="197" y="63"/>
      <point x="198" y="42"/>
      <point x="200" y="17" type="curve"/>
      <point x="225" y="3"/>
      <point x="260" y="-5"/>
    </contour>
    <contour>
      <point x="10" y="276" type="curve"/>
      <point x="10" y="248" type="line"/>
      <point x="96" y="248" type="line"/>
      <point x="96" y="288" type="line"/>
      <point x="61" y="290" type="line"/>
      <point x="44" y="284"/>
      <point x="28" y="279"/>
    </contour>
  </outline>
</glyph>
<glyph name="ae" format="1">
  <advance width="503"/>
  <unicode hex="00E6"/>
  <outline>
    <contour>
      <point x="141" y="-5" type="curve"/>
      <point x="174" y="-5"/>
      <point x="204" y="10"/>
      <point x="250" y="58" type="curve"/>
      <point x="229" y="85" type="line"/>
      <point x="206" y="60"/>
      <point x="188" y="49"/>
      <point x="164" y="49" type="curve"/>
      <point x="137" y="49"/>
      <point x="111" y="66"/>
      <point x="111" y="87" type="curve"/>
      <point x="111" y="104"/>
      <point x="122" y="114"/>
      <point x="146" y="118" type="curve"/>
      <point x="471" y="167" type="line"/>
      <point x="471" y="243"/>
      <point x="427" y="294"/>
      <point x="356" y="294" type="curve"/>
      <point x="310" y="294"/>
      <point x="272" y="272"/>
      <point x="249" y="236" type="curve"/>
      <point x="272" y="236" type="line"/>
      <point x="254" y="275"/>
      <point x="210" y="294"/>
      <point x="156" y="294" type="curve"/>
      <point x="110" y="289"/>
      <point x="36" y="249"/>
      <point x="36" y="216" type="curve"/>
      <point x="36" y="190"/>
      <point x="67" y="178"/>
      <point x="106" y="187" type="curve"/>
      <point x="108" y="224" type="line" smooth="yes"/>
      <point x="110" y="245"/>
      <point x="115" y="251"/>
      <point x="135" y="251" type="curve"/>
      <point x="172" y="251"/>
      <point x="208" y="225"/>
      <point x="208" y="178" type="curve"/>
      <point x="208" y="137" type="line" smooth="yes"/>
      <point x="208" y="56"/>
      <point x="268" y="-5"/>
      <point x="350" y="-5" type="curve"/>
      <point x="404" y="-5"/>
      <point x="448" y="21"/>
      <point x="473" y="72" type="curve"/>
      <point x="454" y="91" type="line"/>
      <point x="429" y="63"/>
      <point x="405" y="53"/>
      <point x="376" y="53" type="curve"/>
      <point x="320" y="53"/>
      <point x="282" y="94"/>
      <point x="282" y="159" type="curve"/>
      <point x="282" y="173" type="line" smooth="yes"/>
      <point x="282" y="231"/>
      <point x="311" y="260"/>
      <point x="347" y="260" type="curve"/>
      <point x="381" y="260"/>
      <point x="402" y="234"/>
      <point x="402" y="190" type="curve"/>
      <point x="402" y="169" type="line"/>
      <point x="413" y="190" type="line"/>
      <point x="127" y="147" type="line" smooth="yes"/>
      <point x="60" y="136"/>
      <point x="32" y="112"/>
      <point x="32" y="73" type="curve"/>
      <point x="32" y="38"/>
      <point x="78" y="-5"/>
    </contour>
    <contour>
      <point x="245" y="0" type="move" name="bottom"/>
    </contour>
    <contour>
      <point x="245" y="289" type="move" name="top"/>
    </contour>
  </outline>
</glyph>
<glyph name="eth" format="1">
  <advance width="367"/>
  <unicode hex="00F0"/>
  <outline>
    <contour>
      <point x="274" y="243" type="curve"/>
      <point x="284" y="282" type="line"/>
      <point x="258" y="290"/>
      <point x="229" y="294"/>
      <point x="206" y="294" type="curve"/>
      <point x="105" y="294"/>
      <point x="31" y="239"/>
      <point x="31" y="142" type="curve"/>
      <point x="31" y="53"/>
      <point x="100" y="-5"/>
      <point x="186" y="-5" type="curve"/>
      <point x="276" y="-5"/>
      <point x="336" y="60"/>
      <point x="336" y="181" type="curve"/>
      <point x="336" y="303"/>
      <point x="245" y="424"/>
      <point x="124" y="455" type="curve"/>
      <point x="36" y="455" type="line"/>
      <point x="34" y="426" type="line"/>
      <point x="183" y="386"/>
      <point x="259" y="295"/>
      <point x="259" y="152" type="curve"/>
      <point x="259" y="67"/>
      <point x="238" y="34"/>
      <point x="196" y="34" type="curve"/>
      <point x="150" y="34"/>
      <point x="112" y="74"/>
      <point x="112" y="152" type="curve"/>
      <point x="112" y="218"/>
      <point x="147" y="256"/>
      <point x="205" y="256" type="curve"/>
      <point x="226" y="256"/>
      <point x="251" y="253"/>
    </contour>
    <contour>
      <point x="46" y="355" type="line"/>
      <point x="62" y="321" type="line"/>
      <point x="297" y="427" type="line"/>
      <point x="281" y="461" type="line"/>
    </contour>
  </outline>
</glyph>
<glyph name="divide" format="1">
  <advance width="378"/>
  <unicode hex="00F7"/>
  <outline>
    <contour>
      <point x="341" y="141" type="line"/>
      <point x="341" y="195" type="line"/>
      <point x="37" y="195" type="line"/>
      <point x="37" y="141" type="line"/>
    </contour>
    <contour>
      <point x="186" y="12" type="curve"/>
      <point x="208" y="12"/>
      <point x="227" y="30"/>
      <point x="227" y="53" type="curve"/>
      <point x="227" y="76"/>
      <point x="208" y="95"/>
      <point x="186" y="95" type="curve"/>
      <point x="163" y="95"/>
      <point x="144" y="76"/>
      <point x="144" y="53" type="curve"/>
      <point x="144" y="30"/>
      <point x="163" y="12"/>
    </contour>
    <contour>
      <point x="186" y="241" type="curve"/>
      <point x="208" y="241"/>
      <point x="227" y="259"/>
      <point x="227" y="282" type="curve"/>
      <point x="227" y="306"/>
      <point x="208" y="325"/>
      <point x="186" y="325" type="curve"/>
      <point x="163" y="325"/>
      <point x="144" y="306"/>
      <point x="144" y="282" type="curve"/>
      <point x="144" y="259"/>
      <point x="163" y="241"/>
    </contour>
  </outline>
</glyph>
<glyph name="oslash" format="1">
  <advance width="371"/>
  <unicode hex="00F8"/>
  <outline>
    <component base="slashlongcomb" xOffset="-24.568"/>
    <component base="o"/>
    <contour>
      <point x="185" y="289" type="move" name="top"/>
    </contour>
  </outline>
</glyph>
<glyph name="thorn" format="1">
  <advance width="389"/>
  <unicode hex="00FE"/>
  <outline>
    <contour>
      <point x="15" y="-118" type="curve"/>
      <point x="18" y="-150" type="line"/>
      <point x="41" y="-147"/>
      <point x="70" y="-145"/>
      <point x="99" y="-145" type="curve"/>
      <point x="128" y="-145"/>
      <point x="164" y="-147"/>
      <point x="188" y="-150" type="curve"/>
      <point x="190" y="-118" type="line"/>
      <point x="172" y="-116"/>
      <point x="146" y="-111"/>
      <point x="139" y="-107" type="curve"/>
      <point x="138" y="-101"/>
      <point x="135" y="-78"/>
      <point x="135" y="-38" type="curve"/>
      <point x="135" y="4" type="line"/>
      <point x="153" y="-1"/>
      <point x="173" y="-5"/>
      <point x="193" y="-5" type="curve"/>
      <point x="291" y="-5"/>
      <point x="359" y="69"/>
      <point x="359" y="155" type="curve"/>
      <point x="359" y="242"/>
      <point x="301" y="294"/>
      <point x="229" y="294" type="curve"/>
      <point x="192" y="294"/>
      <point x="158" y="274"/>
      <point x="136" y="243" type="curve"/>
      <point x="134" y="244" type="line"/>
      <point x="136" y="350"/>
      <point x="137" y="395"/>
      <point x="140" y="449" type="curve"/>
      <point x="123" y="461" type="line"/>
      <point x="90" y="446"/>
      <point x="51" y="434"/>
      <point x="12" y="426" type="curve"/>
      <point x="13" y="397" type="line"/>
      <point x="26" y="397"/>
      <point x="46" y="396"/>
      <point x="60" y="394" type="curve"/>
      <point x="62" y="375"/>
      <point x="63" y="315"/>
      <point x="63" y="243" type="curve"/>
      <point x="62" y="23" type="line" smooth="yes"/>
      <point x="61" y="-78"/>
      <point x="60" y="-102"/>
      <point x="58" y="-107" type="curve"/>
      <point x="51" y="-111"/>
      <point x="29" y="-116"/>
    </contour>
    <contour>
      <point x="195" y="39" type="curve"/>
      <point x="173" y="39"/>
      <point x="151" y="45"/>
      <point x="135" y="54" type="curve"/>
      <point x="135" y="207" type="line"/>
      <point x="151" y="226"/>
      <point x="174" y="236"/>
      <point x="199" y="236" type="curve"/>
      <point x="243" y="236"/>
      <point x="279" y="204"/>
      <point x="279" y="137" type="curve"/>
      <point x="279" y="70"/>
      <point x="245" y="39"/>
    </contour>
  </outline>
</glyph>
<glyph name="Aogonek" format="1">
  <advance width="418"/>
  <unicode hex="0104"/>
  <outline>
    <contour>
      <point x="351" y="-147" type="curve"/>
      <point x="382" y="-147"/>
      <point x="409" y="-135"/>
      <point x="428" y="-114" type="curve"/>
      <point x="411" y="-91" type="line"/>
      <point x="395" y="-106"/>
      <point x="379" y="-113"/>
      <point x="363" y="-113" type="curve"/>
      <point x="340" y="-113"/>
      <point x="324" y="-100"/>
      <point x="324" y="-76" type="curve"/>
      <point x="324" y="-43"/>
      <point x="362" y="-12"/>
      <point x="419" y="0" type="curve"/>
      <point x="421" y="31" type="line"/>
      <point x="406" y="34"/>
      <point x="394" y="36"/>
      <point x="385" y="38" type="curve"/>
      <point x="227" y="400" type="line"/>
      <point x="178" y="370" type="line"/>
      <point x="34" y="39" type="line"/>
      <point x="27" y="36"/>
      <point x="16" y="34"/>
      <point x="-1" y="31" type="curve"/>
      <point x="1" y="-1" type="line"/>
      <point x="21" y="0"/>
      <point x="46" y="0"/>
      <point x="64" y="0" type="curve"/>
      <point x="82" y="0"/>
      <point x="107" y="0"/>
      <point x="128" y="-1" type="curve"/>
      <point x="129" y="31" type="line"/>
      <point x="112" y="34"/>
      <point x="93" y="37"/>
      <point x="85" y="39" type="curve"/>
      <point x="120" y="133" type="line"/>
      <point x="128" y="153" type="line"/>
      <point x="195" y="312" type="line"/>
      <point x="175" y="314" type="line"/>
      <point x="248" y="152" type="line"/>
      <point x="256" y="129" type="line"/>
      <point x="296" y="38" type="line"/>
      <point x="286" y="36"/>
      <point x="269" y="34"/>
      <point x="252" y="31" type="curve"/>
      <point x="254" y="-1" type="line"/>
      <point x="274" y="0"/>
      <point x="312" y="1"/>
      <point x="337" y="1" type="curve"/>
      <point x="383" y="1" type="line"/>
      <point x="380" y="9" type="line"/>
      <point x="310" y="-4"/>
      <point x="266" y="-44"/>
      <point x="266" y="-82" type="curve"/>
      <point x="266" y="-120"/>
      <point x="301" y="-147"/>
    </contour>
    <contour>
      <point x="106" y="157" type="curve"/>
      <point x="106" y="115" type="line"/>
      <point x="124" y="115"/>
      <point x="150" y="116"/>
      <point x="190" y="116" type="curve"/>
      <point x="230" y="116"/>
      <point x="256" y="115"/>
      <point x="274" y="115" type="curve"/>
      <point x="274" y="157" type="line"/>
      <point x="257" y="157"/>
      <point x="230" y="155"/>
      <point x="190" y="155" type="curve"/>
      <point x="150" y="155"/>
      <point x="123" y="157"/>
    </contour>
    <contour>
      <point x="190" y="0" type="move" name="bottom"/>
    </contour>
    <contour>
      <point x="203" y="388" type="move" name="top"/>
    </contour>
  </outline>
</glyph>
<glyph name="aogonek" format="1">
  <advance width="341"/>
  <unicode hex="0105"/>
  <outline>
    <contour>
      <point x="344" y="-114" type="curve"/>
      <point x="326" y="-91" type="line"/>
      <point x="310" y="-106"/>
      <point x="295" y="-113"/>
      <point x="278" y="-113" type="curve"/>
      <point x="255" y="-113"/>
      <point x="240" y="-100"/>
      <point x="240" y="-76" type="curve"/>
      <point x="240" y="-50"/>
      <point x="259" y="-24"/>
      <point x="328" y="20" type="curve"/>
      <point x="328" y="45" type="line"/>
      <point x="314" y="47"/>
      <point x="292" y="50"/>
      <point x="282" y="54" type="curve"/>
      <point x="280" y="63"/>
      <point x="277" y="77"/>
      <point x="277" y="99" type="curve"/>
      <point x="279" y="197" type="line"/>
      <point x="279" y="257"/>
      <point x="228" y="294"/>
      <point x="154" y="294" type="curve"/>
      <point x="108" y="289"/>
      <point x="34" y="249"/>
      <point x="34" y="216" type="curve"/>
      <point x="34" y="190"/>
      <point x="65" y="178"/>
      <point x="104" y="187" type="curve"/>
      <point x="106" y="224" type="line" smooth="yes"/>
      <point x="108" y="245"/>
      <point x="113" y="251"/>
      <point x="133" y="251" type="curve"/>
      <point x="168" y="251"/>
      <point x="204" y="226"/>
      <point x="204" y="195" type="curve"/>
      <point x="204" y="169" type="line"/>
      <point x="96" y="138" type="line" smooth="yes"/>
      <point x="48" y="124"/>
      <point x="31" y="103"/>
      <point x="31" y="73" type="curve"/>
      <point x="31" y="40"/>
      <point x="69" y="-5"/>
      <point x="131" y="-5" type="curve"/>
      <point x="154" y="-5"/>
      <point x="184" y="7"/>
      <point x="219" y="47" type="curve"/>
      <point x="206" y="50" type="line"/>
      <point x="217" y="21" type="line" smooth="yes"/>
      <point x="224" y="1"/>
      <point x="241" y="-11"/>
      <point x="279" y="0" type="curve"/>
      <point x="283" y="8" type="line"/>
      <point x="220" y="-16"/>
      <point x="181" y="-47"/>
      <point x="181" y="-82" type="curve"/>
      <point x="181" y="-120"/>
      <point x="217" y="-147"/>
      <point x="267" y="-147" type="curve"/>
      <point x="298" y="-147"/>
      <point x="324" y="-135"/>
    </contour>
    <contour>
      <point x="205" y="133" type="line"/>
      <point x="205" y="67" type="line"/>
      <point x="190" y="54"/>
      <point x="174" y="49"/>
      <point x="158" y="49" type="curve"/>
      <point x="135" y="49"/>
      <point x="110" y="68"/>
      <point x="110" y="90" type="curve"/>
      <point x="110" y="107"/>
      <point x="119" y="117"/>
      <point x="142" y="122" type="curve"/>
    </contour>
    <contour>
      <point x="164" y="289" type="move" name="top"/>
    </contour>
  </outline>
</glyph>
